<svg width="188" height="169" viewBox="0 0 188 169" fill="none" xmlns="http://www.w3.org/2000/svg">
<mask id="path-1-inside-1_3169_486" fill="white">
<path d="M187.411 133.182L186.694 129.311C186.237 126.838 184.077 125.043 181.559 125.043C181.243 125.043 180.924 125.072 180.61 125.13L166.011 127.811L172.623 123.392C174.355 122.234 175.231 120.162 174.853 118.107C174.748 117.544 174.552 117.004 174.267 116.498L172.266 112.955C171.58 111.738 170.411 110.833 169.062 110.475C168.401 110.299 167.71 110.26 167.036 110.347C167.772 106.284 168.152 102.134 168.152 97.9096C168.152 96.0352 167.024 94.4221 165.414 93.7057C167.518 88.7017 167.662 82.9729 165.582 77.7265C165.413 77.2999 165.163 76.9191 164.839 76.5945C164.517 76.2728 164.141 76.0243 163.714 75.8528C161.222 74.8603 158.602 74.3572 155.929 74.3572C155.587 74.3572 155.247 74.366 154.907 74.3822C154.526 66.6959 148.164 60.5598 140.398 60.5598C139.376 60.5598 138.379 60.6685 137.415 60.8712C138.084 56.8689 137.69 52.6819 136.132 48.7508C135.964 48.3186 135.713 47.9308 135.371 47.5835C135.042 47.2545 134.656 47.0008 134.228 46.8308C131.543 45.7615 128.722 45.2195 125.842 45.2195C121.503 45.2195 117.353 46.4393 113.77 48.7071C112.461 44.9151 110.302 41.3553 107.286 38.3322C106.403 37.4473 105.228 36.9597 103.977 36.9597C102.727 36.9597 101.552 37.4473 100.667 38.333L87.3338 51.6971C84.8664 49.4962 81.6193 48.1805 78.0951 48.1805C77.2953 48.1805 76.4879 48.2507 75.6952 48.3887C72.8227 48.8888 70.1793 50.2948 68.1528 52.354C65.5542 51.1 62.5774 50.6723 59.7167 51.1702C59.0873 51.2796 58.4767 51.4338 57.8841 51.6218V41.3237C57.8841 34.2319 52.1842 28.452 45.1335 28.3301V22.4896C47.2918 22.1162 48.9398 20.2351 48.9398 17.9718V4.73875C48.9398 2.20811 46.881 0.148926 44.3499 0.148926H21.9549C19.4239 0.148926 17.3651 2.20811 17.3651 4.73875V17.9718C17.3651 20.2351 19.013 22.1162 21.1713 22.4896V28.3294C14.1206 28.4509 8.42115 34.2308 8.42115 41.323V121.699C2.92291 126.664 -0.5 133.592 -0.5 141.254C-0.5 156.326 12.7279 168.587 28.9876 168.587L139.212 168.555C142.974 168.554 146.512 166.9 148.919 164.019C151.263 161.215 152.259 157.572 151.685 153.979L173.701 157.936C174.006 157.99 174.318 158.018 174.627 158.018C175.725 158.018 176.777 157.681 177.668 157.045C178.813 156.226 179.588 154.96 179.795 153.571L180.391 149.57C180.477 148.997 180.468 148.419 180.363 147.854C179.984 145.808 178.426 144.184 176.394 143.719L168.634 141.939L183.219 139.259C184.594 139.007 185.788 138.234 186.579 137.085C187.37 135.938 187.665 134.552 187.411 133.182ZM155.929 79.8643C157.587 79.8643 159.217 80.1268 160.784 80.6442C162.184 84.9087 161.66 89.5084 159.467 93.3081H152.049L154.416 90.9353C155.49 89.8587 155.488 88.115 154.411 87.0406C153.334 85.9662 151.59 85.968 150.517 87.045L149.264 88.3004C148.677 86.3671 147.652 84.6362 146.304 83.2163C149.038 81.0459 152.393 79.8643 155.929 79.8643ZM140.398 66.0669C145.372 66.0669 149.418 70.125 149.418 75.1133C149.418 75.2058 149.414 75.2972 149.411 75.389C146.508 76.3331 143.832 77.9101 141.55 80.0519C141.187 79.9142 140.819 79.7864 140.441 79.6818C139.635 75.3299 136.702 71.8416 132.828 70.2124C134.436 67.7214 137.226 66.0669 140.398 66.0669ZM125.841 50.7266C127.712 50.7266 129.55 51.0292 131.321 51.6277C132.745 55.8606 132.454 60.4075 130.64 64.3459C129.149 65.7041 127.939 67.3675 127.112 69.2372C126.621 69.2658 126.129 69.3202 125.643 69.4046C123.485 69.7803 121.473 70.7166 119.789 72.0744C119.215 71.0243 118.512 70.0553 117.706 69.1828L124.021 62.8533C125.096 61.7767 125.093 60.0329 124.016 58.9589C122.94 57.8845 121.196 57.8864 120.122 58.9633L113.219 65.8815C111.906 65.2606 110.486 64.8288 108.995 64.6268C109.639 61.3405 111.234 58.244 113.7 55.7714C116.946 52.5181 121.258 50.7266 125.841 50.7266ZM104.739 93.3081H102.352C101.95 92.2851 100.956 91.5599 99.7903 91.5599C98.6244 91.5599 97.6305 92.2854 97.2284 93.3081H94.4202C95.0723 92.2462 94.9405 90.8391 94.0199 89.9204C92.9433 88.846 91.1996 88.8479 90.1252 89.9244L87.5296 92.5256C87.2964 92.7591 87.1172 93.0253 86.9854 93.3081H81.3803C79.2811 90.0867 78 86.2845 77.8483 82.1941H121.538C121.387 86.2845 120.106 90.0867 118.006 93.3081H112.174C112.042 93.0253 111.862 92.7588 111.629 92.5252L109.034 89.9241C107.959 88.8479 106.216 88.8449 105.14 89.9197C104.219 90.8384 104.087 92.2458 104.739 93.3081ZM98.3344 76.6863C99.3724 72.8393 102.882 70.0006 107.04 70.0006C111.199 70.0006 114.709 72.8396 115.747 76.6863H98.3344ZM103.966 42.824C106.585 45.655 108.317 49.0163 109.167 52.5493C107.761 54.0772 106.593 55.7655 105.671 57.5621C105.253 57.3058 104.763 57.1557 104.237 57.1557H100.567C99.0463 57.1557 97.8133 58.3887 97.8133 59.9096C97.8133 61.4304 99.0463 62.6635 100.567 62.6635H103.786C103.605 63.4239 103.465 64.1935 103.363 64.969C102.269 65.2562 101.225 65.6652 100.247 66.1859C98.4119 63.0182 95.3723 60.6575 91.7709 59.7105C91.7698 59.7028 91.7684 59.6951 91.7669 59.6874C91.551 58.4412 91.1742 57.2588 90.6606 56.1599L103.966 42.824ZM54.1836 67.6737C54.022 67.2221 53.8997 66.7587 53.8193 66.2938C53.0295 61.7403 56.0992 57.3899 60.6607 56.5957C61.1417 56.512 61.6305 56.4694 62.1129 56.4694C63.9272 56.4694 65.6611 57.0481 67.1265 58.1427C67.7327 58.5958 68.4994 58.779 69.2455 58.6497C69.9916 58.5201 70.6515 58.0894 71.0701 57.4582C72.3629 55.5081 74.341 54.2141 76.6395 53.8139C77.1217 53.7298 77.6115 53.6876 78.0951 53.6876C82.1752 53.6876 85.643 56.6067 86.3399 60.6292C86.4199 61.0901 86.461 61.5703 86.4618 62.0569C86.4643 63.4823 87.5545 64.6705 88.9748 64.7953C92.0537 65.0659 94.6746 67.0036 95.8896 69.7333C94.263 71.6856 93.1354 74.0694 92.7072 76.6863H77.002C75.0493 76.6863 73.3738 77.8918 72.675 79.5977C69.2198 77.2444 65.1477 75.9765 60.8803 75.9765C58.2068 75.9765 55.5877 76.4799 53.0937 77.4728C52.6707 77.6417 52.2925 77.891 51.9702 78.2134C51.6434 78.5402 51.3926 78.9232 51.2281 79.3432C50.5943 80.9416 50.1717 82.5848 49.9433 84.2382C48.9563 83.1146 48.2608 81.7175 47.9891 80.1496C47.3414 76.4131 49.2974 72.6928 52.7442 71.1021C54.0396 70.5043 54.6642 69.0165 54.1836 67.6737ZM62.3931 92.555L63.1444 93.3081H56.5302C55.0453 89.8631 54.8199 85.9419 56.0254 82.2642C57.5947 81.7461 59.2239 81.4839 60.8803 81.4839C65.0299 81.4839 68.9334 83.1058 71.8713 86.0503C72.262 86.4421 72.6258 86.8526 72.9677 87.2767C73.4344 89.3895 74.1515 91.4079 75.0753 93.3077H70.925L66.2922 88.6643C65.2175 87.588 63.4737 87.5851 62.3979 88.6599C61.3209 89.7346 61.3187 91.4784 62.3931 92.555ZM50.6652 93.3081H40.8477C41.2854 90.6405 42.89 88.3665 45.1174 87.0255C46.4359 88.792 48.1569 90.2204 50.1397 91.1879C50.28 91.9025 50.4522 92.6108 50.6652 93.3081ZM22.8729 5.65672H43.432V17.0538H22.8729V5.65672ZM39.6257 22.5616V28.3238H26.6795V22.5616H39.6257ZM13.9293 52.4913H31.8124C33.3336 52.4913 34.5663 51.2583 34.5663 49.7374C34.5663 48.2165 33.3336 46.9835 31.8124 46.9835H13.9293V41.323C13.9293 37.1921 17.2795 33.8316 21.3975 33.8316H44.9077C49.0261 33.8316 52.3763 37.1921 52.3763 41.323V46.9835H47.2342C45.7129 46.9835 44.4803 48.2165 44.4803 49.7374C44.4803 51.2583 45.7129 52.4913 47.2342 52.4913H52.3763V54.9357C49.221 58.0292 47.5823 62.5658 48.3916 67.2323C48.393 67.2415 48.3949 67.2511 48.3963 67.2606C43.9783 70.2917 41.6243 75.6806 42.5617 81.0903C42.6165 81.4061 42.6851 81.7167 42.76 82.0241C41.3842 82.7827 40.1486 83.7623 39.0896 84.9087H13.9293V52.4913ZM13.9289 90.4161H35.8918C35.5995 91.3444 35.3932 92.3104 35.2926 93.3081H34.8284C32.2938 93.3081 30.2313 95.372 30.2313 97.9089C30.2313 102.282 30.6377 106.574 31.4254 110.774C30.6341 110.711 29.8226 110.677 28.9972 110.677C25.6668 110.677 22.4936 111.205 20.0632 112.165C16.3454 113.633 15.3176 115.717 15.0933 117.16C14.6993 117.356 14.3123 117.563 13.9289 117.775V90.4161ZM48.801 124.247C49.7927 125.04 50.399 125.715 50.7504 126.201C50.7173 126.202 50.6828 126.202 50.6479 126.202C49.0892 126.202 46.2887 125.574 43.1041 123.811C41.9184 123.154 40.8261 122.412 39.9448 121.665C38.9174 120.795 37.4109 120.796 36.3842 121.666C35.503 122.413 34.4109 123.155 33.2264 123.81C30.0411 125.574 27.2405 126.202 25.6822 126.202C25.6466 126.202 25.6124 126.202 25.579 126.201C25.9301 125.715 26.5363 125.04 27.5284 124.246C28.3953 123.552 28.7607 122.405 28.4548 121.338C28.1486 120.27 27.2314 119.49 26.128 119.361C23.4405 119.046 21.7412 118.362 20.9455 117.864C21.9424 117.243 24.4628 116.184 28.9983 116.184C32.7546 116.184 35.5 116.974 36.8168 117.714C37.6543 118.184 38.6754 118.184 39.513 117.714C40.8305 116.975 43.5763 116.185 47.3326 116.185C51.8684 116.185 54.3884 117.244 55.385 117.864C54.5897 118.363 52.89 119.046 50.2018 119.361C49.0984 119.491 48.1808 120.27 47.8749 121.338C47.568 122.406 47.9333 123.553 48.801 124.247ZM43.2921 157.766L43.3868 158.276C43.7143 160.045 44.405 161.668 45.37 163.08H28.9876C15.7652 163.08 5.00779 153.289 5.00779 141.254C5.00779 133.03 10.0338 125.856 17.4348 122.137C18.2849 122.771 19.3446 123.318 20.6018 123.76C20.1032 124.611 19.7558 125.527 19.6739 126.482C19.5653 127.752 19.9537 128.957 20.7689 129.878C21.8458 131.094 23.4989 131.71 25.6822 131.71C28.5918 131.71 32.4094 130.558 35.894 128.629C36.6963 128.185 37.4549 127.716 38.1651 127.227C38.8748 127.716 39.6334 128.185 40.4361 128.63C43.9207 130.558 47.7383 131.71 50.6479 131.71H50.6483C52.8308 131.71 54.4839 131.094 55.5605 129.878C56.376 128.958 56.7649 127.752 56.6558 126.482C56.5739 125.527 56.2266 124.611 55.7279 123.76C56.9852 123.318 58.0452 122.771 58.8953 122.137C64.7648 125.087 69.1383 130.209 70.6977 136.306L51.2204 143.705C45.5191 145.871 42.1846 151.784 43.2921 157.766ZM144.692 160.488C143.334 162.114 141.336 163.047 139.21 163.047L136.319 163.048L134.513 153.298C134.236 151.802 132.8 150.813 131.304 151.091C129.808 151.368 128.82 152.805 129.097 154.301L130.718 163.05L121.242 163.054L120.021 156.46C119.744 154.965 118.308 153.977 116.812 154.254C115.317 154.531 114.329 155.968 114.605 157.463L115.641 163.056L93.6006 163.065L91.9417 154.11C91.6641 152.614 90.2284 151.626 88.7321 151.904C87.2365 152.18 86.2488 153.618 86.5257 155.113L87.9992 163.067L55.8175 163.079C55.8168 163.079 55.8161 163.079 55.8153 163.079C52.3741 163.079 49.4248 160.637 48.8013 157.272L48.7066 156.761C48.0842 153.4 49.9635 150.074 53.1753 148.853L63.9988 144.742L64.8051 149.094C65.0508 150.419 66.2082 151.346 67.5095 151.346C67.6762 151.346 67.8451 151.331 68.0147 151.3C69.5099 151.022 70.4976 149.586 70.2204 148.09L69.2316 142.754L85.2978 136.65C86.7195 136.11 87.4345 134.52 86.8943 133.098C86.3542 131.676 84.7617 130.961 83.3422 131.501L75.8659 134.341C73.7685 126.916 68.3804 120.713 61.2354 117.159C61.011 115.717 59.9833 113.633 56.2659 112.165C53.8355 111.205 50.6622 110.676 47.3319 110.676C45.0399 110.676 42.8511 110.929 40.919 111.39V109.727C40.919 108.206 39.6863 106.973 38.1651 106.973C37.5221 106.973 36.9324 107.195 36.4635 107.564C36.0291 104.692 35.7861 101.774 35.7457 98.8151H125.445C126.966 98.8151 128.199 97.5821 128.199 96.0612C128.199 94.5403 126.966 93.3073 125.445 93.3073H124.318C126.072 89.6957 127.062 85.6464 127.062 81.3668C127.062 78.9371 125.203 76.9356 122.834 76.7083C123.866 75.7356 125.153 75.0798 126.588 74.8298C127.008 74.7567 127.435 74.7196 127.856 74.7196C131.412 74.7196 134.433 77.2631 135.04 80.7668C135.11 81.1726 135.146 81.5912 135.147 82.0116C135.148 83.4377 136.239 84.6267 137.66 84.7515C140.951 85.0405 143.643 87.5157 144.208 90.7704C144.357 91.6359 144.339 92.49 144.189 93.3073H141.234C139.713 93.3073 138.48 94.5403 138.48 96.0612C138.48 97.5821 139.713 98.8151 141.234 98.8151H162.638C162.57 103.867 161.919 108.801 160.705 113.589L145.781 122.399C144.868 119.223 142.746 116.528 139.823 114.892C136.544 113.057 132.648 112.77 129.134 114.105L98.3968 125.782C96.9747 126.322 96.2601 127.913 96.8003 129.335C97.3404 130.757 98.9325 131.47 100.352 130.931L104.402 129.393L105.659 136.181C105.905 137.507 107.062 138.434 108.364 138.434C108.53 138.434 108.699 138.419 108.869 138.387C110.364 138.111 111.352 136.674 111.075 135.178L109.635 127.405L131.09 119.255C133.078 118.5 135.28 118.662 137.133 119.699C138.983 120.734 140.264 122.518 140.649 124.594L146.221 154.672C146.605 156.746 146.048 158.866 144.692 160.488ZM154.518 138.932C153.233 139.168 152.291 140.274 152.262 141.58C152.234 142.886 153.127 144.033 154.4 144.325L174.903 149.027L174.391 152.464L150.622 148.192L146.906 128.132L167.61 115.91L169.334 118.964L151.872 130.637C150.786 131.363 150.359 132.752 150.85 133.962C151.341 135.172 152.615 135.872 153.9 135.635L181.331 130.597L181.942 133.894L154.518 138.932Z"/>
</mask>
<path d="M187.411 133.182L186.694 129.311C186.237 126.838 184.077 125.043 181.559 125.043C181.243 125.043 180.924 125.072 180.61 125.13L166.011 127.811L172.623 123.392C174.355 122.234 175.231 120.162 174.853 118.107C174.748 117.544 174.552 117.004 174.267 116.498L172.266 112.955C171.58 111.738 170.411 110.833 169.062 110.475C168.401 110.299 167.71 110.26 167.036 110.347C167.772 106.284 168.152 102.134 168.152 97.9096C168.152 96.0352 167.024 94.4221 165.414 93.7057C167.518 88.7017 167.662 82.9729 165.582 77.7265C165.413 77.2999 165.163 76.9191 164.839 76.5945C164.517 76.2728 164.141 76.0243 163.714 75.8528C161.222 74.8603 158.602 74.3572 155.929 74.3572C155.587 74.3572 155.247 74.366 154.907 74.3822C154.526 66.6959 148.164 60.5598 140.398 60.5598C139.376 60.5598 138.379 60.6685 137.415 60.8712C138.084 56.8689 137.69 52.6819 136.132 48.7508C135.964 48.3186 135.713 47.9308 135.371 47.5835C135.042 47.2545 134.656 47.0008 134.228 46.8308C131.543 45.7615 128.722 45.2195 125.842 45.2195C121.503 45.2195 117.353 46.4393 113.77 48.7071C112.461 44.9151 110.302 41.3553 107.286 38.3322C106.403 37.4473 105.228 36.9597 103.977 36.9597C102.727 36.9597 101.552 37.4473 100.667 38.333L87.3338 51.6971C84.8664 49.4962 81.6193 48.1805 78.0951 48.1805C77.2953 48.1805 76.4879 48.2507 75.6952 48.3887C72.8227 48.8888 70.1793 50.2948 68.1528 52.354C65.5542 51.1 62.5774 50.6723 59.7167 51.1702C59.0873 51.2796 58.4767 51.4338 57.8841 51.6218V41.3237C57.8841 34.2319 52.1842 28.452 45.1335 28.3301V22.4896C47.2918 22.1162 48.9398 20.2351 48.9398 17.9718V4.73875C48.9398 2.20811 46.881 0.148926 44.3499 0.148926H21.9549C19.4239 0.148926 17.3651 2.20811 17.3651 4.73875V17.9718C17.3651 20.2351 19.013 22.1162 21.1713 22.4896V28.3294C14.1206 28.4509 8.42115 34.2308 8.42115 41.323V121.699C2.92291 126.664 -0.5 133.592 -0.5 141.254C-0.5 156.326 12.7279 168.587 28.9876 168.587L139.212 168.555C142.974 168.554 146.512 166.9 148.919 164.019C151.263 161.215 152.259 157.572 151.685 153.979L173.701 157.936C174.006 157.99 174.318 158.018 174.627 158.018C175.725 158.018 176.777 157.681 177.668 157.045C178.813 156.226 179.588 154.96 179.795 153.571L180.391 149.57C180.477 148.997 180.468 148.419 180.363 147.854C179.984 145.808 178.426 144.184 176.394 143.719L168.634 141.939L183.219 139.259C184.594 139.007 185.788 138.234 186.579 137.085C187.37 135.938 187.665 134.552 187.411 133.182ZM155.929 79.8643C157.587 79.8643 159.217 80.1268 160.784 80.6442C162.184 84.9087 161.66 89.5084 159.467 93.3081H152.049L154.416 90.9353C155.49 89.8587 155.488 88.115 154.411 87.0406C153.334 85.9662 151.59 85.968 150.517 87.045L149.264 88.3004C148.677 86.3671 147.652 84.6362 146.304 83.2163C149.038 81.0459 152.393 79.8643 155.929 79.8643ZM140.398 66.0669C145.372 66.0669 149.418 70.125 149.418 75.1133C149.418 75.2058 149.414 75.2972 149.411 75.389C146.508 76.3331 143.832 77.9101 141.55 80.0519C141.187 79.9142 140.819 79.7864 140.441 79.6818C139.635 75.3299 136.702 71.8416 132.828 70.2124C134.436 67.7214 137.226 66.0669 140.398 66.0669ZM125.841 50.7266C127.712 50.7266 129.55 51.0292 131.321 51.6277C132.745 55.8606 132.454 60.4075 130.64 64.3459C129.149 65.7041 127.939 67.3675 127.112 69.2372C126.621 69.2658 126.129 69.3202 125.643 69.4046C123.485 69.7803 121.473 70.7166 119.789 72.0744C119.215 71.0243 118.512 70.0553 117.706 69.1828L124.021 62.8533C125.096 61.7767 125.093 60.0329 124.016 58.9589C122.94 57.8845 121.196 57.8864 120.122 58.9633L113.219 65.8815C111.906 65.2606 110.486 64.8288 108.995 64.6268C109.639 61.3405 111.234 58.244 113.7 55.7714C116.946 52.5181 121.258 50.7266 125.841 50.7266ZM104.739 93.3081H102.352C101.95 92.2851 100.956 91.5599 99.7903 91.5599C98.6244 91.5599 97.6305 92.2854 97.2284 93.3081H94.4202C95.0723 92.2462 94.9405 90.8391 94.0199 89.9204C92.9433 88.846 91.1996 88.8479 90.1252 89.9244L87.5296 92.5256C87.2964 92.7591 87.1172 93.0253 86.9854 93.3081H81.3803C79.2811 90.0867 78 86.2845 77.8483 82.1941H121.538C121.387 86.2845 120.106 90.0867 118.006 93.3081H112.174C112.042 93.0253 111.862 92.7588 111.629 92.5252L109.034 89.9241C107.959 88.8479 106.216 88.8449 105.14 89.9197C104.219 90.8384 104.087 92.2458 104.739 93.3081ZM98.3344 76.6863C99.3724 72.8393 102.882 70.0006 107.04 70.0006C111.199 70.0006 114.709 72.8396 115.747 76.6863H98.3344ZM103.966 42.824C106.585 45.655 108.317 49.0163 109.167 52.5493C107.761 54.0772 106.593 55.7655 105.671 57.5621C105.253 57.3058 104.763 57.1557 104.237 57.1557H100.567C99.0463 57.1557 97.8133 58.3887 97.8133 59.9096C97.8133 61.4304 99.0463 62.6635 100.567 62.6635H103.786C103.605 63.4239 103.465 64.1935 103.363 64.969C102.269 65.2562 101.225 65.6652 100.247 66.1859C98.4119 63.0182 95.3723 60.6575 91.7709 59.7105C91.7698 59.7028 91.7684 59.6951 91.7669 59.6874C91.551 58.4412 91.1742 57.2588 90.6606 56.1599L103.966 42.824ZM54.1836 67.6737C54.022 67.2221 53.8997 66.7587 53.8193 66.2938C53.0295 61.7403 56.0992 57.3899 60.6607 56.5957C61.1417 56.512 61.6305 56.4694 62.1129 56.4694C63.9272 56.4694 65.6611 57.0481 67.1265 58.1427C67.7327 58.5958 68.4994 58.779 69.2455 58.6497C69.9916 58.5201 70.6515 58.0894 71.0701 57.4582C72.3629 55.5081 74.341 54.2141 76.6395 53.8139C77.1217 53.7298 77.6115 53.6876 78.0951 53.6876C82.1752 53.6876 85.643 56.6067 86.3399 60.6292C86.4199 61.0901 86.461 61.5703 86.4618 62.0569C86.4643 63.4823 87.5545 64.6705 88.9748 64.7953C92.0537 65.0659 94.6746 67.0036 95.8896 69.7333C94.263 71.6856 93.1354 74.0694 92.7072 76.6863H77.002C75.0493 76.6863 73.3738 77.8918 72.675 79.5977C69.2198 77.2444 65.1477 75.9765 60.8803 75.9765C58.2068 75.9765 55.5877 76.4799 53.0937 77.4728C52.6707 77.6417 52.2925 77.891 51.9702 78.2134C51.6434 78.5402 51.3926 78.9232 51.2281 79.3432C50.5943 80.9416 50.1717 82.5848 49.9433 84.2382C48.9563 83.1146 48.2608 81.7175 47.9891 80.1496C47.3414 76.4131 49.2974 72.6928 52.7442 71.1021C54.0396 70.5043 54.6642 69.0165 54.1836 67.6737ZM62.3931 92.555L63.1444 93.3081H56.5302C55.0453 89.8631 54.8199 85.9419 56.0254 82.2642C57.5947 81.7461 59.2239 81.4839 60.8803 81.4839C65.0299 81.4839 68.9334 83.1058 71.8713 86.0503C72.262 86.4421 72.6258 86.8526 72.9677 87.2767C73.4344 89.3895 74.1515 91.4079 75.0753 93.3077H70.925L66.2922 88.6643C65.2175 87.588 63.4737 87.5851 62.3979 88.6599C61.3209 89.7346 61.3187 91.4784 62.3931 92.555ZM50.6652 93.3081H40.8477C41.2854 90.6405 42.89 88.3665 45.1174 87.0255C46.4359 88.792 48.1569 90.2204 50.1397 91.1879C50.28 91.9025 50.4522 92.6108 50.6652 93.3081ZM22.8729 5.65672H43.432V17.0538H22.8729V5.65672ZM39.6257 22.5616V28.3238H26.6795V22.5616H39.6257ZM13.9293 52.4913H31.8124C33.3336 52.4913 34.5663 51.2583 34.5663 49.7374C34.5663 48.2165 33.3336 46.9835 31.8124 46.9835H13.9293V41.323C13.9293 37.1921 17.2795 33.8316 21.3975 33.8316H44.9077C49.0261 33.8316 52.3763 37.1921 52.3763 41.323V46.9835H47.2342C45.7129 46.9835 44.4803 48.2165 44.4803 49.7374C44.4803 51.2583 45.7129 52.4913 47.2342 52.4913H52.3763V54.9357C49.221 58.0292 47.5823 62.5658 48.3916 67.2323C48.393 67.2415 48.3949 67.2511 48.3963 67.2606C43.9783 70.2917 41.6243 75.6806 42.5617 81.0903C42.6165 81.4061 42.6851 81.7167 42.76 82.0241C41.3842 82.7827 40.1486 83.7623 39.0896 84.9087H13.9293V52.4913ZM13.9289 90.4161H35.8918C35.5995 91.3444 35.3932 92.3104 35.2926 93.3081H34.8284C32.2938 93.3081 30.2313 95.372 30.2313 97.9089C30.2313 102.282 30.6377 106.574 31.4254 110.774C30.6341 110.711 29.8226 110.677 28.9972 110.677C25.6668 110.677 22.4936 111.205 20.0632 112.165C16.3454 113.633 15.3176 115.717 15.0933 117.16C14.6993 117.356 14.3123 117.563 13.9289 117.775V90.4161ZM48.801 124.247C49.7927 125.04 50.399 125.715 50.7504 126.201C50.7173 126.202 50.6828 126.202 50.6479 126.202C49.0892 126.202 46.2887 125.574 43.1041 123.811C41.9184 123.154 40.8261 122.412 39.9448 121.665C38.9174 120.795 37.4109 120.796 36.3842 121.666C35.503 122.413 34.4109 123.155 33.2264 123.81C30.0411 125.574 27.2405 126.202 25.6822 126.202C25.6466 126.202 25.6124 126.202 25.579 126.201C25.9301 125.715 26.5363 125.04 27.5284 124.246C28.3953 123.552 28.7607 122.405 28.4548 121.338C28.1486 120.27 27.2314 119.49 26.128 119.361C23.4405 119.046 21.7412 118.362 20.9455 117.864C21.9424 117.243 24.4628 116.184 28.9983 116.184C32.7546 116.184 35.5 116.974 36.8168 117.714C37.6543 118.184 38.6754 118.184 39.513 117.714C40.8305 116.975 43.5763 116.185 47.3326 116.185C51.8684 116.185 54.3884 117.244 55.385 117.864C54.5897 118.363 52.89 119.046 50.2018 119.361C49.0984 119.491 48.1808 120.27 47.8749 121.338C47.568 122.406 47.9333 123.553 48.801 124.247ZM43.2921 157.766L43.3868 158.276C43.7143 160.045 44.405 161.668 45.37 163.08H28.9876C15.7652 163.08 5.00779 153.289 5.00779 141.254C5.00779 133.03 10.0338 125.856 17.4348 122.137C18.2849 122.771 19.3446 123.318 20.6018 123.76C20.1032 124.611 19.7558 125.527 19.6739 126.482C19.5653 127.752 19.9537 128.957 20.7689 129.878C21.8458 131.094 23.4989 131.71 25.6822 131.71C28.5918 131.71 32.4094 130.558 35.894 128.629C36.6963 128.185 37.4549 127.716 38.1651 127.227C38.8748 127.716 39.6334 128.185 40.4361 128.63C43.9207 130.558 47.7383 131.71 50.6479 131.71H50.6483C52.8308 131.71 54.4839 131.094 55.5605 129.878C56.376 128.958 56.7649 127.752 56.6558 126.482C56.5739 125.527 56.2266 124.611 55.7279 123.76C56.9852 123.318 58.0452 122.771 58.8953 122.137C64.7648 125.087 69.1383 130.209 70.6977 136.306L51.2204 143.705C45.5191 145.871 42.1846 151.784 43.2921 157.766ZM144.692 160.488C143.334 162.114 141.336 163.047 139.21 163.047L136.319 163.048L134.513 153.298C134.236 151.802 132.8 150.813 131.304 151.091C129.808 151.368 128.82 152.805 129.097 154.301L130.718 163.05L121.242 163.054L120.021 156.46C119.744 154.965 118.308 153.977 116.812 154.254C115.317 154.531 114.329 155.968 114.605 157.463L115.641 163.056L93.6006 163.065L91.9417 154.11C91.6641 152.614 90.2284 151.626 88.7321 151.904C87.2365 152.18 86.2488 153.618 86.5257 155.113L87.9992 163.067L55.8175 163.079C55.8168 163.079 55.8161 163.079 55.8153 163.079C52.3741 163.079 49.4248 160.637 48.8013 157.272L48.7066 156.761C48.0842 153.4 49.9635 150.074 53.1753 148.853L63.9988 144.742L64.8051 149.094C65.0508 150.419 66.2082 151.346 67.5095 151.346C67.6762 151.346 67.8451 151.331 68.0147 151.3C69.5099 151.022 70.4976 149.586 70.2204 148.09L69.2316 142.754L85.2978 136.65C86.7195 136.11 87.4345 134.52 86.8943 133.098C86.3542 131.676 84.7617 130.961 83.3422 131.501L75.8659 134.341C73.7685 126.916 68.3804 120.713 61.2354 117.159C61.011 115.717 59.9833 113.633 56.2659 112.165C53.8355 111.205 50.6622 110.676 47.3319 110.676C45.0399 110.676 42.8511 110.929 40.919 111.39V109.727C40.919 108.206 39.6863 106.973 38.1651 106.973C37.5221 106.973 36.9324 107.195 36.4635 107.564C36.0291 104.692 35.7861 101.774 35.7457 98.8151H125.445C126.966 98.8151 128.199 97.5821 128.199 96.0612C128.199 94.5403 126.966 93.3073 125.445 93.3073H124.318C126.072 89.6957 127.062 85.6464 127.062 81.3668C127.062 78.9371 125.203 76.9356 122.834 76.7083C123.866 75.7356 125.153 75.0798 126.588 74.8298C127.008 74.7567 127.435 74.7196 127.856 74.7196C131.412 74.7196 134.433 77.2631 135.04 80.7668C135.11 81.1726 135.146 81.5912 135.147 82.0116C135.148 83.4377 136.239 84.6267 137.66 84.7515C140.951 85.0405 143.643 87.5157 144.208 90.7704C144.357 91.6359 144.339 92.49 144.189 93.3073H141.234C139.713 93.3073 138.48 94.5403 138.48 96.0612C138.48 97.5821 139.713 98.8151 141.234 98.8151H162.638C162.57 103.867 161.919 108.801 160.705 113.589L145.781 122.399C144.868 119.223 142.746 116.528 139.823 114.892C136.544 113.057 132.648 112.77 129.134 114.105L98.3968 125.782C96.9747 126.322 96.2601 127.913 96.8003 129.335C97.3404 130.757 98.9325 131.47 100.352 130.931L104.402 129.393L105.659 136.181C105.905 137.507 107.062 138.434 108.364 138.434C108.53 138.434 108.699 138.419 108.869 138.387C110.364 138.111 111.352 136.674 111.075 135.178L109.635 127.405L131.09 119.255C133.078 118.5 135.28 118.662 137.133 119.699C138.983 120.734 140.264 122.518 140.649 124.594L146.221 154.672C146.605 156.746 146.048 158.866 144.692 160.488ZM154.518 138.932C153.233 139.168 152.291 140.274 152.262 141.58C152.234 142.886 153.127 144.033 154.4 144.325L174.903 149.027L174.391 152.464L150.622 148.192L146.906 128.132L167.61 115.91L169.334 118.964L151.872 130.637C150.786 131.363 150.359 132.752 150.85 133.962C151.341 135.172 152.615 135.872 153.9 135.635L181.331 130.597L181.942 133.894L154.518 138.932Z" stroke="#00E0FF" stroke-width="4" mask="url(#path-1-inside-1_3169_486)"/>
</svg>
