<svg width="190" height="190" viewBox="0 0 190 190" fill="none" xmlns="http://www.w3.org/2000/svg">
<g clip-path="url(#clip0_856_1978)">
<mask id="path-1-inside-1_856_1978" fill="white">
<path d="M186.911 143.182L186.194 139.311C185.737 136.838 183.577 135.043 181.059 135.043C180.743 135.043 180.424 135.072 180.11 135.13L165.511 137.811L172.123 133.392C173.855 132.234 174.731 130.162 174.353 128.107C174.248 127.544 174.052 127.004 173.767 126.498L171.766 122.955C171.08 121.738 169.911 120.833 168.562 120.475C167.901 120.299 167.21 120.26 166.536 120.347C167.272 116.284 167.652 112.134 167.652 107.91C167.652 106.035 166.524 104.422 164.914 103.706C167.018 98.7017 167.162 92.9729 165.082 87.7265C164.913 87.2999 164.663 86.9191 164.339 86.5945C164.017 86.2728 163.641 86.0243 163.214 85.8528C160.722 84.8603 158.102 84.3572 155.429 84.3572C155.087 84.3572 154.747 84.366 154.407 84.3822C154.026 76.6959 147.664 70.5598 139.898 70.5598C138.876 70.5598 137.879 70.6685 136.915 70.8712C137.584 66.8689 137.19 62.6819 135.632 58.7508C135.464 58.3186 135.213 57.9308 134.871 57.5835C134.542 57.2545 134.156 57.0008 133.728 56.8308C131.043 55.7615 128.222 55.2195 125.342 55.2195C121.003 55.2195 116.853 56.4393 113.27 58.7071C111.961 54.9151 109.802 51.3553 106.786 48.3322C105.903 47.4473 104.728 46.9597 103.477 46.9597C102.227 46.9597 101.052 47.4473 100.167 48.333L86.8338 61.6971C84.3664 59.4962 81.1193 58.1805 77.5951 58.1805C76.7953 58.1805 75.9879 58.2507 75.1952 58.3887C72.3227 58.8888 69.6793 60.2948 67.6528 62.354C65.0542 61.1 62.0774 60.6723 59.2167 61.1702C58.5873 61.2796 57.9767 61.4338 57.3841 61.6218V51.3237C57.3841 44.2319 51.6842 38.452 44.6335 38.3301V32.4896C46.7918 32.1162 48.4398 30.2351 48.4398 27.9718V14.7388C48.4398 12.2081 46.381 10.1489 43.8499 10.1489H21.4549C18.9239 10.1489 16.8651 12.2081 16.8651 14.7388V27.9718C16.8651 30.2351 18.513 32.1162 20.6713 32.4896V38.3294C13.6206 38.4509 7.92115 44.2308 7.92115 51.323V131.699C2.42291 136.664 -1 143.592 -1 151.254C-1 166.326 12.2279 178.587 28.4876 178.587L138.712 178.555C142.474 178.554 146.012 176.9 148.419 174.019C150.763 171.215 151.759 167.572 151.185 163.979L173.201 167.936C173.506 167.99 173.818 168.018 174.127 168.018C175.225 168.018 176.277 167.681 177.168 167.045C178.313 166.226 179.088 164.96 179.295 163.571L179.891 159.57C179.977 158.997 179.968 158.419 179.863 157.854C179.484 155.808 177.926 154.184 175.894 153.719L168.134 151.939L182.719 149.259C184.094 149.007 185.288 148.234 186.079 147.085C186.87 145.938 187.165 144.552 186.911 143.182ZM155.429 89.8643C157.087 89.8643 158.717 90.1268 160.284 90.6442C161.684 94.9087 161.16 99.5084 158.967 103.308H151.549L153.916 100.935C154.99 99.8587 154.988 98.115 153.911 97.0406C152.834 95.9662 151.09 95.968 150.017 97.045L148.764 98.3004C148.177 96.3671 147.152 94.6362 145.804 93.2163C148.538 91.0459 151.893 89.8643 155.429 89.8643ZM139.898 76.0669C144.872 76.0669 148.918 80.125 148.918 85.1133C148.918 85.2058 148.914 85.2972 148.911 85.389C146.008 86.3331 143.332 87.9101 141.05 90.0519C140.687 89.9142 140.319 89.7864 139.941 89.6818C139.135 85.3299 136.202 81.8416 132.328 80.2124C133.936 77.7214 136.726 76.0669 139.898 76.0669ZM125.341 60.7266C127.212 60.7266 129.05 61.0292 130.821 61.6277C132.245 65.8606 131.954 70.4075 130.14 74.3459C128.649 75.7041 127.439 77.3675 126.612 79.2372C126.121 79.2658 125.629 79.3202 125.143 79.4046C122.985 79.7803 120.973 80.7166 119.289 82.0744C118.715 81.0243 118.012 80.0553 117.206 79.1828L123.521 72.8533C124.596 71.7767 124.593 70.0329 123.516 68.9589C122.44 67.8845 120.696 67.8864 119.622 68.9633L112.719 75.8815C111.406 75.2606 109.986 74.8288 108.495 74.6268C109.139 71.3405 110.734 68.244 113.2 65.7714C116.446 62.5181 120.758 60.7266 125.341 60.7266ZM104.239 103.308H101.852C101.45 102.285 100.456 101.56 99.2903 101.56C98.1244 101.56 97.1305 102.285 96.7284 103.308H93.9202C94.5723 102.246 94.4405 100.839 93.5199 99.9204C92.4433 98.846 90.6996 98.8479 89.6252 99.9244L87.0296 102.526C86.7964 102.759 86.6172 103.025 86.4854 103.308H80.8803C78.7811 100.087 77.5 96.2845 77.3483 92.1941H121.038C120.887 96.2845 119.606 100.087 117.506 103.308H111.674C111.542 103.025 111.362 102.759 111.129 102.525L108.534 99.9241C107.459 98.8479 105.716 98.8449 104.64 99.9197C103.719 100.838 103.587 102.246 104.239 103.308ZM97.8344 86.6863C98.8724 82.8393 102.382 80.0006 106.54 80.0006C110.699 80.0006 114.209 82.8396 115.247 86.6863H97.8344ZM103.466 52.824C106.085 55.655 107.817 59.0163 108.667 62.5493C107.261 64.0772 106.093 65.7655 105.171 67.5621C104.753 67.3058 104.263 67.1557 103.737 67.1557H100.067C98.5463 67.1557 97.3133 68.3887 97.3133 69.9096C97.3133 71.4304 98.5463 72.6635 100.067 72.6635H103.286C103.105 73.4239 102.965 74.1935 102.863 74.969C101.769 75.2562 100.725 75.6652 99.7474 76.1859C97.9119 73.0182 94.8723 70.6575 91.2709 69.7105C91.2698 69.7028 91.2684 69.6951 91.2669 69.6874C91.051 68.4412 90.6742 67.2588 90.1606 66.1599L103.466 52.824ZM53.6836 77.6737C53.522 77.2221 53.3997 76.7587 53.3193 76.2938C52.5295 71.7403 55.5992 67.3899 60.1607 66.5957C60.6417 66.512 61.1305 66.4694 61.6129 66.4694C63.4272 66.4694 65.1611 67.0481 66.6265 68.1427C67.2327 68.5958 67.9994 68.779 68.7455 68.6497C69.4916 68.5201 70.1515 68.0894 70.5701 67.4582C71.8629 65.5081 73.841 64.2141 76.1395 63.8139C76.6217 63.7298 77.1115 63.6876 77.5951 63.6876C81.6752 63.6876 85.143 66.6067 85.8399 70.6292C85.9199 71.0901 85.961 71.5703 85.9618 72.0569C85.9643 73.4823 87.0545 74.6705 88.4748 74.7953C91.5537 75.0659 94.1746 77.0036 95.3896 79.7333C93.763 81.6856 92.6354 84.0694 92.2072 86.6863H76.502C74.5493 86.6863 72.8738 87.8918 72.175 89.5977C68.7198 87.2444 64.6477 85.9765 60.3803 85.9765C57.7068 85.9765 55.0877 86.4799 52.5937 87.4728C52.1707 87.6417 51.7925 87.891 51.4702 88.2134C51.1434 88.5402 50.8926 88.9232 50.7281 89.3432C50.0943 90.9416 49.6717 92.5848 49.4433 94.2382C48.4563 93.1146 47.7608 91.7175 47.4891 90.1496C46.8414 86.4131 48.7974 82.6928 52.2442 81.1021C53.5396 80.5043 54.1642 79.0165 53.6836 77.6737ZM61.8931 102.555L62.6444 103.308H56.0302C54.5453 99.8631 54.3199 95.9419 55.5254 92.2642C57.0947 91.7461 58.7239 91.4839 60.3803 91.4839C64.5299 91.4839 68.4334 93.1058 71.3713 96.0503C71.762 96.4421 72.1258 96.8526 72.4677 97.2767C72.9344 99.3895 73.6515 101.408 74.5753 103.308H70.425L65.7922 98.6643C64.7175 97.588 62.9737 97.5851 61.8979 98.6599C60.8209 99.7346 60.8187 101.478 61.8931 102.555ZM50.1652 103.308H40.3477C40.7854 100.64 42.39 98.3665 44.6174 97.0255C45.9359 98.792 47.6569 100.22 49.6397 101.188C49.78 101.902 49.9522 102.611 50.1652 103.308ZM22.3729 15.6567H42.932V27.0538H22.3729V15.6567ZM39.1257 32.5616V38.3238H26.1795V32.5616H39.1257ZM13.4293 62.4913H31.3124C32.8336 62.4913 34.0663 61.2583 34.0663 59.7374C34.0663 58.2165 32.8336 56.9835 31.3124 56.9835H13.4293V51.323C13.4293 47.1921 16.7795 43.8316 20.8975 43.8316H44.4077C48.5261 43.8316 51.8763 47.1921 51.8763 51.323V56.9835H46.7342C45.2129 56.9835 43.9803 58.2165 43.9803 59.7374C43.9803 61.2583 45.2129 62.4913 46.7342 62.4913H51.8763V64.9357C48.721 68.0292 47.0823 72.5658 47.8916 77.2323C47.893 77.2415 47.8949 77.2511 47.8963 77.2606C43.4783 80.2917 41.1243 85.6806 42.0617 91.0903C42.1165 91.4061 42.1851 91.7167 42.26 92.0241C40.8842 92.7827 39.6486 93.7623 38.5896 94.9087H13.4293V62.4913ZM13.4289 100.416H35.3918C35.0995 101.344 34.8932 102.31 34.7926 103.308H34.3284C31.7938 103.308 29.7313 105.372 29.7313 107.909C29.7313 112.282 30.1377 116.574 30.9254 120.774C30.1341 120.711 29.3226 120.677 28.4972 120.677C25.1668 120.677 21.9936 121.205 19.5632 122.165C15.8454 123.633 14.8176 125.717 14.5933 127.16C14.1993 127.356 13.8123 127.563 13.4289 127.775V100.416ZM48.301 134.247C49.2927 135.04 49.899 135.715 50.2504 136.201C50.2173 136.202 50.1828 136.202 50.1479 136.202C48.5892 136.202 45.7887 135.574 42.6041 133.811C41.4184 133.154 40.3261 132.412 39.4448 131.665C38.4174 130.795 36.9109 130.796 35.8842 131.666C35.003 132.413 33.9109 133.155 32.7264 133.81C29.5411 135.574 26.7405 136.202 25.1822 136.202C25.1466 136.202 25.1124 136.202 25.079 136.201C25.4301 135.715 26.0363 135.04 27.0284 134.246C27.8953 133.552 28.2607 132.405 27.9548 131.338C27.6486 130.27 26.7314 129.49 25.628 129.361C22.9405 129.046 21.2412 128.362 20.4455 127.864C21.4424 127.243 23.9628 126.184 28.4983 126.184C32.2546 126.184 35 126.974 36.3168 127.714C37.1543 128.184 38.1754 128.184 39.013 127.714C40.3305 126.975 43.0763 126.185 46.8326 126.185C51.3684 126.185 53.8884 127.244 54.885 127.864C54.0897 128.363 52.39 129.046 49.7018 129.361C48.5984 129.491 47.6808 130.27 47.3749 131.338C47.068 132.406 47.4333 133.553 48.301 134.247ZM42.7921 167.766L42.8868 168.276C43.2143 170.045 43.905 171.668 44.87 173.08H28.4876C15.2652 173.08 4.50779 163.289 4.50779 151.254C4.50779 143.03 9.53383 135.856 16.9348 132.137C17.7849 132.771 18.8446 133.318 20.1018 133.76C19.6032 134.611 19.2558 135.527 19.1739 136.482C19.0653 137.752 19.4537 138.957 20.2689 139.878C21.3458 141.094 22.9989 141.71 25.1822 141.71C28.0918 141.71 31.9094 140.558 35.394 138.629C36.1963 138.185 36.9549 137.716 37.6651 137.227C38.3748 137.716 39.1334 138.185 39.9361 138.63C43.4207 140.558 47.2383 141.71 50.1479 141.71H50.1483C52.3308 141.71 53.9839 141.094 55.0605 139.878C55.876 138.958 56.2649 137.752 56.1558 136.482C56.0739 135.527 55.7266 134.611 55.2279 133.76C56.4852 133.318 57.5452 132.771 58.3953 132.137C64.2648 135.087 68.6383 140.209 70.1977 146.306L50.7204 153.705C45.0191 155.871 41.6846 161.784 42.7921 167.766ZM144.192 170.488C142.834 172.114 140.836 173.047 138.71 173.047L135.819 173.048L134.013 163.298C133.736 161.802 132.3 160.813 130.804 161.091C129.308 161.368 128.32 162.805 128.597 164.301L130.218 173.05L120.742 173.054L119.521 166.46C119.244 164.965 117.808 163.977 116.312 164.254C114.817 164.531 113.829 165.968 114.105 167.463L115.141 173.056L93.1006 173.065L91.4417 164.11C91.1641 162.614 89.7284 161.626 88.2321 161.904C86.7365 162.18 85.7488 163.618 86.0257 165.113L87.4992 173.067L55.3175 173.079C55.3168 173.079 55.3161 173.079 55.3153 173.079C51.8741 173.079 48.9248 170.637 48.3013 167.272L48.2066 166.761C47.5842 163.4 49.4635 160.074 52.6753 158.853L63.4988 154.742L64.3051 159.094C64.5508 160.419 65.7082 161.346 67.0095 161.346C67.1762 161.346 67.3451 161.331 67.5147 161.3C69.0099 161.022 69.9976 159.586 69.7204 158.09L68.7316 152.754L84.7978 146.65C86.2195 146.11 86.9345 144.52 86.3943 143.098C85.8542 141.676 84.2617 140.961 82.8422 141.501L75.3659 144.341C73.2685 136.916 67.8804 130.713 60.7354 127.159C60.511 125.717 59.4833 123.633 55.7659 122.165C53.3355 121.205 50.1622 120.676 46.8319 120.676C44.5399 120.676 42.3511 120.929 40.419 121.39V119.727C40.419 118.206 39.1863 116.973 37.6651 116.973C37.0221 116.973 36.4324 117.195 35.9635 117.564C35.5291 114.692 35.2861 111.774 35.2457 108.815H124.945C126.466 108.815 127.699 107.582 127.699 106.061C127.699 104.54 126.466 103.307 124.945 103.307H123.818C125.572 99.6957 126.562 95.6464 126.562 91.3668C126.562 88.9371 124.703 86.9356 122.334 86.7083C123.366 85.7356 124.653 85.0798 126.088 84.8298C126.508 84.7567 126.935 84.7196 127.356 84.7196C130.912 84.7196 133.933 87.2631 134.54 90.7668C134.61 91.1726 134.646 91.5912 134.647 92.0116C134.648 93.4377 135.739 94.6267 137.16 94.7515C140.451 95.0405 143.143 97.5157 143.708 100.77C143.857 101.636 143.839 102.49 143.689 103.307H140.734C139.213 103.307 137.98 104.54 137.98 106.061C137.98 107.582 139.213 108.815 140.734 108.815H162.138C162.07 113.867 161.419 118.801 160.205 123.589L145.281 132.399C144.368 129.223 142.246 126.528 139.323 124.892C136.044 123.057 132.148 122.77 128.634 124.105L97.8968 135.782C96.4747 136.322 95.7601 137.913 96.3003 139.335C96.8404 140.757 98.4325 141.47 99.8524 140.931L103.902 139.393L105.159 146.181C105.405 147.507 106.562 148.434 107.864 148.434C108.03 148.434 108.199 148.419 108.369 148.387C109.864 148.111 110.852 146.674 110.575 145.178L109.135 137.405L130.59 129.255C132.578 128.5 134.78 128.662 136.633 129.699C138.483 130.734 139.764 132.518 140.149 134.594L145.721 164.672C146.105 166.746 145.548 168.866 144.192 170.488ZM154.018 148.932C152.733 149.168 151.791 150.274 151.762 151.58C151.734 152.886 152.627 154.033 153.9 154.325L174.403 159.027L173.891 162.464L150.122 158.192L146.406 138.132L167.11 125.91L168.834 128.964L151.372 140.637C150.286 141.363 149.859 142.752 150.35 143.962C150.841 145.172 152.115 145.872 153.4 145.635L180.831 140.597L181.442 143.894L154.018 148.932Z"/>
</mask>
<path d="M186.911 143.182L186.194 139.311C185.737 136.838 183.577 135.043 181.059 135.043C180.743 135.043 180.424 135.072 180.11 135.13L165.511 137.811L172.123 133.392C173.855 132.234 174.731 130.162 174.353 128.107C174.248 127.544 174.052 127.004 173.767 126.498L171.766 122.955C171.08 121.738 169.911 120.833 168.562 120.475C167.901 120.299 167.21 120.26 166.536 120.347C167.272 116.284 167.652 112.134 167.652 107.91C167.652 106.035 166.524 104.422 164.914 103.706C167.018 98.7017 167.162 92.9729 165.082 87.7265C164.913 87.2999 164.663 86.9191 164.339 86.5945C164.017 86.2728 163.641 86.0243 163.214 85.8528C160.722 84.8603 158.102 84.3572 155.429 84.3572C155.087 84.3572 154.747 84.366 154.407 84.3822C154.026 76.6959 147.664 70.5598 139.898 70.5598C138.876 70.5598 137.879 70.6685 136.915 70.8712C137.584 66.8689 137.19 62.6819 135.632 58.7508C135.464 58.3186 135.213 57.9308 134.871 57.5835C134.542 57.2545 134.156 57.0008 133.728 56.8308C131.043 55.7615 128.222 55.2195 125.342 55.2195C121.003 55.2195 116.853 56.4393 113.27 58.7071C111.961 54.9151 109.802 51.3553 106.786 48.3322C105.903 47.4473 104.728 46.9597 103.477 46.9597C102.227 46.9597 101.052 47.4473 100.167 48.333L86.8338 61.6971C84.3664 59.4962 81.1193 58.1805 77.5951 58.1805C76.7953 58.1805 75.9879 58.2507 75.1952 58.3887C72.3227 58.8888 69.6793 60.2948 67.6528 62.354C65.0542 61.1 62.0774 60.6723 59.2167 61.1702C58.5873 61.2796 57.9767 61.4338 57.3841 61.6218V51.3237C57.3841 44.2319 51.6842 38.452 44.6335 38.3301V32.4896C46.7918 32.1162 48.4398 30.2351 48.4398 27.9718V14.7388C48.4398 12.2081 46.381 10.1489 43.8499 10.1489H21.4549C18.9239 10.1489 16.8651 12.2081 16.8651 14.7388V27.9718C16.8651 30.2351 18.513 32.1162 20.6713 32.4896V38.3294C13.6206 38.4509 7.92115 44.2308 7.92115 51.323V131.699C2.42291 136.664 -1 143.592 -1 151.254C-1 166.326 12.2279 178.587 28.4876 178.587L138.712 178.555C142.474 178.554 146.012 176.9 148.419 174.019C150.763 171.215 151.759 167.572 151.185 163.979L173.201 167.936C173.506 167.99 173.818 168.018 174.127 168.018C175.225 168.018 176.277 167.681 177.168 167.045C178.313 166.226 179.088 164.96 179.295 163.571L179.891 159.57C179.977 158.997 179.968 158.419 179.863 157.854C179.484 155.808 177.926 154.184 175.894 153.719L168.134 151.939L182.719 149.259C184.094 149.007 185.288 148.234 186.079 147.085C186.87 145.938 187.165 144.552 186.911 143.182ZM155.429 89.8643C157.087 89.8643 158.717 90.1268 160.284 90.6442C161.684 94.9087 161.16 99.5084 158.967 103.308H151.549L153.916 100.935C154.99 99.8587 154.988 98.115 153.911 97.0406C152.834 95.9662 151.09 95.968 150.017 97.045L148.764 98.3004C148.177 96.3671 147.152 94.6362 145.804 93.2163C148.538 91.0459 151.893 89.8643 155.429 89.8643ZM139.898 76.0669C144.872 76.0669 148.918 80.125 148.918 85.1133C148.918 85.2058 148.914 85.2972 148.911 85.389C146.008 86.3331 143.332 87.9101 141.05 90.0519C140.687 89.9142 140.319 89.7864 139.941 89.6818C139.135 85.3299 136.202 81.8416 132.328 80.2124C133.936 77.7214 136.726 76.0669 139.898 76.0669ZM125.341 60.7266C127.212 60.7266 129.05 61.0292 130.821 61.6277C132.245 65.8606 131.954 70.4075 130.14 74.3459C128.649 75.7041 127.439 77.3675 126.612 79.2372C126.121 79.2658 125.629 79.3202 125.143 79.4046C122.985 79.7803 120.973 80.7166 119.289 82.0744C118.715 81.0243 118.012 80.0553 117.206 79.1828L123.521 72.8533C124.596 71.7767 124.593 70.0329 123.516 68.9589C122.44 67.8845 120.696 67.8864 119.622 68.9633L112.719 75.8815C111.406 75.2606 109.986 74.8288 108.495 74.6268C109.139 71.3405 110.734 68.244 113.2 65.7714C116.446 62.5181 120.758 60.7266 125.341 60.7266ZM104.239 103.308H101.852C101.45 102.285 100.456 101.56 99.2903 101.56C98.1244 101.56 97.1305 102.285 96.7284 103.308H93.9202C94.5723 102.246 94.4405 100.839 93.5199 99.9204C92.4433 98.846 90.6996 98.8479 89.6252 99.9244L87.0296 102.526C86.7964 102.759 86.6172 103.025 86.4854 103.308H80.8803C78.7811 100.087 77.5 96.2845 77.3483 92.1941H121.038C120.887 96.2845 119.606 100.087 117.506 103.308H111.674C111.542 103.025 111.362 102.759 111.129 102.525L108.534 99.9241C107.459 98.8479 105.716 98.8449 104.64 99.9197C103.719 100.838 103.587 102.246 104.239 103.308ZM97.8344 86.6863C98.8724 82.8393 102.382 80.0006 106.54 80.0006C110.699 80.0006 114.209 82.8396 115.247 86.6863H97.8344ZM103.466 52.824C106.085 55.655 107.817 59.0163 108.667 62.5493C107.261 64.0772 106.093 65.7655 105.171 67.5621C104.753 67.3058 104.263 67.1557 103.737 67.1557H100.067C98.5463 67.1557 97.3133 68.3887 97.3133 69.9096C97.3133 71.4304 98.5463 72.6635 100.067 72.6635H103.286C103.105 73.4239 102.965 74.1935 102.863 74.969C101.769 75.2562 100.725 75.6652 99.7474 76.1859C97.9119 73.0182 94.8723 70.6575 91.2709 69.7105C91.2698 69.7028 91.2684 69.6951 91.2669 69.6874C91.051 68.4412 90.6742 67.2588 90.1606 66.1599L103.466 52.824ZM53.6836 77.6737C53.522 77.2221 53.3997 76.7587 53.3193 76.2938C52.5295 71.7403 55.5992 67.3899 60.1607 66.5957C60.6417 66.512 61.1305 66.4694 61.6129 66.4694C63.4272 66.4694 65.1611 67.0481 66.6265 68.1427C67.2327 68.5958 67.9994 68.779 68.7455 68.6497C69.4916 68.5201 70.1515 68.0894 70.5701 67.4582C71.8629 65.5081 73.841 64.2141 76.1395 63.8139C76.6217 63.7298 77.1115 63.6876 77.5951 63.6876C81.6752 63.6876 85.143 66.6067 85.8399 70.6292C85.9199 71.0901 85.961 71.5703 85.9618 72.0569C85.9643 73.4823 87.0545 74.6705 88.4748 74.7953C91.5537 75.0659 94.1746 77.0036 95.3896 79.7333C93.763 81.6856 92.6354 84.0694 92.2072 86.6863H76.502C74.5493 86.6863 72.8738 87.8918 72.175 89.5977C68.7198 87.2444 64.6477 85.9765 60.3803 85.9765C57.7068 85.9765 55.0877 86.4799 52.5937 87.4728C52.1707 87.6417 51.7925 87.891 51.4702 88.2134C51.1434 88.5402 50.8926 88.9232 50.7281 89.3432C50.0943 90.9416 49.6717 92.5848 49.4433 94.2382C48.4563 93.1146 47.7608 91.7175 47.4891 90.1496C46.8414 86.4131 48.7974 82.6928 52.2442 81.1021C53.5396 80.5043 54.1642 79.0165 53.6836 77.6737ZM61.8931 102.555L62.6444 103.308H56.0302C54.5453 99.8631 54.3199 95.9419 55.5254 92.2642C57.0947 91.7461 58.7239 91.4839 60.3803 91.4839C64.5299 91.4839 68.4334 93.1058 71.3713 96.0503C71.762 96.4421 72.1258 96.8526 72.4677 97.2767C72.9344 99.3895 73.6515 101.408 74.5753 103.308H70.425L65.7922 98.6643C64.7175 97.588 62.9737 97.5851 61.8979 98.6599C60.8209 99.7346 60.8187 101.478 61.8931 102.555ZM50.1652 103.308H40.3477C40.7854 100.64 42.39 98.3665 44.6174 97.0255C45.9359 98.792 47.6569 100.22 49.6397 101.188C49.78 101.902 49.9522 102.611 50.1652 103.308ZM22.3729 15.6567H42.932V27.0538H22.3729V15.6567ZM39.1257 32.5616V38.3238H26.1795V32.5616H39.1257ZM13.4293 62.4913H31.3124C32.8336 62.4913 34.0663 61.2583 34.0663 59.7374C34.0663 58.2165 32.8336 56.9835 31.3124 56.9835H13.4293V51.323C13.4293 47.1921 16.7795 43.8316 20.8975 43.8316H44.4077C48.5261 43.8316 51.8763 47.1921 51.8763 51.323V56.9835H46.7342C45.2129 56.9835 43.9803 58.2165 43.9803 59.7374C43.9803 61.2583 45.2129 62.4913 46.7342 62.4913H51.8763V64.9357C48.721 68.0292 47.0823 72.5658 47.8916 77.2323C47.893 77.2415 47.8949 77.2511 47.8963 77.2606C43.4783 80.2917 41.1243 85.6806 42.0617 91.0903C42.1165 91.4061 42.1851 91.7167 42.26 92.0241C40.8842 92.7827 39.6486 93.7623 38.5896 94.9087H13.4293V62.4913ZM13.4289 100.416H35.3918C35.0995 101.344 34.8932 102.31 34.7926 103.308H34.3284C31.7938 103.308 29.7313 105.372 29.7313 107.909C29.7313 112.282 30.1377 116.574 30.9254 120.774C30.1341 120.711 29.3226 120.677 28.4972 120.677C25.1668 120.677 21.9936 121.205 19.5632 122.165C15.8454 123.633 14.8176 125.717 14.5933 127.16C14.1993 127.356 13.8123 127.563 13.4289 127.775V100.416ZM48.301 134.247C49.2927 135.04 49.899 135.715 50.2504 136.201C50.2173 136.202 50.1828 136.202 50.1479 136.202C48.5892 136.202 45.7887 135.574 42.6041 133.811C41.4184 133.154 40.3261 132.412 39.4448 131.665C38.4174 130.795 36.9109 130.796 35.8842 131.666C35.003 132.413 33.9109 133.155 32.7264 133.81C29.5411 135.574 26.7405 136.202 25.1822 136.202C25.1466 136.202 25.1124 136.202 25.079 136.201C25.4301 135.715 26.0363 135.04 27.0284 134.246C27.8953 133.552 28.2607 132.405 27.9548 131.338C27.6486 130.27 26.7314 129.49 25.628 129.361C22.9405 129.046 21.2412 128.362 20.4455 127.864C21.4424 127.243 23.9628 126.184 28.4983 126.184C32.2546 126.184 35 126.974 36.3168 127.714C37.1543 128.184 38.1754 128.184 39.013 127.714C40.3305 126.975 43.0763 126.185 46.8326 126.185C51.3684 126.185 53.8884 127.244 54.885 127.864C54.0897 128.363 52.39 129.046 49.7018 129.361C48.5984 129.491 47.6808 130.27 47.3749 131.338C47.068 132.406 47.4333 133.553 48.301 134.247ZM42.7921 167.766L42.8868 168.276C43.2143 170.045 43.905 171.668 44.87 173.08H28.4876C15.2652 173.08 4.50779 163.289 4.50779 151.254C4.50779 143.03 9.53383 135.856 16.9348 132.137C17.7849 132.771 18.8446 133.318 20.1018 133.76C19.6032 134.611 19.2558 135.527 19.1739 136.482C19.0653 137.752 19.4537 138.957 20.2689 139.878C21.3458 141.094 22.9989 141.71 25.1822 141.71C28.0918 141.71 31.9094 140.558 35.394 138.629C36.1963 138.185 36.9549 137.716 37.6651 137.227C38.3748 137.716 39.1334 138.185 39.9361 138.63C43.4207 140.558 47.2383 141.71 50.1479 141.71H50.1483C52.3308 141.71 53.9839 141.094 55.0605 139.878C55.876 138.958 56.2649 137.752 56.1558 136.482C56.0739 135.527 55.7266 134.611 55.2279 133.76C56.4852 133.318 57.5452 132.771 58.3953 132.137C64.2648 135.087 68.6383 140.209 70.1977 146.306L50.7204 153.705C45.0191 155.871 41.6846 161.784 42.7921 167.766ZM144.192 170.488C142.834 172.114 140.836 173.047 138.71 173.047L135.819 173.048L134.013 163.298C133.736 161.802 132.3 160.813 130.804 161.091C129.308 161.368 128.32 162.805 128.597 164.301L130.218 173.05L120.742 173.054L119.521 166.46C119.244 164.965 117.808 163.977 116.312 164.254C114.817 164.531 113.829 165.968 114.105 167.463L115.141 173.056L93.1006 173.065L91.4417 164.11C91.1641 162.614 89.7284 161.626 88.2321 161.904C86.7365 162.18 85.7488 163.618 86.0257 165.113L87.4992 173.067L55.3175 173.079C55.3168 173.079 55.3161 173.079 55.3153 173.079C51.8741 173.079 48.9248 170.637 48.3013 167.272L48.2066 166.761C47.5842 163.4 49.4635 160.074 52.6753 158.853L63.4988 154.742L64.3051 159.094C64.5508 160.419 65.7082 161.346 67.0095 161.346C67.1762 161.346 67.3451 161.331 67.5147 161.3C69.0099 161.022 69.9976 159.586 69.7204 158.09L68.7316 152.754L84.7978 146.65C86.2195 146.11 86.9345 144.52 86.3943 143.098C85.8542 141.676 84.2617 140.961 82.8422 141.501L75.3659 144.341C73.2685 136.916 67.8804 130.713 60.7354 127.159C60.511 125.717 59.4833 123.633 55.7659 122.165C53.3355 121.205 50.1622 120.676 46.8319 120.676C44.5399 120.676 42.3511 120.929 40.419 121.39V119.727C40.419 118.206 39.1863 116.973 37.6651 116.973C37.0221 116.973 36.4324 117.195 35.9635 117.564C35.5291 114.692 35.2861 111.774 35.2457 108.815H124.945C126.466 108.815 127.699 107.582 127.699 106.061C127.699 104.54 126.466 103.307 124.945 103.307H123.818C125.572 99.6957 126.562 95.6464 126.562 91.3668C126.562 88.9371 124.703 86.9356 122.334 86.7083C123.366 85.7356 124.653 85.0798 126.088 84.8298C126.508 84.7567 126.935 84.7196 127.356 84.7196C130.912 84.7196 133.933 87.2631 134.54 90.7668C134.61 91.1726 134.646 91.5912 134.647 92.0116C134.648 93.4377 135.739 94.6267 137.16 94.7515C140.451 95.0405 143.143 97.5157 143.708 100.77C143.857 101.636 143.839 102.49 143.689 103.307H140.734C139.213 103.307 137.98 104.54 137.98 106.061C137.98 107.582 139.213 108.815 140.734 108.815H162.138C162.07 113.867 161.419 118.801 160.205 123.589L145.281 132.399C144.368 129.223 142.246 126.528 139.323 124.892C136.044 123.057 132.148 122.77 128.634 124.105L97.8968 135.782C96.4747 136.322 95.7601 137.913 96.3003 139.335C96.8404 140.757 98.4325 141.47 99.8524 140.931L103.902 139.393L105.159 146.181C105.405 147.507 106.562 148.434 107.864 148.434C108.03 148.434 108.199 148.419 108.369 148.387C109.864 148.111 110.852 146.674 110.575 145.178L109.135 137.405L130.59 129.255C132.578 128.5 134.78 128.662 136.633 129.699C138.483 130.734 139.764 132.518 140.149 134.594L145.721 164.672C146.105 166.746 145.548 168.866 144.192 170.488ZM154.018 148.932C152.733 149.168 151.791 150.274 151.762 151.58C151.734 152.886 152.627 154.033 153.9 154.325L174.403 159.027L173.891 162.464L150.122 158.192L146.406 138.132L167.11 125.91L168.834 128.964L151.372 140.637C150.286 141.363 149.859 142.752 150.35 143.962C150.841 145.172 152.115 145.872 153.4 145.635L180.831 140.597L181.442 143.894L154.018 148.932Z" stroke="#FF00B8" stroke-width="4" mask="url(#path-1-inside-1_856_1978)"/>
</g>
<defs>
<clipPath id="clip0_856_1978">
<rect width="190" height="190" fill="white"/>
</clipPath>
</defs>
</svg>
