<svg width="179" height="179" viewBox="0 0 179 179" fill="none" xmlns="http://www.w3.org/2000/svg">
<mask id="path-1-inside-1_3564_1319" fill="white">
<path d="M178.642 11.4771V4.39445C178.642 2.95215 177.473 1.78285 176.031 1.78285H168.952C164.625 1.78285 160.69 3.85959 158.263 7.3163C135.7 2.46082 112.576 0 89.4999 0C66.4238 0 43.2997 2.46082 20.7369 7.3163C18.3102 3.85959 14.3751 1.78285 10.0482 1.78285H2.96902C1.52637 1.78285 0.357422 2.95215 0.357422 4.39445V11.4771C0.357422 16.0467 2.71517 20.2099 6.50582 22.5725C5.77805 27.5029 5.16868 32.4827 4.69093 37.4033C4.55165 38.839 5.6022 40.1155 7.03788 40.2548C8.47252 40.3927 9.75046 39.3432 9.8894 37.9078C10.309 33.5879 10.8358 29.222 11.4529 24.8847L12.8224 25.4836C13.1633 25.6326 13.5181 25.703 13.8677 25.703C14.8741 25.703 15.833 25.118 16.2617 24.1374C16.8397 22.8159 16.2373 21.2762 14.9159 20.6981L10.4117 18.7279C10.4016 18.7234 10.3912 18.7206 10.3811 18.7164C7.46514 17.4852 5.58061 14.6437 5.58061 11.4771V7.00604H10.0482C13.0595 7.00604 15.7543 8.68234 17.0922 11.3817L19.0328 15.8183C19.4614 16.7992 20.4204 17.3838 21.4267 17.3838C21.7763 17.3838 22.1312 17.3131 22.4721 17.1645C23.7935 16.5864 24.3959 15.0463 23.8179 13.7252L23.1305 12.153C44.9227 7.55761 67.2334 5.22319 89.4999 5.22319C94.3028 5.22319 99.1078 5.33775 103.909 5.55365C98.0921 8.68338 91.4875 10.0912 84.7764 9.56436L80.2427 9.20849C74.8078 8.78193 69.4408 10.7187 65.5307 14.5243C62.5127 17.4615 60.5676 21.3145 59.9819 25.4651C55.0442 28.2495 51.1753 32.4256 48.7816 37.5767C47.1381 41.1117 46.2696 45.0413 46.2696 48.9403V59.8292C44.29 61.6333 43.0459 64.231 43.0459 67.1138C43.0459 75.3066 47.7325 82.587 55.085 85.9971V86.7374C55.085 93.2855 57.9111 99.5136 62.8393 103.826L69.2008 109.391V122.683L67.4646 121.586C64.8631 119.941 61.4232 120.203 59.1006 122.223L55.3409 125.493L55.3357 125.494C43.4174 124.335 33.2127 123.102 23.134 121.051L23.8186 119.486C24.3966 118.165 23.7942 116.625 22.4728 116.047C21.1513 115.469 19.6112 116.072 19.0335 117.393L17.0897 121.837C15.7509 124.533 13.0578 126.207 10.0485 126.207H5.58061V121.735C5.58061 118.569 7.46514 115.727 10.3814 114.495C10.3849 114.494 10.3873 114.492 10.3908 114.491C10.3978 114.488 10.4051 114.486 10.4121 114.483L14.9162 112.512C16.2377 111.934 16.8401 110.395 16.262 109.073C15.684 107.751 14.1435 107.149 12.8227 107.727L11.4504 108.328C8.70269 89.0304 7.8628 69.4228 8.96106 49.9908C9.0422 48.551 7.9408 47.3176 6.50094 47.2361C5.06874 47.1564 3.82736 48.256 3.74623 49.6962C2.59922 70.0012 3.52755 90.4935 6.50547 110.64C2.71517 113.003 0.357422 117.166 0.357422 121.735V128.818C0.357422 130.26 1.52637 131.429 2.96902 131.429H10.0482C14.3768 131.429 18.3127 129.351 20.7397 125.893C26.5991 127.128 32.4592 128.078 38.6208 128.886C27.8043 132.81 20.2853 143.373 20.2853 155.31V158.631H10.3675C4.84797 158.631 0.357422 163.122 0.357422 168.642V175.673C0.357422 177.116 1.52637 178.285 2.96902 178.285C4.41166 178.285 5.58061 177.116 5.58061 175.673V168.642C5.58061 166.002 7.72804 163.855 10.3675 163.855H112.842C119.548 172.62 130.112 178.285 141.976 178.285C150.381 178.285 158.595 175.368 165.102 170.071C167.195 168.368 169.08 166.441 170.737 164.343C172.349 165.135 173.419 166.799 173.419 168.642V175.673C173.419 177.116 174.588 178.285 176.03 178.285C177.473 178.285 178.642 177.116 178.642 175.673V168.642C178.642 165.045 176.691 161.772 173.685 160.004C175.575 156.75 176.973 153.214 177.784 149.518C178.093 148.11 177.201 146.717 175.793 146.408C174.382 146.099 172.991 146.99 172.682 148.399C171.171 155.284 167.308 161.542 161.805 166.021C156.226 170.561 149.184 173.062 141.976 173.062C124.638 173.062 110.532 158.956 110.532 141.618C110.532 124.28 124.638 110.175 141.976 110.175C149.591 110.175 156.939 112.932 162.665 117.941C168.338 122.903 172.044 129.721 173.101 137.139C173.304 138.567 174.629 139.558 176.054 139.357C177.482 139.153 178.475 137.831 178.271 136.403C177.31 129.648 174.459 123.326 170.113 118.123C170.117 118.101 170.122 118.081 170.126 118.059C173.265 97.7036 177.684 58.5259 172.491 22.5739C176.284 20.2103 178.642 16.046 178.642 11.4771ZM65.0648 26.9496C65.3454 23.6562 66.8044 20.5731 69.1733 18.2672C72.0067 15.5101 75.8928 14.1061 79.8339 14.4157L84.3676 14.7715C92.1515 15.3826 99.8074 13.7283 106.539 10.0668C104.354 18.5406 98.0966 25.5536 89.8662 28.5649C88.5127 29.0632 87.8194 30.5644 88.3177 31.9179C88.7063 32.974 89.7054 33.6283 90.7688 33.6283C91.0683 33.6283 91.3729 33.5764 91.6707 33.4671C100.839 30.0926 108.011 22.6063 111.011 13.3366L111.812 16.1679C113.658 22.6979 113.201 29.7287 110.524 35.9652C108.333 41.0727 104.414 45.3067 99.4901 47.8862C93.0311 51.3478 85.1553 51.5062 78.5604 48.3117C75.0237 46.6518 71.9263 44.1133 69.6034 40.9714L68.6796 39.7217C65.96 36.0432 64.6765 31.5073 65.0648 26.9496ZM55.085 80.0179C50.8612 77.1584 48.2691 72.3882 48.2691 67.1135C48.2691 64.5583 50.3482 62.4791 52.9034 62.4791H55.0853L55.085 80.0179ZM57.6966 57.2563H52.9031C52.4239 57.2563 51.9535 57.2925 51.4925 57.3587V48.9399C51.4925 45.7963 52.1927 42.6282 53.5177 39.7777C55.0119 36.5623 57.2174 33.817 59.9847 31.6992C60.4781 35.43 61.8448 39.0103 63.9999 42.147L59.1901 56.1887C58.9717 56.8273 58.3714 57.2563 57.6966 57.2563ZM60.3082 86.737V61.9582C62.0705 61.2249 63.4867 59.7645 64.1319 57.8813L67.8665 46.9788C70.2956 49.4873 73.1726 51.5529 76.3406 53.0401C80.1894 54.8909 84.4 55.823 88.6001 55.8206C93.1934 55.822 97.7908 54.7108 101.914 52.5126C105.255 50.7618 108.214 48.3835 110.641 45.5441L114.867 57.881C115.513 59.7645 116.929 61.2249 118.691 61.9582V86.737C118.691 91.7788 116.515 96.5744 112.72 99.8942L100.241 110.813C98.2745 112.533 95.7521 113.481 93.1391 113.481H85.859C83.2453 113.481 80.7232 112.534 78.7568 110.813L66.2776 99.8942C62.4842 96.5744 60.3082 91.7788 60.3082 86.737ZM105.611 146.332L104.119 147.573C103.012 148.493 101.399 148.37 100.446 147.291L92.9963 138.861L107.243 129.856C105.989 133.55 105.308 137.506 105.308 141.618C105.309 143.215 105.412 144.788 105.611 146.332ZM86.3973 158.631H25.5085V155.31C25.5085 144.531 33.0062 135.13 43.3363 132.956C43.3363 132.956 51.5935 131.473 51.8226 131.428C51.7937 131.718 51.7804 132.011 51.7836 132.306C51.808 134.652 52.8568 136.86 54.6619 138.364L57.6705 140.868C58.7795 141.79 60.4252 141.639 61.3483 140.531C62.2707 139.422 62.1203 137.776 61.0116 136.853L58.0041 134.35C57.3693 133.821 57.0148 133.076 57.0064 132.251C56.9981 131.43 57.3348 130.68 57.956 130.141L62.528 126.164C63.1235 125.645 64.0058 125.578 64.6734 126L85.0208 138.861L77.5705 147.291C76.6178 148.369 75.0055 148.491 73.8982 147.57L70.3844 144.648C69.2754 143.727 67.6287 143.878 66.7066 144.987C65.7845 146.096 65.9356 147.743 67.0451 148.665L70.5575 151.585C72.0374 152.817 73.822 153.421 75.5961 153.421C77.7676 153.421 79.9233 152.516 81.484 150.75L86.397 145.191L86.3973 158.631ZM74.4237 125.984V113.961L75.3182 114.744C78.237 117.298 81.9809 118.704 85.8597 118.704H93.1398C96.9868 118.704 100.7 117.319 103.609 114.804V125.974L89.0075 135.203L74.4237 125.984ZM91.6205 158.631V145.191L96.5321 150.75C98.0931 152.517 100.25 153.423 102.423 153.423C103.95 153.423 105.485 152.972 106.826 152.061C107.508 154.353 108.409 156.551 109.503 158.631H91.6205ZM173.419 11.4771C173.419 14.6403 171.537 17.4803 168.623 18.7147C168.611 18.7199 168.599 18.7234 168.586 18.7286L164.082 20.6988C162.761 21.2768 162.158 22.8166 162.736 24.1381C163.165 25.1187 164.124 25.7037 165.13 25.7037C165.48 25.7037 165.835 25.633 166.176 25.4843L167.535 24.8896C170.875 49.6346 170.153 81.5114 165.521 113.523C158.93 107.994 150.603 104.951 141.976 104.951C129.488 104.951 118.44 111.228 111.816 120.79C111.763 120.814 108.887 122.642 108.832 122.673C108.832 122.673 108.829 110.273 108.827 110.241L116.16 103.826C121.088 99.514 123.915 93.2855 123.915 86.7374V85.9971C131.267 82.5867 135.954 75.3066 135.954 67.1138C135.954 64.231 134.71 61.6337 132.731 59.8296V48.9413C132.731 48.1867 132.697 47.4092 132.63 46.6299C132.507 45.1928 131.244 44.1269 129.806 44.2502C128.369 44.3728 127.303 45.6371 127.426 47.0745C127.48 47.7065 127.507 48.3347 127.507 48.9417V57.359C127.046 57.2925 126.576 57.2566 126.096 57.2566H121.303C120.628 57.2566 120.028 56.8276 119.809 56.189L114.311 40.1385C114.675 39.4487 115.015 38.7449 115.324 38.0252C116.34 35.6556 117.08 33.1882 117.549 30.6748C118.877 31.5293 120.105 32.5224 121.219 33.6478C122.186 34.6242 123.055 35.6866 123.804 36.8061C124.307 37.5593 125.135 37.9667 125.977 37.9667C126.476 37.9667 126.98 37.8239 127.426 37.5258C128.625 36.7243 128.948 35.1026 128.146 33.9034C127.213 32.5078 126.131 31.1852 124.931 29.9735C122.943 27.9646 120.659 26.2949 118.139 24.9937C118.214 21.5505 117.783 18.0935 116.837 14.7479L114.42 6.20028C128.348 7.28426 142.209 9.2736 155.868 12.1537L155.18 13.7262C154.602 15.0477 155.204 16.5875 156.526 17.1655C156.867 17.3145 157.221 17.3849 157.571 17.3849C158.577 17.3849 159.536 16.7999 159.965 15.8193L161.899 11.397C163.235 8.68895 165.934 7.00709 168.951 7.00709H173.419V11.4771ZM123.915 80.0179V62.4795H126.097C128.652 62.4795 130.731 64.5583 130.731 67.1138C130.731 72.3882 128.139 77.1584 123.915 80.0179Z"/>
<path d="M22.8563 93.2589C22.5408 94.6664 23.4256 96.0631 24.8331 96.3789C25.0257 96.4221 25.2175 96.4426 25.4069 96.4426C26.6024 96.4426 27.6801 95.617 27.9531 94.4021L28.2463 93.0953C32.2368 75.3065 32.133 56.5249 27.9468 38.781C27.6157 37.377 26.2082 36.5089 24.8052 36.8387C23.4016 37.1698 22.5321 38.5766 22.8633 39.9803C26.8694 56.9591 26.9683 74.9307 23.1498 91.9521L22.8563 93.2589Z"/>
<path d="M155.85 91.9521C152.032 74.9308 152.131 56.9592 156.137 39.9803C156.468 38.5767 155.599 37.1699 154.195 36.8387C152.791 36.509 151.385 37.3767 151.053 38.7811C146.867 56.5253 146.763 75.3068 150.754 93.0953L151.047 94.4021C151.32 95.617 152.398 96.4427 153.593 96.4427C153.783 96.4427 153.975 96.4218 154.167 96.3789C155.575 96.0631 156.459 94.6664 156.144 93.2589L155.85 91.9521Z"/>
<path d="M83.5682 84.4649C82.9132 85.7498 83.4244 87.3227 84.7093 87.9774C86.2091 88.7413 87.854 89.1237 89.4993 89.1237C91.1446 89.1237 92.7896 88.7417 94.2893 87.9774C95.5742 87.3227 96.0854 85.7498 95.4304 84.4649C94.7758 83.1797 93.2033 82.6692 91.9177 83.3235C90.4036 84.0951 88.5947 84.0951 87.0806 83.3235C85.7957 82.6692 84.2232 83.1797 83.5682 84.4649Z"/>
<path d="M94.7777 95.5463C91.4234 97.5663 87.5753 97.5663 84.2213 95.5463C82.9851 94.8026 81.3806 95.2002 80.6368 96.4364C79.8926 97.6718 80.291 99.2767 81.5268 100.021C84.0231 101.524 86.7611 102.276 89.4995 102.276C92.2378 102.276 94.9762 101.524 97.4722 100.021C98.708 99.2767 99.106 97.6718 98.3622 96.4364C97.6177 95.2006 96.0135 94.8022 94.7777 95.5463Z"/>
<path d="M98.3071 65.7303C100.645 64.2831 104.745 64.2828 107.083 65.7303C107.511 65.9957 107.986 66.1221 108.455 66.1221C109.329 66.1221 110.184 65.683 110.678 64.8852C111.438 63.6588 111.059 62.049 109.832 61.2899C105.83 58.8117 99.5597 58.812 95.5573 61.2899C94.3313 62.0494 93.9524 63.6588 94.7119 64.8852C95.4717 66.1116 97.0814 66.4894 98.3071 65.7303Z"/>
<path d="M71.9156 65.7302C74.2535 64.2831 78.3534 64.2831 80.6913 65.7302C81.9173 66.4897 83.5275 66.1112 84.2862 64.8848C85.046 63.6584 84.6672 62.0486 83.4408 61.2895C79.4388 58.8112 73.1678 58.8116 69.1658 61.2895C67.9397 62.0486 67.5609 63.6584 68.32 64.8848C68.8144 65.6829 69.6686 66.122 70.543 66.122C71.0123 66.122 71.4873 65.9956 71.9156 65.7302Z"/>
<path d="M82.7723 72.2074C82.0128 70.9809 80.4031 70.6035 79.1774 71.3619C77.6734 72.2934 74.9347 72.2934 73.4301 71.3619C72.2047 70.6028 70.5943 70.9809 69.8352 72.2074C69.0753 73.4334 69.4539 75.0432 70.6806 75.8027C72.2834 76.7954 74.2937 77.2916 76.3036 77.2916C78.3138 77.2916 80.3244 76.7954 81.9268 75.8027C83.1532 75.0432 83.5318 73.4338 82.7723 72.2074Z"/>
<path d="M105.569 71.3619C104.064 72.2934 101.325 72.2934 99.8213 71.3619C98.5956 70.6028 96.9855 70.9809 96.2263 72.2074C95.4665 73.4334 95.8451 75.0432 97.0718 75.8026C98.6746 76.7954 100.685 77.2916 102.695 77.2916C104.705 77.2916 106.716 76.7954 108.318 75.8026C109.544 75.0432 109.923 73.4334 109.164 72.2074C108.404 70.9806 106.794 70.6031 105.569 71.3619Z"/>
<path d="M162.726 125.002C159.305 122.364 154.376 123.001 151.737 126.422L137.369 145.052L131.382 138.748C129.941 137.231 127.995 136.365 125.903 136.311C123.805 136.251 121.823 137.021 120.306 138.462C117.173 141.437 117.045 146.405 120.02 149.539L132.306 162.476C133.779 164.026 135.849 164.915 137.986 164.915C138.12 164.915 138.255 164.911 138.389 164.905C140.677 164.787 142.792 163.679 144.191 161.865L164.145 135.991C165.423 134.334 165.98 132.278 165.711 130.202C165.443 128.127 164.383 126.28 162.726 125.002ZM160.009 132.801L140.054 158.675C139.588 159.28 138.883 159.649 138.12 159.689C137.364 159.729 136.614 159.428 136.093 158.879L123.807 145.942C122.815 144.898 122.858 143.241 123.902 142.25C124.391 141.786 125.027 141.532 125.699 141.532C125.722 141.532 125.745 141.532 125.768 141.533C126.465 141.551 127.113 141.839 127.594 142.345L135.681 150.86C136.206 151.413 136.945 151.71 137.709 151.67C138.47 151.631 139.177 151.261 139.643 150.657L155.872 129.612C156.752 128.472 158.395 128.26 159.536 129.139C160.088 129.565 160.442 130.181 160.531 130.872C160.621 131.563 160.435 132.248 160.009 132.801Z"/>
</mask>
<path d="M178.642 11.4771V4.39445C178.642 2.95215 177.473 1.78285 176.031 1.78285H168.952C164.625 1.78285 160.69 3.85959 158.263 7.3163C135.7 2.46082 112.576 0 89.4999 0C66.4238 0 43.2997 2.46082 20.7369 7.3163C18.3102 3.85959 14.3751 1.78285 10.0482 1.78285H2.96902C1.52637 1.78285 0.357422 2.95215 0.357422 4.39445V11.4771C0.357422 16.0467 2.71517 20.2099 6.50582 22.5725C5.77805 27.5029 5.16868 32.4827 4.69093 37.4033C4.55165 38.839 5.6022 40.1155 7.03788 40.2548C8.47252 40.3927 9.75046 39.3432 9.8894 37.9078C10.309 33.5879 10.8358 29.222 11.4529 24.8847L12.8224 25.4836C13.1633 25.6326 13.5181 25.703 13.8677 25.703C14.8741 25.703 15.833 25.118 16.2617 24.1374C16.8397 22.8159 16.2373 21.2762 14.9159 20.6981L10.4117 18.7279C10.4016 18.7234 10.3912 18.7206 10.3811 18.7164C7.46514 17.4852 5.58061 14.6437 5.58061 11.4771V7.00604H10.0482C13.0595 7.00604 15.7543 8.68234 17.0922 11.3817L19.0328 15.8183C19.4614 16.7992 20.4204 17.3838 21.4267 17.3838C21.7763 17.3838 22.1312 17.3131 22.4721 17.1645C23.7935 16.5864 24.3959 15.0463 23.8179 13.7252L23.1305 12.153C44.9227 7.55761 67.2334 5.22319 89.4999 5.22319C94.3028 5.22319 99.1078 5.33775 103.909 5.55365C98.0921 8.68338 91.4875 10.0912 84.7764 9.56436L80.2427 9.20849C74.8078 8.78193 69.4408 10.7187 65.5307 14.5243C62.5127 17.4615 60.5676 21.3145 59.9819 25.4651C55.0442 28.2495 51.1753 32.4256 48.7816 37.5767C47.1381 41.1117 46.2696 45.0413 46.2696 48.9403V59.8292C44.29 61.6333 43.0459 64.231 43.0459 67.1138C43.0459 75.3066 47.7325 82.587 55.085 85.9971V86.7374C55.085 93.2855 57.9111 99.5136 62.8393 103.826L69.2008 109.391V122.683L67.4646 121.586C64.8631 119.941 61.4232 120.203 59.1006 122.223L55.3409 125.493L55.3357 125.494C43.4174 124.335 33.2127 123.102 23.134 121.051L23.8186 119.486C24.3966 118.165 23.7942 116.625 22.4728 116.047C21.1513 115.469 19.6112 116.072 19.0335 117.393L17.0897 121.837C15.7509 124.533 13.0578 126.207 10.0485 126.207H5.58061V121.735C5.58061 118.569 7.46514 115.727 10.3814 114.495C10.3849 114.494 10.3873 114.492 10.3908 114.491C10.3978 114.488 10.4051 114.486 10.4121 114.483L14.9162 112.512C16.2377 111.934 16.8401 110.395 16.262 109.073C15.684 107.751 14.1435 107.149 12.8227 107.727L11.4504 108.328C8.70269 89.0304 7.8628 69.4228 8.96106 49.9908C9.0422 48.551 7.9408 47.3176 6.50094 47.2361C5.06874 47.1564 3.82736 48.256 3.74623 49.6962C2.59922 70.0012 3.52755 90.4935 6.50547 110.64C2.71517 113.003 0.357422 117.166 0.357422 121.735V128.818C0.357422 130.26 1.52637 131.429 2.96902 131.429H10.0482C14.3768 131.429 18.3127 129.351 20.7397 125.893C26.5991 127.128 32.4592 128.078 38.6208 128.886C27.8043 132.81 20.2853 143.373 20.2853 155.31V158.631H10.3675C4.84797 158.631 0.357422 163.122 0.357422 168.642V175.673C0.357422 177.116 1.52637 178.285 2.96902 178.285C4.41166 178.285 5.58061 177.116 5.58061 175.673V168.642C5.58061 166.002 7.72804 163.855 10.3675 163.855H112.842C119.548 172.62 130.112 178.285 141.976 178.285C150.381 178.285 158.595 175.368 165.102 170.071C167.195 168.368 169.08 166.441 170.737 164.343C172.349 165.135 173.419 166.799 173.419 168.642V175.673C173.419 177.116 174.588 178.285 176.03 178.285C177.473 178.285 178.642 177.116 178.642 175.673V168.642C178.642 165.045 176.691 161.772 173.685 160.004C175.575 156.75 176.973 153.214 177.784 149.518C178.093 148.11 177.201 146.717 175.793 146.408C174.382 146.099 172.991 146.99 172.682 148.399C171.171 155.284 167.308 161.542 161.805 166.021C156.226 170.561 149.184 173.062 141.976 173.062C124.638 173.062 110.532 158.956 110.532 141.618C110.532 124.28 124.638 110.175 141.976 110.175C149.591 110.175 156.939 112.932 162.665 117.941C168.338 122.903 172.044 129.721 173.101 137.139C173.304 138.567 174.629 139.558 176.054 139.357C177.482 139.153 178.475 137.831 178.271 136.403C177.31 129.648 174.459 123.326 170.113 118.123C170.117 118.101 170.122 118.081 170.126 118.059C173.265 97.7036 177.684 58.5259 172.491 22.5739C176.284 20.2103 178.642 16.046 178.642 11.4771ZM65.0648 26.9496C65.3454 23.6562 66.8044 20.5731 69.1733 18.2672C72.0067 15.5101 75.8928 14.1061 79.8339 14.4157L84.3676 14.7715C92.1515 15.3826 99.8074 13.7283 106.539 10.0668C104.354 18.5406 98.0966 25.5536 89.8662 28.5649C88.5127 29.0632 87.8194 30.5644 88.3177 31.9179C88.7063 32.974 89.7054 33.6283 90.7688 33.6283C91.0683 33.6283 91.3729 33.5764 91.6707 33.4671C100.839 30.0926 108.011 22.6063 111.011 13.3366L111.812 16.1679C113.658 22.6979 113.201 29.7287 110.524 35.9652C108.333 41.0727 104.414 45.3067 99.4901 47.8862C93.0311 51.3478 85.1553 51.5062 78.5604 48.3117C75.0237 46.6518 71.9263 44.1133 69.6034 40.9714L68.6796 39.7217C65.96 36.0432 64.6765 31.5073 65.0648 26.9496ZM55.085 80.0179C50.8612 77.1584 48.2691 72.3882 48.2691 67.1135C48.2691 64.5583 50.3482 62.4791 52.9034 62.4791H55.0853L55.085 80.0179ZM57.6966 57.2563H52.9031C52.4239 57.2563 51.9535 57.2925 51.4925 57.3587V48.9399C51.4925 45.7963 52.1927 42.6282 53.5177 39.7777C55.0119 36.5623 57.2174 33.817 59.9847 31.6992C60.4781 35.43 61.8448 39.0103 63.9999 42.147L59.1901 56.1887C58.9717 56.8273 58.3714 57.2563 57.6966 57.2563ZM60.3082 86.737V61.9582C62.0705 61.2249 63.4867 59.7645 64.1319 57.8813L67.8665 46.9788C70.2956 49.4873 73.1726 51.5529 76.3406 53.0401C80.1894 54.8909 84.4 55.823 88.6001 55.8206C93.1934 55.822 97.7908 54.7108 101.914 52.5126C105.255 50.7618 108.214 48.3835 110.641 45.5441L114.867 57.881C115.513 59.7645 116.929 61.2249 118.691 61.9582V86.737C118.691 91.7788 116.515 96.5744 112.72 99.8942L100.241 110.813C98.2745 112.533 95.7521 113.481 93.1391 113.481H85.859C83.2453 113.481 80.7232 112.534 78.7568 110.813L66.2776 99.8942C62.4842 96.5744 60.3082 91.7788 60.3082 86.737ZM105.611 146.332L104.119 147.573C103.012 148.493 101.399 148.37 100.446 147.291L92.9963 138.861L107.243 129.856C105.989 133.55 105.308 137.506 105.308 141.618C105.309 143.215 105.412 144.788 105.611 146.332ZM86.3973 158.631H25.5085V155.31C25.5085 144.531 33.0062 135.13 43.3363 132.956C43.3363 132.956 51.5935 131.473 51.8226 131.428C51.7937 131.718 51.7804 132.011 51.7836 132.306C51.808 134.652 52.8568 136.86 54.6619 138.364L57.6705 140.868C58.7795 141.79 60.4252 141.639 61.3483 140.531C62.2707 139.422 62.1203 137.776 61.0116 136.853L58.0041 134.35C57.3693 133.821 57.0148 133.076 57.0064 132.251C56.9981 131.43 57.3348 130.68 57.956 130.141L62.528 126.164C63.1235 125.645 64.0058 125.578 64.6734 126L85.0208 138.861L77.5705 147.291C76.6178 148.369 75.0055 148.491 73.8982 147.57L70.3844 144.648C69.2754 143.727 67.6287 143.878 66.7066 144.987C65.7845 146.096 65.9356 147.743 67.0451 148.665L70.5575 151.585C72.0374 152.817 73.822 153.421 75.5961 153.421C77.7676 153.421 79.9233 152.516 81.484 150.75L86.397 145.191L86.3973 158.631ZM74.4237 125.984V113.961L75.3182 114.744C78.237 117.298 81.9809 118.704 85.8597 118.704H93.1398C96.9868 118.704 100.7 117.319 103.609 114.804V125.974L89.0075 135.203L74.4237 125.984ZM91.6205 158.631V145.191L96.5321 150.75C98.0931 152.517 100.25 153.423 102.423 153.423C103.95 153.423 105.485 152.972 106.826 152.061C107.508 154.353 108.409 156.551 109.503 158.631H91.6205ZM173.419 11.4771C173.419 14.6403 171.537 17.4803 168.623 18.7147C168.611 18.7199 168.599 18.7234 168.586 18.7286L164.082 20.6988C162.761 21.2768 162.158 22.8166 162.736 24.1381C163.165 25.1187 164.124 25.7037 165.13 25.7037C165.48 25.7037 165.835 25.633 166.176 25.4843L167.535 24.8896C170.875 49.6346 170.153 81.5114 165.521 113.523C158.93 107.994 150.603 104.951 141.976 104.951C129.488 104.951 118.44 111.228 111.816 120.79C111.763 120.814 108.887 122.642 108.832 122.673C108.832 122.673 108.829 110.273 108.827 110.241L116.16 103.826C121.088 99.514 123.915 93.2855 123.915 86.7374V85.9971C131.267 82.5867 135.954 75.3066 135.954 67.1138C135.954 64.231 134.71 61.6337 132.731 59.8296V48.9413C132.731 48.1867 132.697 47.4092 132.63 46.6299C132.507 45.1928 131.244 44.1269 129.806 44.2502C128.369 44.3728 127.303 45.6371 127.426 47.0745C127.48 47.7065 127.507 48.3347 127.507 48.9417V57.359C127.046 57.2925 126.576 57.2566 126.096 57.2566H121.303C120.628 57.2566 120.028 56.8276 119.809 56.189L114.311 40.1385C114.675 39.4487 115.015 38.7449 115.324 38.0252C116.34 35.6556 117.08 33.1882 117.549 30.6748C118.877 31.5293 120.105 32.5224 121.219 33.6478C122.186 34.6242 123.055 35.6866 123.804 36.8061C124.307 37.5593 125.135 37.9667 125.977 37.9667C126.476 37.9667 126.98 37.8239 127.426 37.5258C128.625 36.7243 128.948 35.1026 128.146 33.9034C127.213 32.5078 126.131 31.1852 124.931 29.9735C122.943 27.9646 120.659 26.2949 118.139 24.9937C118.214 21.5505 117.783 18.0935 116.837 14.7479L114.42 6.20028C128.348 7.28426 142.209 9.2736 155.868 12.1537L155.18 13.7262C154.602 15.0477 155.204 16.5875 156.526 17.1655C156.867 17.3145 157.221 17.3849 157.571 17.3849C158.577 17.3849 159.536 16.7999 159.965 15.8193L161.899 11.397C163.235 8.68895 165.934 7.00709 168.951 7.00709H173.419V11.4771ZM123.915 80.0179V62.4795H126.097C128.652 62.4795 130.731 64.5583 130.731 67.1138C130.731 72.3882 128.139 77.1584 123.915 80.0179Z" stroke="#00E0FF" stroke-width="4" mask="url(#path-1-inside-1_3564_1319)"/>
<path d="M22.8563 93.2589C22.5408 94.6664 23.4256 96.0631 24.8331 96.3789C25.0257 96.4221 25.2175 96.4426 25.4069 96.4426C26.6024 96.4426 27.6801 95.617 27.9531 94.4021L28.2463 93.0953C32.2368 75.3065 32.133 56.5249 27.9468 38.781C27.6157 37.377 26.2082 36.5089 24.8052 36.8387C23.4016 37.1698 22.5321 38.5766 22.8633 39.9803C26.8694 56.9591 26.9683 74.9307 23.1498 91.9521L22.8563 93.2589Z" stroke="#00E0FF" stroke-width="4" mask="url(#path-1-inside-1_3564_1319)"/>
<path d="M155.85 91.9521C152.032 74.9308 152.131 56.9592 156.137 39.9803C156.468 38.5767 155.599 37.1699 154.195 36.8387C152.791 36.509 151.385 37.3767 151.053 38.7811C146.867 56.5253 146.763 75.3068 150.754 93.0953L151.047 94.4021C151.32 95.617 152.398 96.4427 153.593 96.4427C153.783 96.4427 153.975 96.4218 154.167 96.3789C155.575 96.0631 156.459 94.6664 156.144 93.2589L155.85 91.9521Z" stroke="#00E0FF" stroke-width="4" mask="url(#path-1-inside-1_3564_1319)"/>
<path d="M83.5682 84.4649C82.9132 85.7498 83.4244 87.3227 84.7093 87.9774C86.2091 88.7413 87.854 89.1237 89.4993 89.1237C91.1446 89.1237 92.7896 88.7417 94.2893 87.9774C95.5742 87.3227 96.0854 85.7498 95.4304 84.4649C94.7758 83.1797 93.2033 82.6692 91.9177 83.3235C90.4036 84.0951 88.5947 84.0951 87.0806 83.3235C85.7957 82.6692 84.2232 83.1797 83.5682 84.4649Z" stroke="#00E0FF" stroke-width="4" mask="url(#path-1-inside-1_3564_1319)"/>
<path d="M94.7777 95.5463C91.4234 97.5663 87.5753 97.5663 84.2213 95.5463C82.9851 94.8026 81.3806 95.2002 80.6368 96.4364C79.8926 97.6718 80.291 99.2767 81.5268 100.021C84.0231 101.524 86.7611 102.276 89.4995 102.276C92.2378 102.276 94.9762 101.524 97.4722 100.021C98.708 99.2767 99.106 97.6718 98.3622 96.4364C97.6177 95.2006 96.0135 94.8022 94.7777 95.5463Z" stroke="#00E0FF" stroke-width="4" mask="url(#path-1-inside-1_3564_1319)"/>
<path d="M98.3071 65.7303C100.645 64.2831 104.745 64.2828 107.083 65.7303C107.511 65.9957 107.986 66.1221 108.455 66.1221C109.329 66.1221 110.184 65.683 110.678 64.8852C111.438 63.6588 111.059 62.049 109.832 61.2899C105.83 58.8117 99.5597 58.812 95.5573 61.2899C94.3313 62.0494 93.9524 63.6588 94.7119 64.8852C95.4717 66.1116 97.0814 66.4894 98.3071 65.7303Z" stroke="#00E0FF" stroke-width="4" mask="url(#path-1-inside-1_3564_1319)"/>
<path d="M71.9156 65.7302C74.2535 64.2831 78.3534 64.2831 80.6913 65.7302C81.9173 66.4897 83.5275 66.1112 84.2862 64.8848C85.046 63.6584 84.6672 62.0486 83.4408 61.2895C79.4388 58.8112 73.1678 58.8116 69.1658 61.2895C67.9397 62.0486 67.5609 63.6584 68.32 64.8848C68.8144 65.6829 69.6686 66.122 70.543 66.122C71.0123 66.122 71.4873 65.9956 71.9156 65.7302Z" stroke="#00E0FF" stroke-width="4" mask="url(#path-1-inside-1_3564_1319)"/>
<path d="M82.7723 72.2074C82.0128 70.9809 80.4031 70.6035 79.1774 71.3619C77.6734 72.2934 74.9347 72.2934 73.4301 71.3619C72.2047 70.6028 70.5943 70.9809 69.8352 72.2074C69.0753 73.4334 69.4539 75.0432 70.6806 75.8027C72.2834 76.7954 74.2937 77.2916 76.3036 77.2916C78.3138 77.2916 80.3244 76.7954 81.9268 75.8027C83.1532 75.0432 83.5318 73.4338 82.7723 72.2074Z" stroke="#00E0FF" stroke-width="4" mask="url(#path-1-inside-1_3564_1319)"/>
<path d="M105.569 71.3619C104.064 72.2934 101.325 72.2934 99.8213 71.3619C98.5956 70.6028 96.9855 70.9809 96.2263 72.2074C95.4665 73.4334 95.8451 75.0432 97.0718 75.8026C98.6746 76.7954 100.685 77.2916 102.695 77.2916C104.705 77.2916 106.716 76.7954 108.318 75.8026C109.544 75.0432 109.923 73.4334 109.164 72.2074C108.404 70.9806 106.794 70.6031 105.569 71.3619Z" stroke="#00E0FF" stroke-width="4" mask="url(#path-1-inside-1_3564_1319)"/>
<path d="M162.726 125.002C159.305 122.364 154.376 123.001 151.737 126.422L137.369 145.052L131.382 138.748C129.941 137.231 127.995 136.365 125.903 136.311C123.805 136.251 121.823 137.021 120.306 138.462C117.173 141.437 117.045 146.405 120.02 149.539L132.306 162.476C133.779 164.026 135.849 164.915 137.986 164.915C138.12 164.915 138.255 164.911 138.389 164.905C140.677 164.787 142.792 163.679 144.191 161.865L164.145 135.991C165.423 134.334 165.98 132.278 165.711 130.202C165.443 128.127 164.383 126.28 162.726 125.002ZM160.009 132.801L140.054 158.675C139.588 159.28 138.883 159.649 138.12 159.689C137.364 159.729 136.614 159.428 136.093 158.879L123.807 145.942C122.815 144.898 122.858 143.241 123.902 142.25C124.391 141.786 125.027 141.532 125.699 141.532C125.722 141.532 125.745 141.532 125.768 141.533C126.465 141.551 127.113 141.839 127.594 142.345L135.681 150.86C136.206 151.413 136.945 151.71 137.709 151.67C138.47 151.631 139.177 151.261 139.643 150.657L155.872 129.612C156.752 128.472 158.395 128.26 159.536 129.139C160.088 129.565 160.442 130.181 160.531 130.872C160.621 131.563 160.435 132.248 160.009 132.801Z" stroke="#00E0FF" stroke-width="4" mask="url(#path-1-inside-1_3564_1319)"/>
</svg>
