<svg width="190" height="190" viewBox="0 0 190 190" fill="none" xmlns="http://www.w3.org/2000/svg">
<mask id="path-1-inside-1_856_1993" fill="white">
<path d="M182.644 16.4771V9.39445C182.644 7.95215 181.475 6.78285 180.033 6.78285H172.954C168.627 6.78285 164.692 8.85959 162.265 12.3163C139.702 7.46082 116.578 5 93.5019 5C70.4258 5 47.3017 7.46082 24.7389 12.3163C22.3122 8.85959 18.377 6.78285 14.0501 6.78285H6.97097C5.52833 6.78285 4.35938 7.95215 4.35938 9.39445V16.4771C4.35938 21.0467 6.71712 25.2099 10.5078 27.5725C9.78 32.5029 9.17063 37.4827 8.69288 42.4033C8.5536 43.839 9.60416 45.1155 11.0398 45.2548C12.4745 45.3927 13.7524 44.3432 13.8914 42.9078C14.3109 38.5879 14.8378 34.222 15.4548 29.8847L16.8243 30.4836C17.1652 30.6326 17.5201 30.703 17.8697 30.703C18.876 30.703 19.835 30.118 20.2636 29.1374C20.8417 27.8159 20.2393 26.2762 18.9178 25.6981L14.4137 23.7279C14.4036 23.7234 14.3931 23.7206 14.383 23.7164C11.4671 22.4852 9.58257 19.6437 9.58257 16.4771V12.006H14.0501C17.0615 12.006 19.7563 13.6823 21.0941 16.3817L23.0347 20.8183C23.4634 21.7992 24.4224 22.3838 25.4287 22.3838C25.7783 22.3838 26.1331 22.3131 26.474 22.1645C27.7955 21.5864 28.3979 20.0463 27.8199 18.7252L27.1325 17.153C48.9247 12.5576 71.2354 10.2232 93.5019 10.2232C98.3048 10.2232 103.11 10.3378 107.911 10.5536C102.094 13.6834 95.4894 15.0912 88.7783 14.5644L84.2446 14.2085C78.8097 13.7819 73.4427 15.7187 69.5326 19.5243C66.5147 22.4615 64.5695 26.3145 63.9839 30.4651C59.0462 33.2495 55.1772 37.4256 52.7836 42.5767C51.14 46.1117 50.2716 50.0413 50.2716 53.9403V64.8292C48.292 66.6333 47.0478 69.231 47.0478 72.1138C47.0478 80.3066 51.7344 87.587 59.0869 90.9971V91.7374C59.0869 98.2855 61.913 104.514 66.8413 108.826L73.2028 114.391V127.683L71.4666 126.586C68.8651 124.941 65.4251 125.203 63.1025 127.223L59.3429 130.493L59.3376 130.494C47.4194 129.335 37.2146 128.102 27.136 126.051L27.8206 124.486C28.3986 123.165 27.7962 121.625 26.4747 121.047C25.1533 120.469 23.6131 121.072 23.0354 122.393L21.0917 126.837C19.7528 129.533 17.0597 131.207 14.0505 131.207H9.58257V126.735C9.58257 123.569 11.4671 120.727 14.3834 119.495C14.3869 119.494 14.3893 119.492 14.3928 119.491C14.3997 119.488 14.4071 119.486 14.414 119.483L18.9182 117.512C20.2396 116.934 20.842 115.395 20.264 114.073C19.686 112.751 18.1455 112.149 16.8247 112.727L15.4524 113.328C12.7046 94.0304 11.8648 74.4228 12.963 54.9908C13.0442 53.551 11.9428 52.3176 10.5029 52.2361C9.07069 52.1564 7.82932 53.256 7.74818 54.6962C6.60117 75.0012 7.5295 95.4935 10.5074 115.64C6.71712 118.003 4.35938 122.166 4.35938 126.735V133.818C4.35938 135.26 5.52833 136.429 6.97097 136.429H14.0501C18.3788 136.429 22.3146 134.351 24.7417 130.893C30.601 132.128 36.4611 133.078 42.6227 133.886C31.8062 137.81 24.2872 148.373 24.2872 160.31V163.631H14.3694C8.84993 163.631 4.35938 168.122 4.35938 173.642V180.673C4.35938 182.116 5.52833 183.285 6.97097 183.285C8.41362 183.285 9.58257 182.116 9.58257 180.673V173.642C9.58257 171.002 11.73 168.855 14.3694 168.855H116.844C123.55 177.62 134.114 183.285 145.978 183.285C154.383 183.285 162.597 180.368 169.104 175.071C171.197 173.368 173.082 171.441 174.739 169.343C176.351 170.135 177.421 171.799 177.421 173.642V180.673C177.421 182.116 178.59 183.285 180.032 183.285C181.475 183.285 182.644 182.116 182.644 180.673V173.642C182.644 170.045 180.693 166.772 177.687 165.004C179.577 161.75 180.975 158.214 181.786 154.518C182.095 153.11 181.203 151.717 179.795 151.408C178.384 151.099 176.993 151.99 176.684 153.399C175.173 160.284 171.31 166.542 165.807 171.021C160.228 175.561 153.186 178.062 145.978 178.062C128.64 178.062 114.534 163.956 114.534 146.618C114.534 129.28 128.64 115.175 145.978 115.175C153.593 115.175 160.941 117.932 166.667 122.941C172.34 127.903 176.046 134.721 177.103 142.139C177.306 143.567 178.631 144.558 180.056 144.357C181.484 144.153 182.476 142.831 182.273 141.403C181.312 134.648 178.461 128.326 174.115 123.123C174.119 123.101 174.124 123.081 174.128 123.059C177.267 102.704 181.686 63.5259 176.493 27.5739C180.286 25.2103 182.644 21.046 182.644 16.4771ZM69.0667 31.9496C69.3474 28.6562 70.8064 25.5731 73.1753 23.2672C76.0087 20.5101 79.8947 19.1061 83.8358 19.4157L88.3695 19.7715C96.1535 20.3826 103.809 18.7283 110.541 15.0668C108.356 23.5406 102.099 30.5536 93.8682 33.5649C92.5147 34.0632 91.8214 35.5644 92.3197 36.9179C92.7083 37.974 93.7073 38.6283 94.7707 38.6283C95.0702 38.6283 95.3749 38.5764 95.6726 38.4671C104.841 35.0926 112.012 27.6063 115.013 18.3366L115.814 21.1679C117.66 27.6979 117.203 34.7287 114.526 40.9652C112.335 46.0727 108.416 50.3067 103.492 52.8862C97.0331 56.3478 89.1572 56.5062 82.5624 53.3117C79.0256 51.6518 75.9282 49.1133 73.6053 45.9714L72.6815 44.7217C69.962 41.0432 68.6785 36.5073 69.0667 31.9496ZM59.0869 85.0179C54.8631 82.1584 52.271 77.3882 52.271 72.1135C52.271 69.5583 54.3502 67.4791 56.9054 67.4791H59.0873L59.0869 85.0179ZM61.6985 62.2563H56.905C56.4259 62.2563 55.9555 62.2925 55.4944 62.3587V53.9399C55.4944 50.7963 56.1947 47.6282 57.5196 44.7777C59.0138 41.5623 61.2194 38.817 63.9866 36.6992C64.4801 40.43 65.8468 44.0103 68.0019 47.147L63.192 61.1887C62.9737 61.8273 62.3734 62.2563 61.6985 62.2563ZM64.3101 91.737V66.9582C66.0724 66.2249 67.4886 64.7645 68.1339 62.8813L71.8684 51.9788C74.2976 54.4873 77.1745 56.5529 80.3425 58.0401C84.1913 59.8909 88.4019 60.823 92.6021 60.8206C97.1954 60.822 101.793 59.7108 105.916 57.5126C109.257 55.7618 112.216 53.3835 114.643 50.5441L118.869 62.881C119.515 64.7645 120.931 66.2249 122.693 66.9582V91.737C122.693 96.7788 120.517 101.574 116.722 104.894L104.243 115.813C102.276 117.533 99.754 118.481 97.141 118.481H89.8609C87.2473 118.481 84.7251 117.534 82.7588 115.813L70.2795 104.894C66.4861 101.574 64.3101 96.7788 64.3101 91.737ZM109.613 151.332L108.121 152.573C107.014 153.493 105.401 153.37 104.448 152.291L96.9983 143.861L111.245 134.856C109.991 138.55 109.31 142.506 109.31 146.618C109.311 148.215 109.414 149.788 109.613 151.332ZM90.3993 163.631H29.5104V160.31C29.5104 149.531 37.0082 140.13 47.3382 137.956C47.3382 137.956 55.5954 136.473 55.8245 136.428C55.7956 136.718 55.7824 137.011 55.7855 137.306C55.8099 139.652 56.8587 141.86 58.6639 143.364L61.6724 145.868C62.7815 146.79 64.4271 146.639 65.3502 145.531C66.2727 144.422 66.1222 142.776 65.0135 141.853L62.006 139.35C61.3712 138.821 61.0167 138.076 61.0084 137.251C61 136.43 61.3367 135.68 61.958 135.141L66.53 131.164C67.1254 130.645 68.0078 130.578 68.6753 131L89.0228 143.861L81.5724 152.291C80.6197 153.369 79.0075 153.491 77.9002 152.57L74.3864 149.648C73.2773 148.727 71.6306 148.878 70.7085 149.987C69.7865 151.096 69.9376 152.743 71.047 153.665L74.5594 156.585C76.0393 157.817 77.8239 158.421 79.5981 158.421C81.7695 158.421 83.9253 157.516 85.486 155.75L90.3989 150.191L90.3993 163.631ZM78.4256 130.984V118.961L79.3202 119.744C82.2389 122.298 85.9829 123.704 89.8616 123.704H97.1417C100.989 123.704 104.702 122.319 107.611 119.804V130.974L93.0095 140.203L78.4256 130.984ZM95.6225 163.631V150.191L100.534 155.75C102.095 157.517 104.252 158.423 106.425 158.423C107.952 158.423 109.487 157.972 110.828 157.061C111.51 159.353 112.411 161.551 113.505 163.631H95.6225ZM177.421 16.4771C177.421 19.6403 175.539 22.4803 172.625 23.7147C172.613 23.7199 172.6 23.7234 172.588 23.7286L168.084 25.6988C166.763 26.2768 166.16 27.8166 166.738 29.1381C167.167 30.1187 168.126 30.7037 169.132 30.7037C169.482 30.7037 169.837 30.633 170.178 30.4843L171.537 29.8896C174.877 54.6346 174.155 86.5114 169.523 118.523C162.932 112.994 154.605 109.951 145.978 109.951C133.49 109.951 122.442 116.228 115.818 125.79C115.764 125.814 112.889 127.642 112.834 127.673C112.834 127.673 112.831 115.273 112.829 115.241L120.162 108.826C125.09 104.514 127.917 98.2855 127.917 91.7374V90.9971C135.269 87.5867 139.956 80.3066 139.956 72.1138C139.956 69.231 138.712 66.6337 136.732 64.8296V53.9413C136.732 53.1867 136.699 52.4092 136.632 51.6299C136.509 50.1928 135.246 49.1269 133.808 49.2502C132.371 49.3728 131.305 50.6371 131.428 52.0745C131.482 52.7065 131.509 53.3347 131.509 53.9417V62.359C131.048 62.2925 130.577 62.2566 130.098 62.2566H125.305C124.63 62.2566 124.03 61.8276 123.811 61.189L118.313 45.1385C118.677 44.4487 119.017 43.7449 119.326 43.0252C120.342 40.6556 121.082 38.1882 121.551 35.6748C122.878 36.5293 124.107 37.5224 125.221 38.6478C126.188 39.6242 127.057 40.6866 127.806 41.8061C128.309 42.5593 129.137 42.9667 129.979 42.9667C130.478 42.9667 130.982 42.8239 131.428 42.5258C132.627 41.7243 132.949 40.1026 132.148 38.9034C131.215 37.5078 130.133 36.1852 128.933 34.9735C126.945 32.9646 124.661 31.2949 122.141 29.9937C122.215 26.5505 121.785 23.0935 120.839 19.7479L118.422 11.2003C132.35 12.2843 146.211 14.2736 159.869 17.1537L159.182 18.7262C158.604 20.0477 159.206 21.5875 160.528 22.1655C160.868 22.3145 161.223 22.3849 161.573 22.3849C162.579 22.3849 163.538 21.7999 163.967 20.8193L165.901 16.397C167.237 13.689 169.936 12.0071 172.953 12.0071H177.421V16.4771ZM127.917 85.0179V67.4795H130.099C132.654 67.4795 134.733 69.5583 134.733 72.1138C134.733 77.3882 132.141 82.1584 127.917 85.0179Z"/>
</mask>
<path d="M182.644 16.4771V9.39445C182.644 7.95215 181.475 6.78285 180.033 6.78285H172.954C168.627 6.78285 164.692 8.85959 162.265 12.3163C139.702 7.46082 116.578 5 93.5019 5C70.4258 5 47.3017 7.46082 24.7389 12.3163C22.3122 8.85959 18.377 6.78285 14.0501 6.78285H6.97097C5.52833 6.78285 4.35938 7.95215 4.35938 9.39445V16.4771C4.35938 21.0467 6.71712 25.2099 10.5078 27.5725C9.78 32.5029 9.17063 37.4827 8.69288 42.4033C8.5536 43.839 9.60416 45.1155 11.0398 45.2548C12.4745 45.3927 13.7524 44.3432 13.8914 42.9078C14.3109 38.5879 14.8378 34.222 15.4548 29.8847L16.8243 30.4836C17.1652 30.6326 17.5201 30.703 17.8697 30.703C18.876 30.703 19.835 30.118 20.2636 29.1374C20.8417 27.8159 20.2393 26.2762 18.9178 25.6981L14.4137 23.7279C14.4036 23.7234 14.3931 23.7206 14.383 23.7164C11.4671 22.4852 9.58257 19.6437 9.58257 16.4771V12.006H14.0501C17.0615 12.006 19.7563 13.6823 21.0941 16.3817L23.0347 20.8183C23.4634 21.7992 24.4224 22.3838 25.4287 22.3838C25.7783 22.3838 26.1331 22.3131 26.474 22.1645C27.7955 21.5864 28.3979 20.0463 27.8199 18.7252L27.1325 17.153C48.9247 12.5576 71.2354 10.2232 93.5019 10.2232C98.3048 10.2232 103.11 10.3378 107.911 10.5536C102.094 13.6834 95.4894 15.0912 88.7783 14.5644L84.2446 14.2085C78.8097 13.7819 73.4427 15.7187 69.5326 19.5243C66.5147 22.4615 64.5695 26.3145 63.9839 30.4651C59.0462 33.2495 55.1772 37.4256 52.7836 42.5767C51.14 46.1117 50.2716 50.0413 50.2716 53.9403V64.8292C48.292 66.6333 47.0478 69.231 47.0478 72.1138C47.0478 80.3066 51.7344 87.587 59.0869 90.9971V91.7374C59.0869 98.2855 61.913 104.514 66.8413 108.826L73.2028 114.391V127.683L71.4666 126.586C68.8651 124.941 65.4251 125.203 63.1025 127.223L59.3429 130.493L59.3376 130.494C47.4194 129.335 37.2146 128.102 27.136 126.051L27.8206 124.486C28.3986 123.165 27.7962 121.625 26.4747 121.047C25.1533 120.469 23.6131 121.072 23.0354 122.393L21.0917 126.837C19.7528 129.533 17.0597 131.207 14.0505 131.207H9.58257V126.735C9.58257 123.569 11.4671 120.727 14.3834 119.495C14.3869 119.494 14.3893 119.492 14.3928 119.491C14.3997 119.488 14.4071 119.486 14.414 119.483L18.9182 117.512C20.2396 116.934 20.842 115.395 20.264 114.073C19.686 112.751 18.1455 112.149 16.8247 112.727L15.4524 113.328C12.7046 94.0304 11.8648 74.4228 12.963 54.9908C13.0442 53.551 11.9428 52.3176 10.5029 52.2361C9.07069 52.1564 7.82932 53.256 7.74818 54.6962C6.60117 75.0012 7.5295 95.4935 10.5074 115.64C6.71712 118.003 4.35938 122.166 4.35938 126.735V133.818C4.35938 135.26 5.52833 136.429 6.97097 136.429H14.0501C18.3788 136.429 22.3146 134.351 24.7417 130.893C30.601 132.128 36.4611 133.078 42.6227 133.886C31.8062 137.81 24.2872 148.373 24.2872 160.31V163.631H14.3694C8.84993 163.631 4.35938 168.122 4.35938 173.642V180.673C4.35938 182.116 5.52833 183.285 6.97097 183.285C8.41362 183.285 9.58257 182.116 9.58257 180.673V173.642C9.58257 171.002 11.73 168.855 14.3694 168.855H116.844C123.55 177.62 134.114 183.285 145.978 183.285C154.383 183.285 162.597 180.368 169.104 175.071C171.197 173.368 173.082 171.441 174.739 169.343C176.351 170.135 177.421 171.799 177.421 173.642V180.673C177.421 182.116 178.59 183.285 180.032 183.285C181.475 183.285 182.644 182.116 182.644 180.673V173.642C182.644 170.045 180.693 166.772 177.687 165.004C179.577 161.75 180.975 158.214 181.786 154.518C182.095 153.11 181.203 151.717 179.795 151.408C178.384 151.099 176.993 151.99 176.684 153.399C175.173 160.284 171.31 166.542 165.807 171.021C160.228 175.561 153.186 178.062 145.978 178.062C128.64 178.062 114.534 163.956 114.534 146.618C114.534 129.28 128.64 115.175 145.978 115.175C153.593 115.175 160.941 117.932 166.667 122.941C172.34 127.903 176.046 134.721 177.103 142.139C177.306 143.567 178.631 144.558 180.056 144.357C181.484 144.153 182.476 142.831 182.273 141.403C181.312 134.648 178.461 128.326 174.115 123.123C174.119 123.101 174.124 123.081 174.128 123.059C177.267 102.704 181.686 63.5259 176.493 27.5739C180.286 25.2103 182.644 21.046 182.644 16.4771ZM69.0667 31.9496C69.3474 28.6562 70.8064 25.5731 73.1753 23.2672C76.0087 20.5101 79.8947 19.1061 83.8358 19.4157L88.3695 19.7715C96.1535 20.3826 103.809 18.7283 110.541 15.0668C108.356 23.5406 102.099 30.5536 93.8682 33.5649C92.5147 34.0632 91.8214 35.5644 92.3197 36.9179C92.7083 37.974 93.7073 38.6283 94.7707 38.6283C95.0702 38.6283 95.3749 38.5764 95.6726 38.4671C104.841 35.0926 112.012 27.6063 115.013 18.3366L115.814 21.1679C117.66 27.6979 117.203 34.7287 114.526 40.9652C112.335 46.0727 108.416 50.3067 103.492 52.8862C97.0331 56.3478 89.1572 56.5062 82.5624 53.3117C79.0256 51.6518 75.9282 49.1133 73.6053 45.9714L72.6815 44.7217C69.962 41.0432 68.6785 36.5073 69.0667 31.9496ZM59.0869 85.0179C54.8631 82.1584 52.271 77.3882 52.271 72.1135C52.271 69.5583 54.3502 67.4791 56.9054 67.4791H59.0873L59.0869 85.0179ZM61.6985 62.2563H56.905C56.4259 62.2563 55.9555 62.2925 55.4944 62.3587V53.9399C55.4944 50.7963 56.1947 47.6282 57.5196 44.7777C59.0138 41.5623 61.2194 38.817 63.9866 36.6992C64.4801 40.43 65.8468 44.0103 68.0019 47.147L63.192 61.1887C62.9737 61.8273 62.3734 62.2563 61.6985 62.2563ZM64.3101 91.737V66.9582C66.0724 66.2249 67.4886 64.7645 68.1339 62.8813L71.8684 51.9788C74.2976 54.4873 77.1745 56.5529 80.3425 58.0401C84.1913 59.8909 88.4019 60.823 92.6021 60.8206C97.1954 60.822 101.793 59.7108 105.916 57.5126C109.257 55.7618 112.216 53.3835 114.643 50.5441L118.869 62.881C119.515 64.7645 120.931 66.2249 122.693 66.9582V91.737C122.693 96.7788 120.517 101.574 116.722 104.894L104.243 115.813C102.276 117.533 99.754 118.481 97.141 118.481H89.8609C87.2473 118.481 84.7251 117.534 82.7588 115.813L70.2795 104.894C66.4861 101.574 64.3101 96.7788 64.3101 91.737ZM109.613 151.332L108.121 152.573C107.014 153.493 105.401 153.37 104.448 152.291L96.9983 143.861L111.245 134.856C109.991 138.55 109.31 142.506 109.31 146.618C109.311 148.215 109.414 149.788 109.613 151.332ZM90.3993 163.631H29.5104V160.31C29.5104 149.531 37.0082 140.13 47.3382 137.956C47.3382 137.956 55.5954 136.473 55.8245 136.428C55.7956 136.718 55.7824 137.011 55.7855 137.306C55.8099 139.652 56.8587 141.86 58.6639 143.364L61.6724 145.868C62.7815 146.79 64.4271 146.639 65.3502 145.531C66.2727 144.422 66.1222 142.776 65.0135 141.853L62.006 139.35C61.3712 138.821 61.0167 138.076 61.0084 137.251C61 136.43 61.3367 135.68 61.958 135.141L66.53 131.164C67.1254 130.645 68.0078 130.578 68.6753 131L89.0228 143.861L81.5724 152.291C80.6197 153.369 79.0075 153.491 77.9002 152.57L74.3864 149.648C73.2773 148.727 71.6306 148.878 70.7085 149.987C69.7865 151.096 69.9376 152.743 71.047 153.665L74.5594 156.585C76.0393 157.817 77.8239 158.421 79.5981 158.421C81.7695 158.421 83.9253 157.516 85.486 155.75L90.3989 150.191L90.3993 163.631ZM78.4256 130.984V118.961L79.3202 119.744C82.2389 122.298 85.9829 123.704 89.8616 123.704H97.1417C100.989 123.704 104.702 122.319 107.611 119.804V130.974L93.0095 140.203L78.4256 130.984ZM95.6225 163.631V150.191L100.534 155.75C102.095 157.517 104.252 158.423 106.425 158.423C107.952 158.423 109.487 157.972 110.828 157.061C111.51 159.353 112.411 161.551 113.505 163.631H95.6225ZM177.421 16.4771C177.421 19.6403 175.539 22.4803 172.625 23.7147C172.613 23.7199 172.6 23.7234 172.588 23.7286L168.084 25.6988C166.763 26.2768 166.16 27.8166 166.738 29.1381C167.167 30.1187 168.126 30.7037 169.132 30.7037C169.482 30.7037 169.837 30.633 170.178 30.4843L171.537 29.8896C174.877 54.6346 174.155 86.5114 169.523 118.523C162.932 112.994 154.605 109.951 145.978 109.951C133.49 109.951 122.442 116.228 115.818 125.79C115.764 125.814 112.889 127.642 112.834 127.673C112.834 127.673 112.831 115.273 112.829 115.241L120.162 108.826C125.09 104.514 127.917 98.2855 127.917 91.7374V90.9971C135.269 87.5867 139.956 80.3066 139.956 72.1138C139.956 69.231 138.712 66.6337 136.732 64.8296V53.9413C136.732 53.1867 136.699 52.4092 136.632 51.6299C136.509 50.1928 135.246 49.1269 133.808 49.2502C132.371 49.3728 131.305 50.6371 131.428 52.0745C131.482 52.7065 131.509 53.3347 131.509 53.9417V62.359C131.048 62.2925 130.577 62.2566 130.098 62.2566H125.305C124.63 62.2566 124.03 61.8276 123.811 61.189L118.313 45.1385C118.677 44.4487 119.017 43.7449 119.326 43.0252C120.342 40.6556 121.082 38.1882 121.551 35.6748C122.878 36.5293 124.107 37.5224 125.221 38.6478C126.188 39.6242 127.057 40.6866 127.806 41.8061C128.309 42.5593 129.137 42.9667 129.979 42.9667C130.478 42.9667 130.982 42.8239 131.428 42.5258C132.627 41.7243 132.949 40.1026 132.148 38.9034C131.215 37.5078 130.133 36.1852 128.933 34.9735C126.945 32.9646 124.661 31.2949 122.141 29.9937C122.215 26.5505 121.785 23.0935 120.839 19.7479L118.422 11.2003C132.35 12.2843 146.211 14.2736 159.869 17.1537L159.182 18.7262C158.604 20.0477 159.206 21.5875 160.528 22.1655C160.868 22.3145 161.223 22.3849 161.573 22.3849C162.579 22.3849 163.538 21.7999 163.967 20.8193L165.901 16.397C167.237 13.689 169.936 12.0071 172.953 12.0071H177.421V16.4771ZM127.917 85.0179V67.4795H130.099C132.654 67.4795 134.733 69.5583 134.733 72.1138C134.733 77.3882 132.141 82.1584 127.917 85.0179Z" stroke="#FF00B8" stroke-width="4" mask="url(#path-1-inside-1_856_1993)"/>
<path d="M30.974 44.0104L30.974 44.0104C35.1255 61.6069 35.2284 80.2351 31.271 97.8761L30.9779 99.1826C30.9779 99.1828 30.9779 99.1829 30.9778 99.183C30.8094 99.9318 30.1447 100.442 29.4074 100.442C29.2907 100.442 29.1723 100.43 29.0525 100.403C28.1841 100.208 27.638 99.3464 27.8325 98.4779C27.8325 98.4777 27.8325 98.4776 27.8326 98.4774L28.126 97.171L28.1261 97.1707C31.9777 80.0016 31.878 61.8767 27.837 44.7504C27.6327 43.8843 28.1692 43.0163 29.0349 42.8119C29.9018 42.6083 30.7699 43.1451 30.974 44.0104Z" stroke="#FF00B8" stroke-width="2"/>
<path d="M158.875 97.171L158.875 97.1708C155.023 80.0017 155.123 61.8767 159.164 44.7504M158.875 97.171L159.169 98.4779C159.363 99.3463 158.817 100.208 157.949 100.403C157.828 100.43 157.709 100.442 157.594 100.442C156.856 100.442 156.191 99.9315 156.023 99.183C156.023 99.183 156.023 99.1829 156.023 99.1829L155.73 97.8762C151.773 80.2355 151.876 61.6073 156.027 44.0104L156.027 44.0103C156.231 43.1449 157.099 42.6083 157.966 42.8119C158.832 43.0164 159.368 43.8843 159.164 44.7504M158.875 97.171L159.169 98.4774L158.875 97.171ZM159.164 44.7504L160.137 44.9801M159.164 44.7504L160.137 44.9801M160.137 44.9801C160.469 43.5764 159.599 42.1696 158.195 41.8385L160.144 98.2587L159.851 96.9519C156.032 79.9305 156.131 61.9589 160.137 44.9801Z" stroke="#FF00B8" stroke-width="2"/>
<path d="M88.4614 89.919L88.4614 89.9191C88.0573 90.7118 88.3726 91.6824 89.1655 92.0864C90.5218 92.7773 92.0108 93.1237 93.5016 93.1237C94.9924 93.1237 96.4814 92.7776 97.8375 92.0864L97.8376 92.0864C98.6305 91.6824 98.9458 90.7118 98.5417 89.9191L98.5416 89.9188C98.1379 89.1262 97.1676 88.8106 96.3735 89.2148C94.5744 90.1315 92.4282 90.1314 90.6291 89.2147L88.4614 89.919ZM88.4614 89.919C88.8655 89.1261 89.8357 88.8109 90.6288 89.2145L88.4614 89.919Z" stroke="#FF00B8" stroke-width="2"/>
<path d="M85.4973 101.952L85.497 101.952C85.0379 102.714 85.2836 103.705 86.0463 104.164L86.0463 104.164C88.3901 105.575 90.9503 106.276 93.5031 106.276C96.056 106.276 98.6165 105.575 100.96 104.164L100.96 104.164C101.722 103.705 101.968 102.715 101.509 101.952L85.4973 101.952ZM85.4973 101.952C85.9558 101.19 86.9453 100.944 87.709 101.403L85.4973 101.952ZM87.7094 101.403C91.3807 103.614 95.6256 103.614 99.2972 101.403L87.7094 101.403ZM99.2972 101.403C100.06 100.944 101.049 101.189 101.509 101.952L99.2972 101.403Z" stroke="#FF00B8" stroke-width="2"/>
<path d="M101.781 69.8799L101.781 69.8799C103.152 69.031 104.959 68.6446 106.695 68.6446C108.431 68.6445 110.238 69.0308 111.609 69.8799L111.61 69.8802C111.875 70.0445 112.167 70.1218 112.455 70.1218C112.998 70.1218 113.523 69.8498 113.828 69.3584L113.828 69.3583C114.296 68.6017 114.063 67.6084 113.306 67.14L113.306 67.1399C111.493 66.0176 109.117 65.4311 106.695 65.4312C104.273 65.4312 101.896 66.0177 100.084 67.1398L101.781 69.8799ZM101.781 69.8799C101.024 70.3483 100.031 70.1153 99.5621 69.3585L101.781 69.8799ZM99.562 69.3583C99.0936 68.6018 99.3271 67.6088 100.084 67.1399L99.562 69.3583Z" stroke="#FF00B8" stroke-width="2"/>
<path d="M75.39 69.8804L75.3903 69.8802C76.7616 69.0314 78.569 68.6451 80.3045 68.6451C82.04 68.6451 83.8474 69.0314 85.2186 69.8802L85.2189 69.8803C85.9755 70.349 86.9689 70.1152 87.4369 69.3589L87.4372 69.3583C87.906 68.6017 87.6723 67.6084 86.9155 67.14L86.9153 67.1399C85.103 66.0176 82.7261 65.4311 80.3043 65.4312C77.8825 65.4312 75.5056 66.0178 73.6932 67.1399L73.6932 67.1399C72.9368 67.6082 72.7029 68.6015 73.1711 69.3583L75.39 69.8804ZM75.39 69.8804C75.1245 70.0449 74.8328 70.1222 74.544 70.1222C74.0017 70.1222 73.4761 69.8504 73.1713 69.3587L75.39 69.8804Z" stroke="#FF00B8" stroke-width="2"/>
<path d="M76.9058 77.212L76.9055 77.2118C76.1497 76.7436 75.1558 76.977 74.6875 77.7335L74.6872 77.7339C74.2186 78.4902 74.4518 79.4835 75.209 79.9522L75.2092 79.9523C76.6281 80.8311 78.4488 81.2914 80.3056 81.2914C82.1628 81.2914 83.9839 80.8311 85.4023 79.9524L85.4024 79.9523C86.1593 79.4836 86.3928 78.4905 85.9242 77.7337L86.7744 77.2072L85.9242 77.7337C85.4558 76.9774 84.4626 76.7439 83.706 77.2119L76.9058 77.212ZM76.9058 77.212C77.8648 77.8057 79.1262 78.0603 80.3061 78.0603M76.9058 77.212L80.3061 78.0603M80.3061 78.0603C81.4857 78.0603 82.7469 77.8057 83.7056 77.2121L80.3061 78.0603Z" stroke="#FF00B8" stroke-width="2"/>
<path d="M101.078 77.7335L101.078 77.7339C100.609 78.4902 100.842 79.4835 101.6 79.9522L101.6 79.9523C103.019 80.8311 104.839 81.2914 106.697 81.2914C108.553 81.2914 110.374 80.8311 111.793 79.9524L111.793 79.9523C112.55 79.4836 112.783 78.4902 112.315 77.7338L112.315 77.7336C111.846 76.9769 110.853 76.7436 110.096 77.212L101.078 77.7335ZM101.078 77.7335C101.546 76.977 102.54 76.7435 103.296 77.2119L101.078 77.7335ZM106.696 78.0603C105.516 78.0603 104.255 77.8057 103.296 77.2119L106.696 78.0603ZM106.696 78.0603C107.876 78.0603 109.137 77.8057 110.096 77.212L106.696 78.0603Z" stroke="#FF00B8" stroke-width="2"/>
<path d="M144.848 164.286L144.847 164.286C144.203 165.122 143.228 165.633 142.173 165.687C141.123 165.743 140.09 165.327 139.369 164.568L139.369 164.568L127.083 151.631L127.083 151.631C125.711 150.186 125.77 147.897 127.215 146.525L127.215 146.525C127.889 145.885 128.771 145.532 129.7 145.532C129.732 145.532 129.764 145.532 129.797 145.533M144.848 164.286L129.769 146.533M144.848 164.286L164.802 138.412C164.802 138.412 164.802 138.412 164.802 138.412C165.39 137.65 165.648 136.699 165.524 135.745C165.401 134.79 164.91 133.935 164.147 133.347L164.147 133.347C162.569 132.131 160.299 132.424 159.082 134.001L159.082 134.002L142.852 155.046M144.848 164.286L143.644 155.657M129.797 145.533C129.798 145.533 129.798 145.533 129.799 145.533L129.769 146.533M129.797 145.533C129.796 145.533 129.795 145.533 129.794 145.533L129.769 146.533M129.797 145.533C130.759 145.559 131.658 145.959 132.32 146.657L132.32 146.657L140.407 155.172M129.769 146.533C130.466 146.551 131.115 146.839 131.595 147.345L139.682 155.861M140.407 155.172L139.682 155.861M140.407 155.172L140.407 155.172L139.682 155.861M140.407 155.172C140.732 155.514 141.187 155.696 141.658 155.672L141.659 155.672C142.128 155.648 142.565 155.419 142.852 155.046M139.682 155.861C140.208 156.414 140.946 156.71 141.71 156.671C142.472 156.632 143.178 156.261 143.644 155.657M142.852 155.046L142.852 155.047L143.644 155.657M142.852 155.046L143.644 155.657M166.116 130.794L166.116 130.794C167.564 131.91 168.487 133.518 168.721 135.33L168.721 135.331C168.955 137.143 168.471 138.933 167.354 140.38L167.354 140.381L147.4 166.254L148.192 166.865L147.4 166.254C146.18 167.837 144.336 168.803 142.339 168.906C142.221 168.912 142.104 168.915 141.988 168.915C140.124 168.915 138.316 168.139 137.032 166.787L124.746 153.85C122.151 151.117 122.264 146.782 124.996 144.187L124.996 144.187C126.322 142.927 128.047 142.259 129.876 142.311L129.878 142.311C131.705 142.358 133.399 143.112 134.658 144.437L140.645 150.741L141.449 151.588L142.162 150.663L156.53 132.033C156.53 132.033 156.53 132.033 156.53 132.033C158.832 129.049 163.133 128.494 166.116 130.794Z" stroke="#FF00B8" stroke-width="2"/>
</svg>
