<svg width="191" height="190" viewBox="0 0 191 190" fill="none" xmlns="http://www.w3.org/2000/svg">
<path d="M77.0846 80.838L77.7932 81.5518L78.5029 80.839L100.676 58.5692C101.001 58.2665 101.428 58.0987 101.87 58.0987C102.313 58.0987 102.74 58.2665 103.065 58.5692L115.147 70.6997C115.147 70.6999 115.147 70.7002 115.148 70.7004C115.46 71.0158 115.637 71.4435 115.637 71.8903C115.637 72.337 115.46 72.7647 115.148 73.0801C115.147 73.0803 115.147 73.0806 115.147 73.0808L78.9731 109.4L78.9701 109.403C78.8158 109.559 78.6324 109.683 78.4306 109.768C78.2289 109.852 78.0126 109.895 77.7942 109.895C77.5759 109.895 77.3596 109.852 77.1578 109.768C76.956 109.683 76.7726 109.559 76.6183 109.403L76.6154 109.4L52.9286 85.6181L52.9256 85.6151C52.77 85.4602 52.6462 85.2756 52.5617 85.0719C52.4772 84.8683 52.4336 84.6497 52.4336 84.4288C52.4336 84.2079 52.4772 83.9893 52.5617 83.7856C52.6462 83.582 52.77 83.3974 52.9256 83.2424L52.9279 83.2402L65.0413 71.1016C65.042 71.1009 65.0428 71.1002 65.0436 71.0994C65.3611 70.7871 65.7871 70.6128 66.23 70.6128C66.6725 70.6128 67.098 70.7867 67.4154 71.0984C67.4165 71.0995 67.4176 71.1006 67.4187 71.1016L77.0846 80.838ZM77.0854 105.126L77.794 105.838L78.5028 105.127L110.895 72.5958L111.598 71.8902L110.895 71.1846L102.583 62.8387L101.874 62.1273L101.166 62.8387L78.9731 85.1206L78.971 85.1227C78.8162 85.2791 78.6325 85.4029 78.4304 85.4875C78.2283 85.572 78.0117 85.6156 77.793 85.6159L77.5838 85.6162C77.5434 85.5982 77.4909 85.5724 77.4252 85.5359C77.1315 85.3725 76.7309 85.0828 76.2353 84.6696C75.2528 83.8504 74.0392 82.6664 72.7925 81.393C71.8805 80.4614 70.9672 79.4991 70.1279 78.6148C69.8226 78.2931 69.5271 77.9817 69.245 77.6859C68.2231 76.6143 67.3142 75.6776 66.8134 75.2912L66.1154 74.7527L65.4936 75.3776L57.1891 83.7234L56.4872 84.4288L57.1892 85.1342L77.0854 105.126ZM77.6865 85.6538C77.6863 85.6538 77.6845 85.6535 77.6807 85.6526C77.6846 85.6532 77.6866 85.6537 77.6865 85.6538ZM155.79 124.077L155.151 124.364L155.202 125.062C155.303 126.446 155.407 127.784 155.507 129.078C155.856 133.586 156.164 137.552 156.17 141.045C156.179 145.539 155.685 149.084 154.239 151.843C151.418 157.224 144.642 160.144 128.5 160.231C127.538 160.113 126.56 160.205 125.636 160.503C124.689 160.809 123.822 161.322 123.098 162.005C122.373 162.688 121.809 163.524 121.447 164.452C121.089 165.369 120.936 166.354 120.999 167.336V180.315C120.999 180.763 120.821 181.192 120.507 181.508C120.193 181.823 119.767 182 119.325 182C118.882 182 118.457 181.823 118.143 181.508C117.828 181.192 117.651 180.763 117.651 180.315V167.303V167.277L117.65 167.251C117.576 165.835 117.805 164.419 118.323 163.1C118.841 161.781 119.634 160.589 120.65 159.605C121.665 158.621 122.879 157.867 124.209 157.395C125.539 156.922 126.954 156.742 128.359 156.866L128.403 156.87H128.447C134.852 156.87 140.392 156.188 144.461 154.972C146.493 154.364 148.204 153.61 149.479 152.705C150.749 151.804 151.68 150.684 151.937 149.329L151.944 149.292L151.948 149.254C152.906 140.696 152.818 132.052 151.686 123.516L151.686 123.515C151.636 123.14 151.713 122.758 151.905 122.433C152.097 122.107 152.391 121.857 152.741 121.721L152.747 121.718C157.739 119.734 162.594 117.42 167.282 114.792L167.301 114.781L167.319 114.77C168.44 114.076 169.239 113.332 169.707 112.496C170.191 111.63 170.274 110.749 170.105 109.899C169.944 109.083 169.554 108.309 169.126 107.601C168.824 107.101 168.467 106.579 168.12 106.071C167.98 105.867 167.842 105.664 167.71 105.467L167.664 105.398L167.606 105.337C160.537 97.8472 155.251 88.8452 152.146 79.0086C149.164 -10.6079 22.1539 -12.7617 16.0074 76.6839C14.9084 89.1987 19.0852 100.717 24.7101 111.514C27.4394 116.754 30.5251 121.851 33.5323 126.819L33.8112 127.28C36.903 132.388 39.8951 137.356 42.3609 142.256C45.3403 150.217 47.0667 158.596 47.4779 167.091L47.4787 167.108L47.4802 167.125C47.7425 170.273 49.1775 173.206 51.5 175.339C53.822 177.472 56.8601 178.647 60.0083 178.631C60.0092 178.631 60.0102 178.631 60.0111 178.631L69.7885 178.631H69.7899C73.1248 178.626 76.321 177.294 78.6779 174.928C81.0347 172.561 82.36 169.354 82.3645 166.009V166.008V137.708C82.3978 134.908 81.4875 132.179 79.7805 129.964C78.0723 127.746 75.6665 126.174 72.9541 125.503L72.9459 125.501C65.766 123.79 59.0758 120.438 53.3955 115.708C47.7152 110.977 43.1979 104.994 40.1952 98.2242C37.1924 91.4545 35.7853 84.0804 36.0834 76.6754C36.3815 69.2704 38.3767 62.0344 41.9136 55.5302C45.4506 49.0259 50.4339 43.4287 56.4758 39.1737C62.5177 34.9187 69.4554 32.1204 76.7493 30.9962C84.0433 29.8719 91.4973 30.452 98.5317 32.6913C105.564 34.9301 111.988 38.767 117.305 43.9042C123.096 49.6223 127.359 56.7141 129.699 64.5246C132.039 72.3366 132.38 80.6152 130.691 88.5947C129.001 96.5742 125.335 103.997 120.032 110.177C114.735 116.349 107.975 121.082 100.377 123.941C99.972 124.064 99.5349 124.028 99.1543 123.84C98.7668 123.648 98.4672 123.312 98.3196 122.902C98.1719 122.492 98.1881 122.04 98.3647 121.642C98.5395 121.248 98.8574 120.937 99.2518 120.772C146.578 103.082 132.936 32.2766 82.3011 33.8358L82.2898 33.8361L82.2785 33.8367C71.1066 34.4329 60.5499 39.1569 52.6401 47.0985C44.7304 55.04 40.0267 65.6376 39.4331 76.8512L39.4327 76.8588L39.4324 76.8663C39.0406 87.2402 42.2397 97.4306 48.4863 105.705C54.7329 113.979 63.6416 119.826 73.6981 122.25C77.1417 123.082 80.2038 125.061 82.3846 127.866C84.5653 130.67 85.7358 134.134 85.7043 137.693V137.702V166.007C85.7004 170.247 84.0214 174.312 81.037 177.31C78.0527 180.308 74.0068 181.994 69.7871 182L60.0291 182L60.0238 182C56.0423 182.021 52.1985 180.534 49.26 177.834C46.3258 175.139 44.5098 171.431 44.1743 167.451C43.7917 159.346 42.1808 151.348 39.3971 143.73L39.3746 143.669L39.3443 143.611C36.86 138.851 33.9575 134.016 31.0119 129.109C30.786 128.733 30.5598 128.356 30.3335 127.979C27.1506 122.672 23.9458 117.275 21.1448 111.731C15.5414 100.642 11.6076 89.0713 12.7157 76.7091L12.7188 76.6749L12.7195 76.6405C13.9837 15.5063 89.2977 -15.9775 133.082 26.5514L133.088 26.5566L133.093 26.5617C140.132 33.1985 145.743 41.2123 149.58 50.1094C153.417 59.0066 155.399 68.5985 155.404 78.2943L155.404 78.4625L155.459 78.6215C158.622 87.7369 163.63 96.0967 170.167 103.175C172.779 106.365 173.623 108.916 173.488 110.97C173.353 113.02 172.227 114.805 170.391 116.431C168.549 118.062 166.077 119.454 163.446 120.708C161.816 121.484 160.191 122.178 158.636 122.842C157.654 123.261 156.7 123.669 155.79 124.077Z" stroke="#00E0FF" stroke-width="2"/>
</svg>
