<svg width="190" height="190" viewBox="0 0 190 190" fill="none" xmlns="http://www.w3.org/2000/svg">
<path d="M76.5836 80.838L77.2922 81.5518L78.0019 80.839L100.175 58.5692C100.5 58.2665 100.927 58.0987 101.369 58.0987C101.812 58.0987 102.239 58.2665 102.564 58.5692L114.646 70.6997C114.646 70.6999 114.646 70.7002 114.647 70.7004C114.959 71.0158 115.136 71.4435 115.136 71.8903C115.136 72.337 114.959 72.7647 114.647 73.0801C114.646 73.0803 114.646 73.0806 114.646 73.0808L78.4721 109.4L78.4692 109.403C78.3148 109.559 78.1314 109.683 77.9297 109.768C77.7279 109.852 77.5116 109.895 77.2933 109.895C77.0749 109.895 76.8586 109.852 76.6568 109.768C76.4551 109.683 76.2717 109.559 76.1173 109.403L76.1144 109.4L52.4276 85.6181L52.4246 85.6151C52.269 85.4602 52.1453 85.2756 52.0608 85.0719C51.9762 84.8683 51.9327 84.6497 51.9327 84.4288C51.9327 84.2079 51.9762 83.9893 52.0607 83.7856C52.1453 83.582 52.269 83.3974 52.4246 83.2424L52.4269 83.2402L64.5403 71.1016C64.5411 71.1009 64.5418 71.1002 64.5426 71.0994C64.8601 70.7871 65.2861 70.6128 65.729 70.6128C66.1715 70.6128 66.5971 70.7867 66.9145 71.0984C66.9156 71.0995 66.9167 71.1006 66.9178 71.1016L76.5836 80.838ZM76.5844 105.126L77.2931 105.838L78.0019 105.127L110.394 72.5958L111.097 71.8902L110.394 71.1846L102.082 62.8387L101.373 62.1273L100.665 62.8387L78.4721 85.1206L78.47 85.1227C78.3153 85.2791 78.1315 85.4029 77.9294 85.4875C77.7273 85.572 77.5107 85.6156 77.292 85.6159L77.0828 85.6162C77.0424 85.5982 76.9899 85.5724 76.9242 85.5359C76.6305 85.3725 76.2299 85.0828 75.7343 84.6696C74.7519 83.8504 73.5382 82.6664 72.2916 81.393C71.3795 80.4614 70.4662 79.4991 69.6269 78.6148C69.3216 78.2931 69.0261 77.9817 68.744 77.6859C67.7222 76.6143 66.8132 75.6776 66.3124 75.2912L65.6145 74.7527L64.9927 75.3776L56.6881 83.7234L55.9862 84.4288L56.6882 85.1342L76.5844 105.126ZM77.1855 85.6538C77.1854 85.6538 77.1835 85.6535 77.1797 85.6526C77.1836 85.6532 77.1856 85.6537 77.1855 85.6538ZM155.289 124.077L154.65 124.364L154.701 125.062C154.802 126.446 154.906 127.784 155.006 129.078C155.355 133.586 155.663 137.552 155.669 141.045C155.678 145.539 155.184 149.084 153.738 151.843C150.917 157.224 144.141 160.144 128 160.231C127.037 160.113 126.059 160.205 125.135 160.503C124.188 160.809 123.321 161.322 122.597 162.005C121.872 162.688 121.308 163.524 120.946 164.452C120.588 165.369 120.435 166.354 120.498 167.336V180.315C120.498 180.763 120.32 181.192 120.006 181.508C119.692 181.823 119.266 182 118.824 182C118.381 182 117.956 181.823 117.642 181.508C117.327 181.192 117.15 180.763 117.15 180.315V167.303V167.277L117.149 167.251C117.075 165.835 117.304 164.419 117.822 163.1C118.34 161.781 119.133 160.589 120.149 159.605C121.164 158.621 122.378 157.867 123.708 157.395C125.038 156.922 126.453 156.742 127.858 156.866L127.902 156.87H127.946C134.351 156.87 139.891 156.188 143.96 154.972C145.992 154.364 147.703 153.61 148.978 152.705C150.248 151.804 151.179 150.684 151.436 149.329L151.443 149.292L151.447 149.254C152.405 140.696 152.317 132.052 151.185 123.516L151.185 123.515C151.135 123.14 151.212 122.758 151.404 122.433C151.596 122.107 151.89 121.857 152.24 121.721L152.246 121.718C157.238 119.734 162.093 117.42 166.781 114.792L166.8 114.781L166.818 114.77C167.939 114.076 168.738 113.332 169.206 112.496C169.69 111.63 169.773 110.749 169.604 109.899C169.443 109.083 169.053 108.309 168.625 107.601C168.323 107.101 167.966 106.579 167.619 106.071C167.479 105.867 167.341 105.664 167.209 105.467L167.163 105.398L167.105 105.337C160.036 97.8472 154.75 88.8452 151.645 79.0086C148.663 -10.6079 21.6529 -12.7617 15.5065 76.6839C14.4074 89.1987 18.5842 100.717 24.2091 111.514C26.9385 116.754 30.0242 121.851 33.0313 126.819L33.3102 127.28C36.402 132.388 39.3941 137.356 41.86 142.256C44.8394 150.217 46.5657 158.596 46.9769 167.091L46.9778 167.108L46.9792 167.125C47.2415 170.273 48.6765 173.206 50.999 175.339C53.321 177.472 56.3591 178.647 59.5073 178.631C59.5083 178.631 59.5092 178.631 59.5101 178.631L69.2876 178.631H69.2889C72.6238 178.626 75.82 177.294 78.177 174.928C80.5337 172.561 81.859 169.354 81.8636 166.009V166.008V137.708C81.8968 134.908 80.9865 132.179 79.2796 129.964C77.5713 127.746 75.1656 126.174 72.4531 125.503L72.4449 125.501C65.265 123.79 58.5748 120.438 52.8945 115.708C47.2142 110.977 42.6969 104.994 39.6942 98.2242C36.6915 91.4545 35.2844 84.0804 35.5824 76.6754C35.8805 69.2704 37.8757 62.0344 41.4127 55.5302C44.9496 49.0259 49.933 43.4287 55.9748 39.1737C62.0167 34.9187 68.9544 32.1204 76.2484 30.9962C83.5423 29.8719 90.9963 30.452 98.0307 32.6913C105.063 34.9301 111.487 38.767 116.804 43.9042C122.595 49.6223 126.858 56.7141 129.198 64.5246C131.538 72.3366 131.879 80.6152 130.19 88.5947C128.5 96.5742 124.834 103.997 119.531 110.177C114.234 116.349 107.474 121.082 99.8763 123.941C99.471 124.064 99.0339 124.028 98.6533 123.84C98.2658 123.648 97.9662 123.312 97.8186 122.902C97.6709 122.492 97.6871 122.04 97.8637 121.642C98.0385 121.248 98.3564 120.937 98.7508 120.772C146.077 103.082 132.435 32.2766 81.8001 33.8358L81.7888 33.8361L81.7776 33.8367C70.6056 34.4329 60.0489 39.1569 52.1391 47.0985C44.2295 55.04 39.5257 65.6376 38.9321 76.8512L38.9317 76.8588L38.9314 76.8663C38.5397 87.2402 41.7387 97.4306 47.9853 105.705C54.2319 113.979 63.1406 119.826 73.1972 122.25C76.6408 123.082 79.7029 125.061 81.8836 127.866C84.0644 130.67 85.2348 134.134 85.2033 137.693V137.702V166.007C85.1994 170.247 83.5204 174.312 80.536 177.31C77.5517 180.308 73.5058 181.994 69.2862 182L59.5282 182L59.5228 182C55.5413 182.021 51.6975 180.534 48.7591 177.834C45.8248 175.139 44.0088 171.431 43.6733 167.451C43.2907 159.346 41.6798 151.348 38.8961 143.73L38.8736 143.669L38.8433 143.611C36.359 138.851 33.4565 134.016 30.5109 129.109C30.285 128.733 30.0588 128.356 29.8326 127.979C26.6496 122.672 23.4448 117.275 20.6439 111.731C15.0404 100.642 11.1066 89.0713 12.2148 76.7091L12.2178 76.6749L12.2185 76.6405C13.4827 15.5063 88.7967 -15.9775 132.581 26.5514L132.587 26.5566L132.592 26.5617C139.631 33.1985 145.242 41.2123 149.079 50.1094C152.916 59.0066 154.898 68.5985 154.903 78.2943L154.903 78.4625L154.958 78.6215C158.121 87.7369 163.129 96.0967 169.666 103.175C172.278 106.365 173.122 108.916 172.987 110.97C172.852 113.02 171.726 114.805 169.89 116.431C168.048 118.062 165.576 119.454 162.945 120.708C161.315 121.484 159.69 122.178 158.135 122.842C157.153 123.261 156.199 123.669 155.289 124.077Z" stroke="#FF00B8" stroke-width="2"/>
</svg>
