<svg width="300" height="300" viewBox="0 0 300 300" fill="none" xmlns="http://www.w3.org/2000/svg">
<path d="M264.594 82.8197H265.094V82.3197V44.5533C265.094 40.661 268.274 37.5 272.205 37.5C276.137 37.5 279.317 40.661 279.317 44.5533V120.086C279.317 123.978 276.137 127.139 272.205 127.139H264.594H264.094V127.639V240.939C264.094 244.831 260.914 247.992 256.982 247.992H226.534C222.603 247.992 219.423 244.831 219.423 240.939V240.893V239.901L218.625 240.491C199.011 255.001 174.756 263.098 149.909 263.098C129.927 263.098 110.215 257.896 92.9044 248.055L92.9043 248.055C82.8805 242.36 73.8254 235.198 66.0355 226.904L65.171 225.984V227.246V240.939C65.171 244.831 61.991 247.992 58.0592 247.992H27.6118C23.68 247.992 20.5 244.831 20.5 240.939V44.5533C20.5 42.2883 21.5968 40.1597 23.4525 38.8328L23.4527 38.8327C25.3066 37.5057 27.6932 37.1451 29.8613 37.8622L29.8613 37.8622C46.8405 43.4778 60.6873 54.7608 69.5646 69.1729L69.8895 69.7004L70.3365 69.2714C91.4943 48.9657 119.918 37.5 149.909 37.5C168.568 37.5 187.148 42.0814 203.468 50.5597L204.199 50.9391V50.116V44.5533C204.199 40.661 207.379 37.5 211.311 37.5C215.243 37.5 218.423 40.661 218.423 44.5533V82.3197V82.8197H218.923H234.146H234.646V82.3197V44.5533C234.646 40.661 237.826 37.5 241.758 37.5C245.69 37.5 248.87 40.661 248.87 44.5533V82.3197V82.8197H249.37H264.594ZM35.4646 55.6437L34.7237 55.2364V56.0819V157.852V158.352H35.2237H65.671H66.171V157.852V107.43C66.171 99.4258 64.5536 91.7144 61.5868 84.644L61.5856 84.6413C61.5788 84.6254 61.5722 84.6099 61.5657 84.5946C61.5279 84.5062 61.4948 84.4288 61.4653 84.3498L61.4613 84.3391L61.4568 84.3286C56.3129 72.263 47.2188 62.1064 35.4646 55.6437ZM34.7237 233.385V233.885H35.2237H50.4473H50.9473V233.385V172.959V172.459H50.4473H35.2237H34.7237V172.959V233.385ZM65.171 202.631V202.777L65.2493 202.9C83.3886 231.38 115.625 248.992 149.909 248.992C175.751 248.992 200.847 239.008 219.267 221.507L219.423 221.359V221.145V127.639V127.139H218.923H211.311C207.379 127.139 204.199 123.978 204.199 120.086V67.5475V67.2721L203.966 67.1249C188.104 57.095 169.065 51.6066 149.909 51.6066C121.846 51.6066 95.3556 63.0514 76.5256 83.1521L76.3196 83.372L76.4178 83.6569C79.0047 91.1626 80.3947 99.1703 80.3947 107.43V165.406C80.3947 169.298 77.2147 172.459 73.2828 172.459H65.671H65.171V172.959V202.631ZM249.37 233.885H249.87V233.385V127.639V127.139H249.37H234.146H233.646V127.639V233.385V233.885H234.146H249.37ZM264.594 113.033H265.094V112.533V97.4262V96.9262H264.594H218.923H218.423V97.4262V112.533V113.033H218.923H264.594Z" stroke="#00E0FF"/>
<path d="M175.325 137.761L175.325 137.761C178.101 135.004 182.607 135.004 185.384 137.761L185.384 137.761C188.16 140.514 188.16 144.977 185.384 147.732L147.325 185.498L147.324 185.498C145.938 186.876 144.118 187.566 142.295 187.566C140.472 187.566 138.652 186.876 137.266 185.498L137.265 185.498L114.43 162.838L114.43 162.838C111.654 160.085 111.654 155.622 114.43 152.867L114.43 152.867C117.206 150.11 121.713 150.11 124.489 152.867L124.489 152.867L141.943 170.185L142.295 170.534L142.647 170.185L175.325 137.761Z" stroke="#00E0FF"/>
</svg>
