<svg width="16" height="16" viewBox="0 0 16 16" fill="none" xmlns="http://www.w3.org/2000/svg">
<path d="M15.2854 2.63916L8.39257 9.53196L5.3291 6.4685" stroke="#00E0FF" stroke-width="1.31292" stroke-linecap="round" stroke-linejoin="round"/>
<path d="M15.2397 7.23436C15.2705 7.48848 15.2858 7.74424 15.2856 8.00023C15.2856 9.36349 14.8814 10.6961 14.124 11.8297C13.3666 12.9632 12.2901 13.8466 11.0306 14.3683C9.77107 14.89 8.38516 15.0265 7.04809 14.7606C5.71101 14.4946 4.48283 13.8381 3.51886 12.8742C2.55488 11.9102 1.89841 10.682 1.63245 9.34494C1.36649 8.00787 1.50299 6.62196 2.02469 5.36246C2.54639 4.10297 3.42985 3.02646 4.56337 2.26907C5.69689 1.51168 7.02954 1.10742 8.39281 1.10742C9.46009 1.11738 10.5099 1.37983 11.4563 1.87329" stroke="#00E0FF" stroke-width="1.31292" stroke-linecap="round" stroke-linejoin="round"/>
</svg>
