<svg width="300" height="300" viewBox="0 0 300 300" fill="none" xmlns="http://www.w3.org/2000/svg">
<mask id="path-1-inside-1_3564_1316" fill="white">
<path d="M216.213 224.647C215.768 224.647 215.314 224.56 214.878 224.375C213.143 223.637 212.334 221.631 213.07 219.894C213.637 218.56 214.169 217.205 214.662 215.835C215.303 214.06 217.26 213.138 219.035 213.78C220.809 214.42 221.73 216.378 221.09 218.152C220.551 219.642 219.975 221.117 219.36 222.567C218.806 223.866 217.543 224.647 216.213 224.647Z"/>
<path d="M222.273 200.773C222.165 200.773 222.055 200.769 221.944 200.758C220.065 200.577 218.688 198.909 218.868 197.032C219.106 194.544 219.226 192.011 219.226 189.501C219.226 188.794 219.215 188.089 219.195 187.386C219.137 185.5 220.621 183.926 222.507 183.87C224.451 183.868 225.967 185.329 226.023 187.182C226.048 187.952 226.059 188.723 226.059 189.501C226.059 192.226 225.927 194.979 225.669 197.681C225.501 199.45 224.013 200.773 222.273 200.773ZM219.727 170.772C218.119 170.772 216.686 169.63 216.375 167.994C215.766 164.785 215.057 161.529 214.269 158.317C213.82 156.484 214.941 154.634 216.774 154.185C218.609 153.738 220.457 154.857 220.905 156.689C221.721 160.016 222.456 163.392 223.087 166.717C223.438 168.572 222.222 170.36 220.369 170.711C220.154 170.751 219.938 170.772 219.727 170.772Z"/>
<path d="M211.747 141.589C210.346 141.589 209.034 140.722 208.531 139.328C208.024 137.915 207.504 136.521 206.972 135.138C206.296 133.377 207.174 131.402 208.936 130.723C210.689 130.057 212.672 130.922 213.351 132.687C213.9 134.115 214.438 135.559 214.963 137.02C215.599 138.794 214.679 140.751 212.901 141.39C212.521 141.525 212.129 141.589 211.747 141.589Z"/>
<path d="M143.53 273.146C98.0228 273.146 61 235.625 61 189.504C61 182.998 61.8293 176.276 63.4665 169.524C77.6109 88.0158 140.875 40.8694 141.513 40.402C142.714 39.5211 144.349 39.5211 145.55 40.402C146.141 40.8353 160.202 51.2374 176.626 70.8997C177.353 71.7718 177.6 72.9455 177.287 74.0351C176.44 76.9756 175.855 79.4481 175.443 81.8191C174.822 84.4212 174.529 86.7806 174.529 89.0494C174.529 105.191 187.457 118.322 203.348 118.322C203.628 118.322 203.904 118.3 204.179 118.282L204.793 118.244C206.161 118.173 207.475 118.956 208.062 120.219C209.959 124.313 211.739 128.507 213.348 132.686C214.027 134.446 213.15 136.423 211.389 137.101C209.638 137.777 207.652 136.903 206.974 135.141C205.687 131.801 204.285 128.449 202.802 125.149C183.395 124.853 167.696 108.772 167.696 89.0489C167.696 86.2402 168.054 83.3398 168.757 80.4307C169.089 78.487 169.569 76.3451 170.226 73.9099C158.386 59.9583 147.82 50.938 143.534 47.4906C132.794 56.1643 82.4379 100.146 70.1504 170.912C68.5956 177.358 67.8305 183.54 67.8305 189.502C67.8305 231.856 101.789 266.313 143.529 266.313C173.787 266.313 201.082 248.091 213.069 219.893C213.807 218.161 215.814 217.351 217.55 218.085C219.287 218.823 220.096 220.83 219.36 222.567C206.297 253.293 176.533 273.146 143.53 273.146Z"/>
<path d="M143.529 246.63C112.702 246.63 87.6223 221.55 87.6223 190.72C87.6223 159.893 112.702 134.814 143.529 134.814C174.359 134.814 199.438 159.894 199.438 190.72C199.438 221.55 174.359 246.63 143.529 246.63ZM143.529 141.646C116.47 141.646 94.454 163.661 94.454 190.72C94.454 217.782 116.47 239.797 143.529 239.797C170.591 239.797 192.606 217.782 192.606 190.72C192.606 163.661 170.591 141.646 143.529 141.646Z"/>
<path d="M151.764 224.645H135.296C133.41 224.645 131.879 223.115 131.879 221.229V202.374H113.024C111.138 202.374 109.608 200.844 109.608 198.958V182.489C109.608 180.603 111.138 179.073 113.024 179.073H131.879V160.218C131.879 158.332 133.41 156.802 135.296 156.802H151.764C153.65 156.802 155.18 158.332 155.18 160.218V179.073H174.035C175.921 179.073 177.451 180.603 177.451 182.489V198.958C177.451 200.844 175.921 202.374 174.035 202.374H155.18V221.229C155.18 223.115 153.65 224.645 151.764 224.645ZM138.712 217.813H148.348V198.957C148.348 197.071 149.878 195.541 151.764 195.541H170.62V185.905H151.764C149.878 185.905 148.348 184.375 148.348 182.489V163.634H138.712V182.489C138.712 184.375 137.182 185.905 135.296 185.905H116.441V195.541H135.296C137.182 195.541 138.712 197.071 138.712 198.957V217.813Z"/>
<path d="M118.79 102.394C118.141 102.394 117.485 102.209 116.904 101.824C115.332 100.781 114.903 98.6617 115.946 97.0893C120.492 90.2352 125.011 84.3345 129.376 79.5552C130.651 78.1608 132.808 78.0674 134.202 79.3372C135.595 80.6092 135.692 82.7687 134.42 84.1636C130.292 88.6847 125.992 94.3032 121.639 100.866C120.981 101.858 119.896 102.394 118.79 102.394Z"/>
<path d="M203.347 125.153C183.689 125.153 167.696 108.956 167.696 89.0489C167.696 86.2402 168.054 83.3398 168.757 80.4307C174.633 46.5504 200.243 27.4571 201.33 26.6607C202.531 25.7798 204.163 25.7798 205.364 26.6607C206.451 27.4543 232.01 46.5075 237.966 80.5393C238.653 83.4128 239 86.2731 239 89.0483C239 108.956 223.008 125.153 203.347 125.153ZM203.352 33.8158C197.383 38.9465 179.951 55.8667 175.443 81.8191C174.822 84.4212 174.529 86.7806 174.529 89.0494C174.529 105.191 187.457 118.322 203.348 118.322C219.24 118.322 232.168 105.191 232.168 89.0494C232.168 86.7811 231.874 84.4217 231.299 82.037C231.281 81.9662 231.265 81.8926 231.254 81.819C226.733 55.787 209.323 38.9312 203.352 33.8158Z"/>
</mask>
<path d="M174.957 81.7031C174.328 84.3377 174.029 86.7363 174.029 89.0494H175.029C175.029 86.825 175.316 84.5047 175.929 81.9351L174.957 81.7031ZM174.029 89.0494C174.029 105.46 187.174 118.822 203.348 118.822V117.822C187.741 117.822 175.029 104.922 175.029 89.0494H174.029ZM168.196 89.0489C168.196 86.2824 168.548 83.4215 169.243 80.5481L168.271 80.3132C167.559 83.2582 167.196 86.198 167.196 89.0489H168.196ZM214.878 224.375L214.486 225.296L214.488 225.296L214.878 224.375ZM213.07 219.894L212.15 219.503L212.149 219.504L213.07 219.894ZM214.662 215.835L213.722 215.496L213.722 215.496L214.662 215.835ZM219.035 213.78L218.694 214.72L218.695 214.721L219.035 213.78ZM221.09 218.152L222.03 218.492L222.03 218.492L221.09 218.152ZM219.36 222.567L220.28 222.958L220.28 222.958L219.36 222.567ZM221.944 200.758L222.048 199.763L222.04 199.762L221.944 200.758ZM218.868 197.032L219.864 197.128L219.864 197.127L218.868 197.032ZM219.195 187.386L220.195 187.358L220.195 187.356L219.195 187.386ZM222.507 183.87L222.506 182.87L222.492 182.87L222.477 182.871L222.507 183.87ZM226.023 187.182L225.023 187.212L225.023 187.214L226.023 187.182ZM225.669 197.681L224.674 197.586L224.674 197.587L225.669 197.681ZM216.375 167.994L217.358 167.807V167.807L216.375 167.994ZM214.269 158.317L213.298 158.555L213.298 158.555L214.269 158.317ZM216.774 154.185L216.537 153.213L216.536 153.214L216.774 154.185ZM220.905 156.689L219.934 156.927L219.934 156.927L220.905 156.689ZM223.087 166.717L224.07 166.531L224.07 166.53L223.087 166.717ZM220.369 170.711L220.552 171.694L220.556 171.694L220.369 170.711ZM208.531 139.328L207.59 139.666L207.59 139.667L208.531 139.328ZM206.972 135.138L206.038 135.496L206.039 135.497L206.972 135.138ZM208.936 130.723L208.58 129.789L208.577 129.79L208.936 130.723ZM213.351 132.687L212.417 133.046L212.417 133.046L213.351 132.687ZM214.963 137.02L215.904 136.682L215.904 136.681L214.963 137.02ZM212.901 141.39L213.236 142.332L213.239 142.331L212.901 141.39ZM63.4665 169.524L64.4383 169.759L64.4461 169.727L64.4518 169.695L63.4665 169.524ZM141.513 40.402L142.104 41.2088L142.105 41.2084L141.513 40.402ZM145.55 40.402L144.958 41.2084L144.959 41.2087L145.55 40.402ZM176.626 70.8997L177.394 70.2593L177.393 70.2586L176.626 70.8997ZM177.287 74.0351L178.248 74.3119L178.248 74.3112L177.287 74.0351ZM175.443 81.8191L174.458 81.6479L176.428 81.9902L175.443 81.8191ZM204.179 118.282L204.118 117.284L204.114 117.284L204.179 118.282ZM204.793 118.244L204.741 117.245L204.731 117.246L204.793 118.244ZM208.062 120.219L208.969 119.798L208.969 119.797L208.062 120.219ZM213.348 132.686L212.415 133.046L212.415 133.046L213.348 132.686ZM211.389 137.101L211.029 136.168L211.028 136.168L211.389 137.101ZM206.974 135.141L207.907 134.782L207.907 134.782L206.974 135.141ZM202.802 125.149L203.714 124.739L203.453 124.159L202.817 124.149L202.802 125.149ZM168.757 80.4307L167.771 80.2624L169.742 80.6015L168.757 80.4307ZM170.226 73.9099L171.192 74.1707L171.329 73.6634L170.989 73.2628L170.226 73.9099ZM143.534 47.4906L144.16 46.7114L143.532 46.2063L142.905 46.7127L143.534 47.4906ZM70.1504 170.912L71.1225 171.146L71.1301 171.115L71.1357 171.083L70.1504 170.912ZM213.069 219.893L212.149 219.501L212.149 219.502L213.069 219.893ZM217.55 218.085L217.941 217.165L217.94 217.164L217.55 218.085ZM131.879 202.374H132.879V201.374H131.879V202.374ZM131.879 179.073V180.073H132.879V179.073H131.879ZM155.18 179.073H154.18V180.073H155.18V179.073ZM155.18 202.374V201.374H154.18V202.374H155.18ZM138.712 217.813H137.712V218.813H138.712V217.813ZM148.348 217.813V218.813H149.348V217.813H148.348ZM170.62 195.541V196.541H171.62V195.541H170.62ZM170.62 185.905H171.62V184.905H170.62V185.905ZM148.348 163.634H149.348V162.634H148.348V163.634ZM138.712 163.634V162.634H137.712V163.634H138.712ZM116.441 185.905V184.905H115.441V185.905H116.441ZM116.441 195.541H115.441V196.541H116.441V195.541ZM116.904 101.824L116.352 102.657L116.352 102.657L116.904 101.824ZM115.946 97.0893L116.779 97.6423L116.779 97.642L115.946 97.0893ZM129.376 79.5552L128.638 78.8807L128.638 78.8808L129.376 79.5552ZM134.202 79.3372L134.877 78.5989L134.876 78.5978L134.202 79.3372ZM134.42 84.1636L135.159 84.8379L135.159 84.8374L134.42 84.1636ZM121.639 100.866L122.472 101.419L122.472 101.418L121.639 100.866ZM201.33 26.6607L201.921 27.4675L201.921 27.4671L201.33 26.6607ZM205.364 26.6607L204.772 27.4669L204.774 27.4685L205.364 26.6607ZM237.966 80.5393L236.981 80.7117L236.986 80.742L236.993 80.7719L237.966 80.5393ZM239 89.0483H238V89.0483L239 89.0483ZM203.352 33.8158L204.002 33.0564L203.351 32.4981L202.7 33.0575L203.352 33.8158ZM231.299 82.037L232.271 81.8024L232.269 81.7963L231.299 82.037ZM231.254 81.819L232.243 81.6714L232.242 81.6596L232.24 81.6479L231.254 81.819ZM216.213 223.647C215.898 223.647 215.577 223.586 215.268 223.455L214.488 225.296C215.051 225.534 215.637 225.647 216.213 225.647V223.647ZM215.27 223.455C214.043 222.933 213.47 221.514 213.991 220.284L212.149 219.504C211.198 221.748 212.244 224.341 214.486 225.296L215.27 223.455ZM213.99 220.285C214.565 218.934 215.103 217.562 215.603 216.174L213.722 215.496C213.234 216.848 212.709 218.186 212.15 219.503L213.99 220.285ZM215.603 216.175C216.056 214.917 217.441 214.267 218.694 214.72L219.375 212.84C217.079 212.008 214.549 213.203 213.722 215.496L215.603 216.175ZM218.695 214.721C219.951 215.174 220.602 216.559 220.149 217.813L222.03 218.492C222.858 216.197 221.667 213.667 219.374 212.839L218.695 214.721ZM220.149 217.813C219.617 219.287 219.047 220.744 218.439 222.176L220.28 222.958C220.903 221.49 221.486 219.998 222.03 218.492L220.149 217.813ZM218.44 222.175C218.049 223.093 217.156 223.647 216.213 223.647V225.647C217.93 225.647 219.564 224.639 220.28 222.959L218.44 222.175ZM222.273 199.773C222.191 199.773 222.118 199.77 222.048 199.763L221.841 201.752C221.993 201.768 222.138 201.773 222.273 201.773V199.773ZM222.04 199.762C220.71 199.635 219.736 198.454 219.864 197.128L217.873 196.937C217.64 199.365 219.421 201.52 221.849 201.753L222.04 199.762ZM219.864 197.127C220.105 194.607 220.226 192.042 220.226 189.501H218.226C218.226 191.979 218.108 194.48 217.873 196.937L219.864 197.127ZM220.226 189.501C220.226 188.784 220.215 188.069 220.195 187.358L218.196 187.415C218.216 188.109 218.226 188.804 218.226 189.501H220.226ZM220.195 187.356C220.154 186.023 221.203 184.909 222.536 184.87L222.477 182.871C220.039 182.943 218.121 184.978 218.196 187.417L220.195 187.356ZM222.508 184.87C223.931 184.869 224.985 185.92 225.023 187.212L227.022 187.152C226.95 184.738 224.97 182.868 222.506 182.87L222.508 184.87ZM225.023 187.214C225.048 187.972 225.059 188.733 225.059 189.501H227.059C227.059 188.714 227.047 187.931 227.022 187.15L225.023 187.214ZM225.059 189.501C225.059 192.194 224.929 194.916 224.674 197.586L226.665 197.777C226.926 195.043 227.059 192.258 227.059 189.501H225.059ZM224.674 197.587C224.555 198.837 223.502 199.773 222.273 199.773V201.773C224.523 201.773 226.447 200.064 226.665 197.776L224.674 197.587ZM219.727 169.772C218.59 169.772 217.577 168.963 217.358 167.807L215.393 168.18C215.795 170.298 217.647 171.772 219.727 171.772V169.772ZM217.358 167.807C216.745 164.581 216.032 161.307 215.24 158.079L213.298 158.555C214.081 161.75 214.787 164.989 215.393 168.18L217.358 167.807ZM215.24 158.079C214.923 156.782 215.716 155.474 217.011 155.156L216.536 153.214C214.166 153.794 212.717 156.186 213.298 158.555L215.24 158.079ZM217.01 155.157C218.311 154.84 219.617 155.633 219.934 156.927L221.877 156.451C221.296 154.081 218.906 152.636 216.537 153.213L217.01 155.157ZM219.934 156.927C220.746 160.237 221.477 163.596 222.105 166.904L224.07 166.53C223.435 163.188 222.697 159.795 221.877 156.451L219.934 156.927ZM222.105 166.903C222.353 168.216 221.492 169.481 220.183 169.729L220.556 171.694C222.952 171.239 224.523 168.927 224.07 166.531L222.105 166.903ZM220.186 169.728C220.029 169.758 219.874 169.772 219.727 169.772V171.772C220.002 171.772 220.279 171.745 220.552 171.694L220.186 169.728ZM211.747 140.589C210.755 140.589 209.827 139.975 209.472 138.989L207.59 139.667C208.24 141.47 209.937 142.589 211.747 142.589V140.589ZM209.472 138.99C208.963 137.57 208.439 136.168 207.905 134.779L206.039 135.497C206.568 136.874 207.086 138.261 207.59 139.666L209.472 138.99ZM207.906 134.78C207.428 133.534 208.048 132.137 209.295 131.657L208.577 129.79C206.3 130.667 205.165 133.22 206.038 135.496L207.906 134.78ZM209.292 131.658C210.536 131.185 211.939 131.802 212.417 133.046L214.284 132.329C213.406 130.042 210.841 128.929 208.58 129.789L209.292 131.658ZM212.417 133.046C212.964 134.468 213.5 135.904 214.022 137.358L215.904 136.681C215.376 135.213 214.836 133.763 214.284 132.328L212.417 133.046ZM214.022 137.357C214.472 138.613 213.82 139.997 212.563 140.448L213.239 142.331C215.537 141.506 216.726 138.975 215.904 136.682L214.022 137.357ZM212.567 140.447C212.295 140.544 212.016 140.589 211.747 140.589V142.589C212.242 142.589 212.747 142.506 213.236 142.332L212.567 140.447ZM143.53 272.146C98.5877 272.146 62 235.086 62 189.504H60C60 236.165 97.458 274.146 143.53 274.146V272.146ZM62 189.504C62 183.083 62.8186 176.439 64.4383 169.759L62.4947 169.288C60.84 176.112 60 182.914 60 189.504H62ZM64.4518 169.695C78.5268 88.5866 141.514 41.6406 142.104 41.2088L140.922 39.5952C140.236 40.0981 76.695 87.445 62.4812 169.353L64.4518 169.695ZM142.105 41.2084C142.954 40.5856 144.109 40.5856 144.958 41.2084L146.141 39.5956C144.588 38.4565 142.475 38.4565 140.922 39.5956L142.105 41.2084ZM144.959 41.2087C145.505 41.6089 159.5 51.9572 175.858 71.5407L177.393 70.2586C160.903 50.5175 146.777 40.0617 146.141 39.5953L144.959 41.2087ZM175.858 71.54C176.373 72.1575 176.547 72.9878 176.325 73.759L178.248 74.3112C178.652 72.9031 178.333 71.3861 177.394 70.2593L175.858 71.54ZM176.326 73.7583C175.471 76.725 174.877 79.2335 174.458 81.6479L176.428 81.9902C176.832 79.6627 177.408 77.2261 178.248 74.3119L176.326 73.7583ZM203.348 119.322C203.67 119.322 203.989 119.296 204.245 119.28L204.114 117.284C203.818 117.303 203.586 117.322 203.348 117.322V119.322ZM204.241 119.28L204.854 119.242L204.731 117.246L204.118 117.284L204.241 119.28ZM204.844 119.242C205.806 119.193 206.74 119.747 207.155 120.64L208.969 119.797C208.21 118.164 206.516 117.153 204.741 117.245L204.844 119.242ZM207.155 120.639C209.043 124.714 210.813 128.888 212.415 133.046L214.281 132.327C212.664 128.127 210.876 123.912 208.969 119.798L207.155 120.639ZM212.415 133.046C212.895 134.29 212.275 135.688 211.029 136.168L211.748 138.034C214.025 137.157 215.158 134.601 214.281 132.327L212.415 133.046ZM211.028 136.168C209.793 136.645 208.387 136.027 207.907 134.782L206.041 135.501C206.918 137.779 209.484 138.909 211.749 138.034L211.028 136.168ZM207.907 134.782C206.613 131.424 205.204 128.055 203.714 124.739L201.89 125.559C203.366 128.843 204.76 132.178 206.041 135.501L207.907 134.782ZM202.817 124.149C183.967 123.862 168.696 108.236 168.696 89.0489H166.696C166.696 109.307 182.823 125.844 202.787 126.149L202.817 124.149ZM169.743 80.5989C170.068 78.6925 170.54 76.582 171.192 74.1707L169.261 73.649C168.597 76.1081 168.109 78.2815 167.771 80.2624L169.743 80.5989ZM170.989 73.2628C159.098 59.2516 148.483 50.1879 144.16 46.7114L142.907 48.2699C147.157 51.6882 157.674 60.6649 169.464 74.5569L170.989 73.2628ZM142.905 46.7127C132.109 55.4319 81.5161 99.6098 69.1651 170.741L71.1357 171.083C83.3597 100.683 133.479 56.8967 144.162 48.2686L142.905 46.7127ZM69.1783 170.678C67.6067 177.192 66.8305 183.454 66.8305 189.502H68.8305C68.8305 183.626 69.5844 177.523 71.1225 171.146L69.1783 170.678ZM66.8305 189.502C66.8305 232.395 101.223 267.313 143.529 267.313V265.313C102.355 265.313 68.8305 231.318 68.8305 189.502H66.8305ZM143.529 267.313C174.195 267.313 201.848 248.846 213.99 220.285L212.149 219.502C200.316 247.337 173.379 265.313 143.529 265.313V267.313ZM213.989 220.285C214.511 219.061 215.931 218.486 217.161 219.006L217.94 217.164C215.696 216.216 213.104 217.261 212.149 219.501L213.989 220.285ZM217.159 219.006C218.387 219.528 218.96 220.947 218.439 222.177L220.28 222.957C221.231 220.713 220.188 218.119 217.941 217.165L217.159 219.006ZM218.439 222.176C205.531 252.538 176.125 272.146 143.53 272.146V274.146C176.94 274.146 207.063 254.047 220.28 222.958L218.439 222.176ZM143.529 245.63C113.254 245.63 88.6223 220.998 88.6223 190.72H86.6223C86.6223 222.102 112.15 247.63 143.529 247.63V245.63ZM88.6223 190.72C88.6223 160.446 113.254 135.814 143.529 135.814V133.814C112.15 133.814 86.6223 159.341 86.6223 190.72H88.6223ZM143.529 135.814C173.806 135.814 198.438 160.446 198.438 190.72H200.438C200.438 159.342 174.911 133.814 143.529 133.814V135.814ZM198.438 190.72C198.438 220.998 173.806 245.63 143.529 245.63V247.63C174.911 247.63 200.438 222.102 200.438 190.72H198.438ZM143.529 140.646C115.917 140.646 93.454 163.109 93.454 190.72H95.454C95.454 164.214 117.022 142.646 143.529 142.646V140.646ZM93.454 190.72C93.454 218.335 115.917 240.797 143.529 240.797V238.797C117.022 238.797 95.454 217.23 95.454 190.72H93.454ZM143.529 240.797C171.143 240.797 193.606 218.335 193.606 190.72H191.606C191.606 217.23 170.039 238.797 143.529 238.797V240.797ZM193.606 190.72C193.606 163.109 171.143 140.646 143.529 140.646V142.646C170.039 142.646 191.606 164.214 191.606 190.72H193.606ZM151.764 223.645H135.296V225.645H151.764V223.645ZM135.296 223.645C133.962 223.645 132.879 222.562 132.879 221.229H130.879C130.879 223.667 132.857 225.645 135.296 225.645V223.645ZM132.879 221.229V202.374H130.879V221.229H132.879ZM131.879 201.374H113.024V203.374H131.879V201.374ZM113.024 201.374C111.691 201.374 110.608 200.291 110.608 198.958H108.608C108.608 201.396 110.586 203.374 113.024 203.374V201.374ZM110.608 198.958V182.489H108.608V198.958H110.608ZM110.608 182.489C110.608 181.155 111.691 180.073 113.024 180.073V178.073C110.586 178.073 108.608 180.051 108.608 182.489H110.608ZM113.024 180.073H131.879V178.073H113.024V180.073ZM132.879 179.073V160.218H130.879V179.073H132.879ZM132.879 160.218C132.879 158.884 133.962 157.802 135.296 157.802V155.802C132.857 155.802 130.879 157.78 130.879 160.218H132.879ZM135.296 157.802H151.764V155.802H135.296V157.802ZM151.764 157.802C153.098 157.802 154.18 158.884 154.18 160.218H156.18C156.18 157.78 154.202 155.802 151.764 155.802V157.802ZM154.18 160.218V179.073H156.18V160.218H154.18ZM155.18 180.073H174.035V178.073H155.18V180.073ZM174.035 180.073C175.369 180.073 176.451 181.155 176.451 182.489H178.451C178.451 180.051 176.473 178.073 174.035 178.073V180.073ZM176.451 182.489V198.958H178.451V182.489H176.451ZM176.451 198.958C176.451 200.291 175.369 201.374 174.035 201.374V203.374C176.473 203.374 178.451 201.396 178.451 198.958H176.451ZM174.035 201.374H155.18V203.374H174.035V201.374ZM154.18 202.374V221.229H156.18V202.374H154.18ZM154.18 221.229C154.18 222.562 153.098 223.645 151.764 223.645V225.645C154.202 225.645 156.18 223.667 156.18 221.229H154.18ZM138.712 218.813H148.348V216.813H138.712V218.813ZM149.348 217.813V198.957H147.348V217.813H149.348ZM149.348 198.957C149.348 197.623 150.43 196.541 151.764 196.541V194.541C149.326 194.541 147.348 196.519 147.348 198.957H149.348ZM151.764 196.541H170.62V194.541H151.764V196.541ZM171.62 195.541V185.905H169.62V195.541H171.62ZM170.62 184.905H151.764V186.905H170.62V184.905ZM151.764 184.905C150.43 184.905 149.348 183.822 149.348 182.489H147.348C147.348 184.927 149.326 186.905 151.764 186.905V184.905ZM149.348 182.489V163.634H147.348V182.489H149.348ZM148.348 162.634H138.712V164.634H148.348V162.634ZM137.712 163.634V182.489H139.712V163.634H137.712ZM137.712 182.489C137.712 183.822 136.629 184.905 135.296 184.905V186.905C137.734 186.905 139.712 184.927 139.712 182.489H137.712ZM135.296 184.905H116.441V186.905H135.296V184.905ZM115.441 185.905V195.541H117.441V185.905H115.441ZM116.441 196.541H135.296V194.541H116.441V196.541ZM135.296 196.541C136.629 196.541 137.712 197.623 137.712 198.957H139.712C139.712 196.519 137.734 194.541 135.296 194.541V196.541ZM137.712 198.957V217.813H139.712V198.957H137.712ZM118.79 101.394C118.332 101.394 117.869 101.264 117.457 100.991L116.352 102.657C117.101 103.155 117.951 103.394 118.79 103.394V101.394ZM117.457 100.991C116.345 100.253 116.041 98.7541 116.779 97.6423L115.113 96.5364C113.764 98.5693 114.319 101.309 116.352 102.657L117.457 100.991ZM116.779 97.642C121.304 90.8199 125.792 84.9622 130.115 80.2297L128.638 78.8808C124.23 83.7067 119.68 89.6505 115.113 96.5366L116.779 97.642ZM130.115 80.2298C131.015 79.2444 132.541 79.1765 133.529 80.0766L134.876 78.5978C133.075 76.9583 130.286 77.0772 128.638 78.8807L130.115 80.2298ZM133.528 80.0755C134.512 80.9746 134.582 82.5021 133.681 83.4899L135.159 84.8374C136.803 83.0352 136.677 80.2437 134.877 78.5989L133.528 80.0755ZM133.682 83.4894C129.511 88.0574 125.179 93.7189 120.806 100.313L122.472 101.418C126.804 94.8875 131.074 89.3121 135.159 84.8379L133.682 83.4894ZM120.806 100.313C120.34 101.014 119.575 101.394 118.79 101.394V103.394C120.217 103.394 121.621 102.701 122.472 101.419L120.806 100.313ZM203.347 124.153C184.253 124.153 168.696 108.416 168.696 89.0489H166.696C166.696 109.496 183.125 126.153 203.347 126.153V124.153ZM169.742 80.6015C175.549 47.1193 200.885 28.2262 201.921 27.4675L200.739 25.8539C199.6 26.6879 173.717 45.9815 167.771 80.2598L169.742 80.6015ZM201.921 27.4671C202.771 26.8443 203.924 26.8444 204.772 27.4669L205.956 25.8545C204.403 24.7151 202.292 24.7153 200.739 25.8543L201.921 27.4671ZM204.774 27.4685C205.807 28.2221 231.094 47.0756 236.981 80.7117L238.951 80.367C232.926 45.9394 207.096 26.6865 205.954 25.8529L204.774 27.4685ZM236.993 80.7719C237.663 83.5739 238 86.3561 238 89.0483H240C240 86.1901 239.642 83.2517 238.938 80.3068L236.993 80.7719ZM238 89.0483C238 108.416 222.444 124.153 203.347 124.153V126.153C223.572 126.153 240 109.496 240 89.0482L238 89.0483ZM202.7 33.0575C196.668 38.2422 179.025 55.354 174.458 81.6479L176.428 81.9902C180.877 56.3793 198.098 39.6509 204.004 34.5742L202.7 33.0575ZM203.348 119.322C219.807 119.322 233.168 105.729 233.168 89.0494H231.168C231.168 104.654 218.673 117.322 203.348 117.322V119.322ZM233.168 89.0494C233.168 86.6954 232.863 84.2572 232.271 81.8024L230.327 82.2717C230.885 84.5863 231.168 86.8668 231.168 89.0494H233.168ZM232.269 81.7963C232.256 81.7438 232.248 81.7031 232.243 81.6714L230.265 81.9667C230.283 82.0821 230.306 82.1886 230.328 82.2778L232.269 81.7963ZM232.24 81.6479C227.659 55.2744 210.038 38.2268 204.002 33.0564L202.701 34.5753C208.608 39.6356 225.807 56.2996 230.269 81.9901L232.24 81.6479Z" fill="#00E0FF" mask="url(#path-1-inside-1_3564_1316)"/>
</svg>
