<svg width="25" height="25" viewBox="0 0 25 25" fill="none" xmlns="http://www.w3.org/2000/svg">
<path fill-rule="evenodd" clip-rule="evenodd" d="M12.5028 13.7543C14.8508 13.7543 16.7543 11.8508 16.7543 9.50284C16.7543 7.15484 14.8508 5.25142 12.5028 5.25142C10.1548 5.25142 8.25142 7.15484 8.25142 9.50284C8.25142 11.8508 10.1548 13.7543 12.5028 13.7543ZM17.7543 9.50284C17.7543 12.4031 15.4031 14.7543 12.5028 14.7543C9.60255 14.7543 7.25142 12.4031 7.25142 9.50284C7.25142 6.60256 9.60256 4.25142 12.5028 4.25142C15.4031 4.25142 17.7543 6.60255 17.7543 9.50284ZM18.2445 16.6897C19.8429 13.9239 21.0057 11.0711 21.0057 8.71093C21.0057 4.53243 17.2825 1 12.5028 1C7.72316 1 4 4.53243 4 8.71093C4 11.0711 5.16276 13.9239 6.76121 16.6897C8.34082 19.423 10.2618 21.9304 11.6071 23.5645C12.0852 24.1452 12.9205 24.1452 13.3985 23.5646C14.7439 21.9304 16.6649 19.423 18.2445 16.6897ZM22.0057 8.71093C22.0057 13.9806 16.8964 20.8894 14.1705 24.2002C13.2925 25.2666 11.7132 25.2666 10.8351 24.2002C8.10937 20.8894 3 13.9806 3 8.71093C3 3.90002 7.25456 0 12.5028 0C17.7511 0 22.0057 3.90002 22.0057 8.71093Z" fill="black"/>
</svg>
