<svg width="26" height="26" viewBox="0 0 26 26" fill="none" xmlns="http://www.w3.org/2000/svg">
<path d="M23.4999 17.0349V17.0381V21.6356H23.4998L23.4999 21.6411C23.5028 21.9029 23.4461 22.163 23.3327 22.4037C23.2192 22.6446 23.0512 22.8613 22.8385 23.0379C22.6258 23.2145 22.3738 23.3465 22.0992 23.4233C21.8246 23.5002 21.5352 23.5196 21.2514 23.48L21.2514 23.48L21.243 23.4789C16.4713 22.8961 12.043 20.8206 8.65466 17.5844C5.2667 14.3485 3.11113 10.1368 2.52182 5.61436L2.52195 5.61434L2.52017 5.6028C2.48033 5.34431 2.49961 5.08059 2.57706 4.82919C2.65453 4.57771 2.78881 4.34319 2.97239 4.14232C3.15605 3.94136 3.38479 3.77882 3.6439 3.66735C3.90307 3.55585 4.18554 3.49851 4.47174 3.50003V3.50004H4.47439H9.2358V3.50004L9.23868 3.50003C9.42644 3.49894 9.60422 3.56426 9.73823 3.67767C9.86946 3.78871 9.94859 3.9367 9.96855 4.09139C10.0965 5.6815 10.529 7.23522 11.2438 8.6759C11.3068 8.82062 11.3126 8.98041 11.2608 9.12812C11.208 9.27877 11.0966 9.41235 10.9403 9.49822C10.94 9.49837 10.9398 9.49853 10.9395 9.49869L9.88643 10.0692C9.6745 10.1806 9.48772 10.3343 9.33942 10.5217C9.19024 10.7102 9.08358 10.9283 9.02804 11.1619C8.97249 11.3956 8.96971 11.6381 9.01992 11.873C9.06966 12.1056 9.16995 12.3241 9.31279 12.5146C10.5654 14.258 12.1481 15.7624 13.9787 16.9515C14.176 17.0853 14.3993 17.1772 14.6339 17.2226C14.8705 17.2683 15.1145 17.2658 15.3501 17.2152C15.5858 17.1645 15.8089 17.0666 16.0046 16.9266C16.1991 16.7874 16.3625 16.6094 16.4826 16.403L17.0799 15.4061C17.1708 15.2653 17.3178 15.1556 17.4972 15.1058L17.3633 14.624L17.4972 15.1058C17.6788 15.0553 17.8737 15.072 18.0413 15.1508L18.0413 15.1509L18.0492 15.1545C19.5621 15.8347 21.1925 16.2452 22.8597 16.3663C23.0431 16.3873 23.2074 16.4709 23.3236 16.595C23.4406 16.7199 23.5009 16.877 23.4999 17.0349ZM23.9999 17.0381V21.6356V17.0381Z" stroke="#111111"/>
</svg>
