<svg width="29" height="28" viewBox="0 0 29 28" fill="none" xmlns="http://www.w3.org/2000/svg">
<path fill-rule="evenodd" clip-rule="evenodd" d="M4.02213 0C2.18118 0 0.688797 1.49239 0.688797 3.33333V24.6667C0.688797 26.5076 2.18118 28 4.02213 28H14.6888C15.0569 28 15.3555 27.7015 15.3555 27.3333V17.3333C15.3555 16.9652 15.0569 16.6667 14.6888 16.6667H12.0221V13.3333H14.6888C15.0569 13.3333 15.3555 13.0348 15.3555 12.6667V8.66667C15.3555 6.45753 17.1463 4.66667 19.3555 4.66667H23.3555V8H22.0221C20.5493 8 19.3555 9.19391 19.3555 10.6667V12.6667C19.3555 13.0348 19.654 13.3333 20.0221 13.3333H23.1383L22.1859 16.6667H20.0221C19.654 16.6667 19.3555 16.9652 19.3555 17.3333V27.3333C19.3555 27.7015 19.654 28 20.0221 28H25.3555C27.1964 28 28.6888 26.5076 28.6888 24.6667V3.33333C28.6888 1.49239 27.1964 0 25.3555 0H4.02213Z" fill="#434343"/>
</svg>
