<svg width="29" height="28" viewBox="0 0 29 28" fill="none" xmlns="http://www.w3.org/2000/svg">
<path fill-rule="evenodd" clip-rule="evenodd" d="M24.0222 0.466667H4.02216C2.07989 0.466667 0.488822 2.05773 0.488822 4V24C0.488822 25.9423 2.07989 27.5333 4.02216 27.5333H24.0222C25.9644 27.5333 27.5555 25.9423 27.5555 24V4C27.5555 2.05773 25.9644 0.466667 24.0222 0.466667ZM24.0222 0H4.02216C1.82216 0 0.0221558 1.8 0.0221558 4V24C0.0221558 26.2 1.82216 28 4.02216 28H24.0222C26.2222 28 28.0222 26.2 28.0222 24V4C28.0222 1.8 26.2222 0 24.0222 0Z" fill="#2D2F39"/>
<path fill-rule="evenodd" clip-rule="evenodd" d="M24.0222 0H4.02216C1.82216 0 0.0221558 1.8 0.0221558 4V24C0.0221558 26.2 1.82216 28 4.02216 28H24.0222C26.2222 28 28.0222 26.2 28.0222 24V4C28.0222 1.8 26.2222 0 24.0222 0ZM10.0222 3.7666H18.0222C21.3222 3.7666 24.0222 6.4666 24.0222 9.7666V17.7666C24.0222 21.0666 21.3222 23.7666 18.0222 23.7666H10.0222C6.7222 23.7666 4.0222 21.0666 4.0222 17.7666V9.7666C4.0222 6.4666 6.7222 3.7666 10.0222 3.7666ZM22.1222 17.7666C22.1222 20.0666 20.2222 21.8666 18.0222 21.8666H10.0222C7.7222 21.8666 5.9222 19.9666 5.9222 17.7666V9.7666C5.9222 7.4666 7.8222 5.6666 10.0222 5.6666H18.0222C20.3222 5.6666 22.1222 7.5666 22.1222 9.7666V17.7666ZM14.0222 8.9666C11.3222 8.9666 9.1222 11.1666 9.1222 13.8666C9.1222 16.5666 11.3222 18.7666 14.0222 18.7666C16.7222 18.7666 18.9222 16.5666 18.9222 13.8666C19.0222 11.1666 16.8222 8.9666 14.0222 8.9666ZM10.8222 13.8666C10.8222 15.6666 12.3222 17.0666 14.0222 17.0666C15.8222 17.0666 17.2222 15.6666 17.2222 13.8666C17.2222 12.0666 15.7222 10.6666 14.0222 10.6666C12.2222 10.6666 10.8222 12.1666 10.8222 13.8666ZM18.1222 8.6666C18.1222 7.9666 18.7222 7.4666 19.3222 7.4666C19.9222 7.4666 20.4222 7.9666 20.5222 8.6666C20.5222 9.3666 20.0222 9.8666 19.3222 9.8666C18.6222 9.8666 18.1222 9.3666 18.1222 8.6666Z" fill="#434343"/>
</svg>
