<svg width="39" height="28" viewBox="0 0 39 28" fill="none" xmlns="http://www.w3.org/2000/svg">
<path d="M22.4755 18.2665C21.5467 18.8832 20.4678 19.2092 19.3555 19.2092C18.2432 19.2092 17.1644 18.8832 16.2355 18.2665L0.93737 8.10919C0.852495 8.05283 0.769808 7.99409 0.688797 7.93367V24.5775C0.688797 26.4858 2.24375 28.0003 4.12559 28.0003H34.5853C36.5015 28.0003 38.0221 26.4517 38.0221 24.5775V7.93359C37.941 7.99416 37.8581 8.05305 37.773 8.10948L22.4755 18.2665Z" fill="#434343"/>
<path d="M2.15078 6.11487L17.4489 16.2259C18.028 16.6087 18.6917 16.8 19.3554 16.8C20.0192 16.8 20.6829 16.6086 21.262 16.2259L36.5602 6.11487C37.4756 5.5102 38.0221 4.49818 38.0221 3.40593C38.0221 1.52785 36.4809 0 34.5865 0H4.12441C2.23004 7.22867e-05 0.688797 1.52792 0.688797 3.40774C0.688797 4.49818 1.23538 5.5102 2.15078 6.11487Z" fill="#434343"/>
</svg>
