<svg width="300" height="300" viewBox="0 0 300 300" fill="none" xmlns="http://www.w3.org/2000/svg">
<g clip-path="url(#clip0_3291_2004)">
<mask id="path-1-inside-1_3291_2004" fill="white">
<path d="M149.023 48.4678C148.231 47.701 147.144 47.2912 146.053 47.3399C138.932 47.6199 131.832 48.6179 124.955 50.3138L126.899 58.1929C131.885 56.9636 136.997 56.1318 142.154 55.7058V132.435H55.0299C56.0969 127.404 57.5656 122.455 59.4117 117.663L51.845 114.742C49.22 121.542 47.301 128.642 46.1406 135.843C45.9499 137.02 46.2867 138.213 47.0575 139.121C47.8284 140.03 48.9563 140.55 50.1451 140.55H146.211C148.455 140.55 150.268 138.732 150.268 136.492V51.3931C150.268 50.2895 149.822 49.2346 149.023 48.4678Z"/>
<path d="M234.653 89.4251L228.162 94.2977C240.906 111.253 247.641 131.453 247.641 152.721C247.641 154.015 247.608 155.358 247.543 156.778H166.497V56.7242C172.944 57.8075 179.265 59.5358 185.347 61.8849L188.272 54.3183C180.145 51.178 171.617 49.0561 162.927 48.0175C161.754 47.8795 160.618 48.2447 159.75 49.0115C158.878 49.7783 158.383 50.8818 158.383 52.0463V160.836C158.383 163.075 160.196 164.893 162.44 164.893H251.345C253.459 164.893 255.219 163.266 255.39 161.16C255.637 158.077 255.755 155.318 255.755 152.721C255.755 129.68 248.456 107.796 234.653 89.4251Z"/>
<path d="M146.211 148.664H48.8386C46.595 148.664 44.7815 150.482 44.7815 152.721C44.7815 158.389 45.2318 164.065 46.1244 169.599L54.1373 168.309C53.5247 164.519 53.1393 160.657 52.981 156.778H142.154V249.736C134.295 249.087 126.574 247.497 119.137 244.99L116.545 252.682C126.043 255.883 135.967 257.709 146.049 258.102C146.101 258.102 146.154 258.106 146.207 258.106C147.254 258.106 148.264 257.701 149.019 256.974C149.822 256.208 150.268 255.153 150.268 254.049V152.721C150.268 150.482 148.455 148.664 146.211 148.664Z"/>
<path d="M251.925 174.565C251.162 173.579 249.986 173.007 248.74 173.007H162.44C160.196 173.007 158.383 174.825 158.383 177.064V253.396C158.383 254.556 158.878 255.66 159.746 256.431C160.496 257.096 161.454 257.453 162.44 257.453C162.598 257.453 162.76 257.445 162.923 257.425C167.166 256.918 171.426 256.143 175.581 255.12L173.638 247.241C171.284 247.822 168.895 248.316 166.493 248.718V181.121H243.409C243.129 182.046 242.833 182.967 242.524 183.884L250.213 186.477C251.154 183.686 251.986 180.846 252.671 178.038C252.972 176.829 252.696 175.547 251.925 174.565Z"/>
<path d="M121.04 65.9218C121.036 65.9178 121.032 65.9178 121.028 65.9178C115.352 61.6577 108.629 59.406 101.582 59.406C100.361 59.406 99.1193 59.4993 97.8494 59.6575C93.8936 51.5756 87.0613 45.1612 78.6711 41.7735C82.0142 38.2275 86.2134 35.4321 90.8345 33.6956L87.9823 26.1006C82.1522 28.2874 76.8535 31.8253 72.6502 36.3247C71.6765 37.3674 70.8123 38.4263 70.009 39.4933C68.3861 39.2743 66.747 39.1201 65.0674 39.1201C44.9316 39.1201 28.5527 55.503 28.5527 75.6347C28.5527 95.7664 44.9316 112.149 65.0674 112.149C68.5687 112.149 71.9483 111.626 75.1576 110.701C79.7949 117.192 86.7003 121.797 94.5387 123.534C94.5428 123.534 94.5428 123.538 94.5469 123.538C96.9 124.057 99.2694 124.321 101.582 124.321C109.307 124.321 116.809 121.538 122.696 116.491C122.7 116.486 122.7 116.486 122.704 116.482C129.905 110.299 134.039 101.325 134.039 91.8634C134.039 81.5825 129.301 72.1293 121.04 65.9218ZM65.0674 104.035C49.4107 104.035 36.6671 91.2954 36.6671 75.6347C36.6671 59.974 49.4107 47.2344 65.0674 47.2344C65.1769 47.2344 65.2783 47.2507 65.3879 47.2507C63.8015 50.7764 62.9171 54.083 62.4302 56.7607L70.4107 58.2172C70.8935 55.572 71.8631 52.1639 73.766 48.6098C82.0142 51.2713 88.599 57.6087 91.6338 65.6824C91.9219 66.4533 92.1775 67.2282 92.3965 68.0072C92.4249 68.1086 92.4493 68.2101 92.4736 68.3115C92.6643 69.0175 92.8307 69.7234 92.9686 70.4375C93.0254 70.7499 93.066 71.0663 93.1147 71.3787C93.1958 71.9062 93.281 72.4336 93.3338 72.9651C93.4149 73.8414 93.4676 74.734 93.4676 75.6347C93.4676 77.7242 93.212 79.8907 92.7049 82.0735C89.7715 94.6385 78.5088 104.035 65.0674 104.035ZM92.4168 114.405C88.7329 112.904 85.4831 110.502 82.923 107.451C88.9155 104.076 93.8734 99.0771 97.1637 93.0319L92.4168 114.405ZM125.588 87.8063H109.696L119.219 75.1154C122.586 78.633 124.793 83.0228 125.588 87.8063ZM112.727 70.2387L102.089 84.4185L100.937 82.3412V82.3372C101.14 81.2499 101.306 80.1504 101.408 79.0306C101.521 77.8946 101.582 76.7586 101.582 75.6347C101.582 74.2918 101.497 72.9691 101.355 71.6627C101.335 71.472 101.294 71.2854 101.27 71.0947C101.124 69.9222 100.925 68.7659 100.669 67.6299C100.665 67.6015 100.661 67.5731 100.653 67.5406C105.002 67.3499 109.023 68.3156 112.727 70.2387ZM100.336 116.174L103.781 100.668L114.111 112.717C109.988 115.196 105.221 116.426 100.336 116.174ZM120.269 107.431L110.406 95.9206H125.584C124.866 100.152 123.032 104.124 120.269 107.431Z"/>
<path d="M186.783 104.035H178.668V112.149H186.783V104.035Z"/>
<path d="M203.012 112.149H194.897V120.264H203.012V112.149Z"/>
<path d="M219.24 140.55H211.126V148.664H219.24V140.55Z"/>
<path d="M186.783 136.492H178.668V144.607H186.783V136.492Z"/>
<path d="M182.726 120.264H174.611V128.378H182.726V120.264Z"/>
<path d="M239.526 124.321H231.412V132.435H239.526V124.321Z"/>
<path d="M219.24 108.092H211.126V116.207H219.24V108.092Z"/>
<path d="M203.012 128.378H194.897V136.492H203.012V128.378Z"/>
<path d="M219.24 124.321H211.126V132.435H219.24V124.321Z"/>
<path d="M271.984 31.0057C261.411 31.0057 251.341 33.7565 242.277 38.4872C241.486 36.6858 240.411 34.9615 238.946 33.4968C233.432 27.9872 223.269 30.8353 222.125 31.1761C220.823 31.5697 219.8 32.588 219.407 33.8904C219.066 35.0304 216.214 45.1937 221.731 50.7114C222.368 51.3444 223.058 51.888 223.76 52.3952C221.103 55.1865 218.693 58.2335 216.469 61.4346C215.909 60.6231 215.317 59.8279 214.603 59.1139C209.256 53.7706 199.271 55.6004 198.147 55.8316C196.646 56.1359 195.445 57.2597 195.035 58.7365C194.487 60.7367 192.033 70.973 197.388 76.3285C200.078 79.0103 203.458 80.5155 206.805 80.8117C204.387 88.1511 203.012 95.9531 203.012 104.035H211.126C211.126 98.2048 211.994 92.5166 213.495 87.0516C215.735 88.3175 218.392 89.0762 221.269 89.0762C229.026 89.0762 234.37 79.9313 234.954 78.8845C235.639 77.6552 235.639 76.154 234.954 74.9206C234.443 74.0078 230.296 66.9077 224.08 65.1347C226.572 61.7145 229.355 58.5499 232.398 55.6815C234.467 60.2255 239.595 63.4632 245.612 63.4632C253.369 63.4632 258.713 54.3183 259.297 53.2715C259.982 52.0422 259.982 50.541 259.297 49.3077C258.948 48.6829 256.867 45.1693 253.609 42.4389C259.463 40.3129 265.642 39.1201 271.984 39.1201V31.0057ZM211.118 70.332C210.793 70.969 210.521 71.6343 210.213 72.2835C209.982 72.3443 209.746 72.3971 209.527 72.4985C207.994 73.1923 205.308 72.7663 203.129 70.5876C202.038 69.4962 201.973 66.2951 202.358 63.4835C204.854 63.3699 207.685 63.6701 208.866 64.8507C210.396 66.3803 211.256 68.4008 211.11 70.1251C211.106 70.194 211.122 70.263 211.118 70.332ZM226.551 76.9046C224.973 78.9697 222.831 80.9618 221.269 80.9618C219.183 80.9618 217.277 80.1747 216.169 79.1036C217.009 77.0872 217.95 75.1235 218.973 73.2045C219.703 72.9854 220.47 72.8474 221.269 72.8474C222.835 72.8474 224.973 74.8395 226.551 76.9046ZM230.016 46.638C229.152 46.281 228.28 45.786 227.472 44.9746C226.377 43.8792 226.312 40.9904 226.697 38.4669C229.079 38.1139 232.061 38.0855 233.209 39.2337C234.223 40.248 234.905 41.4773 235.234 42.6945C233.436 43.9238 231.7 45.2424 230.016 46.638ZM245.612 55.3488C242.37 55.3488 239.526 53.4541 239.518 51.5229C239.53 51.4499 239.583 51.1172 239.591 51.0441C239.64 50.6384 239.611 50.2368 239.538 49.8432C240.423 49.2225 241.324 48.6301 242.232 48.054C243.263 47.555 244.399 47.2344 245.612 47.2344C247.178 47.2344 249.316 49.2265 250.894 51.2916C249.316 53.3567 247.174 55.3488 245.612 55.3488Z"/>
<path d="M121.008 190.343C121.576 188.692 121.868 186.952 121.868 185.179C121.868 176.228 114.589 168.95 105.639 168.95C100.693 168.95 96.0886 171.25 93.0619 174.987C89.662 173.133 85.5967 172.54 81.787 173.409C78.2005 170.516 73.7863 168.95 69.1245 168.95C57.9389 168.95 48.8386 178.05 48.8386 189.236C39.8885 189.236 32.6099 196.514 32.6099 205.465C32.6099 208.211 33.2915 210.844 34.5736 213.185C30.845 216.212 28.5527 220.809 28.5527 225.75C28.5527 234.701 35.8313 241.979 44.7815 241.979C50.6481 241.979 55.8048 238.847 58.653 234.165L65.2215 247.302L69.1813 271.045C69.5059 273 71.1978 274.437 73.1817 274.437H105.639C107.883 274.437 109.696 272.619 109.696 270.379V246.373L113.697 222.363C113.733 222.14 113.754 221.916 113.754 221.693C124.939 221.693 134.039 214.415 134.039 205.465C134.039 198.584 128.664 192.676 121.008 190.343ZM113.754 213.579C112.796 213.579 111.798 213.461 110.52 213.198C109.327 212.95 108.082 213.254 107.136 214.025C106.191 214.796 105.639 215.948 105.639 217.169V221.361L101.639 245.371C101.602 245.59 101.582 245.813 101.582 246.036V266.322H76.6182L73.129 245.367C73.06 244.969 72.9383 244.584 72.7557 244.219L60.5842 219.876C59.8945 218.504 58.4907 217.636 56.953 217.636H56.1416C54.8149 217.636 53.5693 218.285 52.8147 219.373C52.0519 220.464 51.8775 221.856 52.3359 223.097C52.7173 224.136 52.8958 224.98 52.8958 225.75C52.8958 230.225 49.2565 233.865 44.7815 233.865C40.3064 233.865 36.6671 230.225 36.6671 225.75C36.6671 222.391 38.8052 219.344 41.9901 218.172C43.3128 217.681 44.2865 216.545 44.5664 215.157C44.8423 213.774 44.3798 212.345 43.3452 211.388C41.6534 209.822 40.7243 207.716 40.7243 205.465C40.7243 200.989 44.3636 197.35 48.8386 197.35C49.6501 197.35 50.5061 197.521 51.5204 197.886C52.7619 198.332 54.1414 198.145 55.2287 197.387C56.312 196.628 56.953 195.391 56.953 194.068V189.236C56.953 182.525 62.414 177.064 69.1245 177.064C72.4312 177.064 75.5349 178.387 77.8556 180.789C79.0038 181.982 80.7687 182.355 82.3023 181.726C85.4547 180.436 88.9926 181.276 91.2808 183.742C92.2424 184.777 93.6746 185.239 95.054 184.96C96.4375 184.684 97.5776 183.706 98.0644 182.383C99.2369 179.202 102.28 177.064 105.639 177.064C110.114 177.064 113.754 180.704 113.754 185.179C113.754 187.171 112.991 189.102 111.603 190.619C110.536 191.788 110.248 193.463 110.853 194.92C111.461 196.376 112.861 197.35 114.439 197.411C120.768 197.658 125.925 201.273 125.925 205.465C125.925 209.863 120.351 213.579 113.754 213.579Z"/>
<path d="M244.602 189.236H240.35C226.223 189.236 214.51 199.837 213.102 213.895L211.349 231.435L203.133 236.364L201.823 235.054C201.064 234.291 200.034 233.865 198.954 233.865H196.926C189.095 233.865 182.726 240.235 182.726 248.065C182.726 255.25 188.089 261.206 195.023 262.139C195.956 269.073 201.912 274.437 209.097 274.437C216.928 274.437 223.297 268.067 223.297 260.236V258.208C223.297 257.133 222.871 256.098 222.109 255.339L220.798 254.029L225.716 245.833L247.081 243.89C261.277 242.6 271.984 230.875 271.984 216.622C271.984 201.521 259.703 189.236 244.602 189.236ZM212.822 257.526L215.183 259.888V260.236C215.183 263.592 212.453 266.322 209.097 266.322C205.742 266.322 203.012 263.592 203.012 260.236V258.208C203.012 255.968 201.198 254.151 198.954 254.151H196.926C193.57 254.151 190.84 251.42 190.84 248.065C190.84 244.71 193.57 241.979 196.926 241.979H197.275L199.636 244.34C200.95 245.659 202.991 245.907 204.594 244.949L214.554 238.973L218.189 242.608L212.213 252.568C211.256 254.167 211.507 256.208 212.822 257.526ZM246.346 235.808L224.823 237.764L219.411 232.351L221.18 214.699C222.17 204.807 230.41 197.35 240.35 197.35H244.602C255.223 197.35 263.869 205.996 263.869 216.622C263.869 226.651 256.339 234.899 246.346 235.808Z"/>
<path d="M75.4781 63.8121C72.6097 67.2485 67.8871 68.4616 63.9963 66.7576C60.7059 65.3132 58.4704 61.9214 58.3 58.1199L50.1937 58.4809C50.498 65.3457 54.6364 71.5086 60.7343 74.1863C62.9536 75.16 65.3108 75.6266 67.6599 75.6266C72.9099 75.6266 78.1315 73.2897 81.7059 69.0134L75.4781 63.8121Z"/>
<path d="M233.059 208.158C228.99 211.161 227.444 215.948 227.355 219.433L235.469 219.644C235.477 219.312 235.615 216.358 237.879 214.691C239.96 213.157 242.979 213.214 245.405 214.812L249.876 208.041C244.622 204.568 237.859 204.617 233.059 208.158Z"/>
<path d="M83.6614 213.283C78.8131 208.495 71.6359 205.465 65.0674 205.465V213.579C72.1512 213.579 81.2961 219.482 81.2961 225.75V241.979H89.4105V225.75C89.4105 220.87 90.5952 209.522 101.582 209.522V201.407C93.0741 201.407 86.8341 205.797 83.6614 213.283Z"/>
</mask>
<path d="M149.023 48.4678C148.231 47.701 147.144 47.2912 146.053 47.3399C138.932 47.6199 131.832 48.6179 124.955 50.3138L126.899 58.1929C131.885 56.9636 136.997 56.1318 142.154 55.7058V132.435H55.0299C56.0969 127.404 57.5656 122.455 59.4117 117.663L51.845 114.742C49.22 121.542 47.301 128.642 46.1406 135.843C45.9499 137.02 46.2867 138.213 47.0575 139.121C47.8284 140.03 48.9563 140.55 50.1451 140.55H146.211C148.455 140.55 150.268 138.732 150.268 136.492V51.3931C150.268 50.2895 149.822 49.2346 149.023 48.4678Z" stroke="#00E0FF" stroke-width="2" mask="url(#path-1-inside-1_3291_2004)"/>
<path d="M234.653 89.4251L228.162 94.2977C240.906 111.253 247.641 131.453 247.641 152.721C247.641 154.015 247.608 155.358 247.543 156.778H166.497V56.7242C172.944 57.8075 179.265 59.5358 185.347 61.8849L188.272 54.3183C180.145 51.178 171.617 49.0561 162.927 48.0175C161.754 47.8795 160.618 48.2447 159.75 49.0115C158.878 49.7783 158.383 50.8818 158.383 52.0463V160.836C158.383 163.075 160.196 164.893 162.44 164.893H251.345C253.459 164.893 255.219 163.266 255.39 161.16C255.637 158.077 255.755 155.318 255.755 152.721C255.755 129.68 248.456 107.796 234.653 89.4251Z" stroke="#00E0FF" stroke-width="2" mask="url(#path-1-inside-1_3291_2004)"/>
<path d="M146.211 148.664H48.8386C46.595 148.664 44.7815 150.482 44.7815 152.721C44.7815 158.389 45.2318 164.065 46.1244 169.599L54.1373 168.309C53.5247 164.519 53.1393 160.657 52.981 156.778H142.154V249.736C134.295 249.087 126.574 247.497 119.137 244.99L116.545 252.682C126.043 255.883 135.967 257.709 146.049 258.102C146.101 258.102 146.154 258.106 146.207 258.106C147.254 258.106 148.264 257.701 149.019 256.974C149.822 256.208 150.268 255.153 150.268 254.049V152.721C150.268 150.482 148.455 148.664 146.211 148.664Z" stroke="#00E0FF" stroke-width="2" mask="url(#path-1-inside-1_3291_2004)"/>
<path d="M251.925 174.565C251.162 173.579 249.986 173.007 248.74 173.007H162.44C160.196 173.007 158.383 174.825 158.383 177.064V253.396C158.383 254.556 158.878 255.66 159.746 256.431C160.496 257.096 161.454 257.453 162.44 257.453C162.598 257.453 162.76 257.445 162.923 257.425C167.166 256.918 171.426 256.143 175.581 255.12L173.638 247.241C171.284 247.822 168.895 248.316 166.493 248.718V181.121H243.409C243.129 182.046 242.833 182.967 242.524 183.884L250.213 186.477C251.154 183.686 251.986 180.846 252.671 178.038C252.972 176.829 252.696 175.547 251.925 174.565Z" stroke="#00E0FF" stroke-width="2" mask="url(#path-1-inside-1_3291_2004)"/>
<path d="M121.04 65.9218C121.036 65.9178 121.032 65.9178 121.028 65.9178C115.352 61.6577 108.629 59.406 101.582 59.406C100.361 59.406 99.1193 59.4993 97.8494 59.6575C93.8936 51.5756 87.0613 45.1612 78.6711 41.7735C82.0142 38.2275 86.2134 35.4321 90.8345 33.6956L87.9823 26.1006C82.1522 28.2874 76.8535 31.8253 72.6502 36.3247C71.6765 37.3674 70.8123 38.4263 70.009 39.4933C68.3861 39.2743 66.747 39.1201 65.0674 39.1201C44.9316 39.1201 28.5527 55.503 28.5527 75.6347C28.5527 95.7664 44.9316 112.149 65.0674 112.149C68.5687 112.149 71.9483 111.626 75.1576 110.701C79.7949 117.192 86.7003 121.797 94.5387 123.534C94.5428 123.534 94.5428 123.538 94.5469 123.538C96.9 124.057 99.2694 124.321 101.582 124.321C109.307 124.321 116.809 121.538 122.696 116.491C122.7 116.486 122.7 116.486 122.704 116.482C129.905 110.299 134.039 101.325 134.039 91.8634C134.039 81.5825 129.301 72.1293 121.04 65.9218ZM65.0674 104.035C49.4107 104.035 36.6671 91.2954 36.6671 75.6347C36.6671 59.974 49.4107 47.2344 65.0674 47.2344C65.1769 47.2344 65.2783 47.2507 65.3879 47.2507C63.8015 50.7764 62.9171 54.083 62.4302 56.7607L70.4107 58.2172C70.8935 55.572 71.8631 52.1639 73.766 48.6098C82.0142 51.2713 88.599 57.6087 91.6338 65.6824C91.9219 66.4533 92.1775 67.2282 92.3965 68.0072C92.4249 68.1086 92.4493 68.2101 92.4736 68.3115C92.6643 69.0175 92.8307 69.7234 92.9686 70.4375C93.0254 70.7499 93.066 71.0663 93.1147 71.3787C93.1958 71.9062 93.281 72.4336 93.3338 72.9651C93.4149 73.8414 93.4676 74.734 93.4676 75.6347C93.4676 77.7242 93.212 79.8907 92.7049 82.0735C89.7715 94.6385 78.5088 104.035 65.0674 104.035ZM92.4168 114.405C88.7329 112.904 85.4831 110.502 82.923 107.451C88.9155 104.076 93.8734 99.0771 97.1637 93.0319L92.4168 114.405ZM125.588 87.8063H109.696L119.219 75.1154C122.586 78.633 124.793 83.0228 125.588 87.8063ZM112.727 70.2387L102.089 84.4185L100.937 82.3412V82.3372C101.14 81.2499 101.306 80.1504 101.408 79.0306C101.521 77.8946 101.582 76.7586 101.582 75.6347C101.582 74.2918 101.497 72.9691 101.355 71.6627C101.335 71.472 101.294 71.2854 101.27 71.0947C101.124 69.9222 100.925 68.7659 100.669 67.6299C100.665 67.6015 100.661 67.5731 100.653 67.5406C105.002 67.3499 109.023 68.3156 112.727 70.2387ZM100.336 116.174L103.781 100.668L114.111 112.717C109.988 115.196 105.221 116.426 100.336 116.174ZM120.269 107.431L110.406 95.9206H125.584C124.866 100.152 123.032 104.124 120.269 107.431Z" stroke="#00E0FF" stroke-width="2" mask="url(#path-1-inside-1_3291_2004)"/>
<path d="M186.783 104.035H178.668V112.149H186.783V104.035Z" stroke="#00E0FF" stroke-width="2" mask="url(#path-1-inside-1_3291_2004)"/>
<path d="M203.012 112.149H194.897V120.264H203.012V112.149Z" stroke="#00E0FF" stroke-width="2" mask="url(#path-1-inside-1_3291_2004)"/>
<path d="M219.24 140.55H211.126V148.664H219.24V140.55Z" stroke="#00E0FF" stroke-width="2" mask="url(#path-1-inside-1_3291_2004)"/>
<path d="M186.783 136.492H178.668V144.607H186.783V136.492Z" stroke="#00E0FF" stroke-width="2" mask="url(#path-1-inside-1_3291_2004)"/>
<path d="M182.726 120.264H174.611V128.378H182.726V120.264Z" stroke="#00E0FF" stroke-width="2" mask="url(#path-1-inside-1_3291_2004)"/>
<path d="M239.526 124.321H231.412V132.435H239.526V124.321Z" stroke="#00E0FF" stroke-width="2" mask="url(#path-1-inside-1_3291_2004)"/>
<path d="M219.24 108.092H211.126V116.207H219.24V108.092Z" stroke="#00E0FF" stroke-width="2" mask="url(#path-1-inside-1_3291_2004)"/>
<path d="M203.012 128.378H194.897V136.492H203.012V128.378Z" stroke="#00E0FF" stroke-width="2" mask="url(#path-1-inside-1_3291_2004)"/>
<path d="M219.24 124.321H211.126V132.435H219.24V124.321Z" stroke="#00E0FF" stroke-width="2" mask="url(#path-1-inside-1_3291_2004)"/>
<path d="M271.984 31.0057C261.411 31.0057 251.341 33.7565 242.277 38.4872C241.486 36.6858 240.411 34.9615 238.946 33.4968C233.432 27.9872 223.269 30.8353 222.125 31.1761C220.823 31.5697 219.8 32.588 219.407 33.8904C219.066 35.0304 216.214 45.1937 221.731 50.7114C222.368 51.3444 223.058 51.888 223.76 52.3952C221.103 55.1865 218.693 58.2335 216.469 61.4346C215.909 60.6231 215.317 59.8279 214.603 59.1139C209.256 53.7706 199.271 55.6004 198.147 55.8316C196.646 56.1359 195.445 57.2597 195.035 58.7365C194.487 60.7367 192.033 70.973 197.388 76.3285C200.078 79.0103 203.458 80.5155 206.805 80.8117C204.387 88.1511 203.012 95.9531 203.012 104.035H211.126C211.126 98.2048 211.994 92.5166 213.495 87.0516C215.735 88.3175 218.392 89.0762 221.269 89.0762C229.026 89.0762 234.37 79.9313 234.954 78.8845C235.639 77.6552 235.639 76.154 234.954 74.9206C234.443 74.0078 230.296 66.9077 224.08 65.1347C226.572 61.7145 229.355 58.5499 232.398 55.6815C234.467 60.2255 239.595 63.4632 245.612 63.4632C253.369 63.4632 258.713 54.3183 259.297 53.2715C259.982 52.0422 259.982 50.541 259.297 49.3077C258.948 48.6829 256.867 45.1693 253.609 42.4389C259.463 40.3129 265.642 39.1201 271.984 39.1201V31.0057ZM211.118 70.332C210.793 70.969 210.521 71.6343 210.213 72.2835C209.982 72.3443 209.746 72.3971 209.527 72.4985C207.994 73.1923 205.308 72.7663 203.129 70.5876C202.038 69.4962 201.973 66.2951 202.358 63.4835C204.854 63.3699 207.685 63.6701 208.866 64.8507C210.396 66.3803 211.256 68.4008 211.11 70.1251C211.106 70.194 211.122 70.263 211.118 70.332ZM226.551 76.9046C224.973 78.9697 222.831 80.9618 221.269 80.9618C219.183 80.9618 217.277 80.1747 216.169 79.1036C217.009 77.0872 217.95 75.1235 218.973 73.2045C219.703 72.9854 220.47 72.8474 221.269 72.8474C222.835 72.8474 224.973 74.8395 226.551 76.9046ZM230.016 46.638C229.152 46.281 228.28 45.786 227.472 44.9746C226.377 43.8792 226.312 40.9904 226.697 38.4669C229.079 38.1139 232.061 38.0855 233.209 39.2337C234.223 40.248 234.905 41.4773 235.234 42.6945C233.436 43.9238 231.7 45.2424 230.016 46.638ZM245.612 55.3488C242.37 55.3488 239.526 53.4541 239.518 51.5229C239.53 51.4499 239.583 51.1172 239.591 51.0441C239.64 50.6384 239.611 50.2368 239.538 49.8432C240.423 49.2225 241.324 48.6301 242.232 48.054C243.263 47.555 244.399 47.2344 245.612 47.2344C247.178 47.2344 249.316 49.2265 250.894 51.2916C249.316 53.3567 247.174 55.3488 245.612 55.3488Z" stroke="#00E0FF" stroke-width="2" mask="url(#path-1-inside-1_3291_2004)"/>
<path d="M121.008 190.343C121.576 188.692 121.868 186.952 121.868 185.179C121.868 176.228 114.589 168.95 105.639 168.95C100.693 168.95 96.0886 171.25 93.0619 174.987C89.662 173.133 85.5967 172.54 81.787 173.409C78.2005 170.516 73.7863 168.95 69.1245 168.95C57.9389 168.95 48.8386 178.05 48.8386 189.236C39.8885 189.236 32.6099 196.514 32.6099 205.465C32.6099 208.211 33.2915 210.844 34.5736 213.185C30.845 216.212 28.5527 220.809 28.5527 225.75C28.5527 234.701 35.8313 241.979 44.7815 241.979C50.6481 241.979 55.8048 238.847 58.653 234.165L65.2215 247.302L69.1813 271.045C69.5059 273 71.1978 274.437 73.1817 274.437H105.639C107.883 274.437 109.696 272.619 109.696 270.379V246.373L113.697 222.363C113.733 222.14 113.754 221.916 113.754 221.693C124.939 221.693 134.039 214.415 134.039 205.465C134.039 198.584 128.664 192.676 121.008 190.343ZM113.754 213.579C112.796 213.579 111.798 213.461 110.52 213.198C109.327 212.95 108.082 213.254 107.136 214.025C106.191 214.796 105.639 215.948 105.639 217.169V221.361L101.639 245.371C101.602 245.59 101.582 245.813 101.582 246.036V266.322H76.6182L73.129 245.367C73.06 244.969 72.9383 244.584 72.7557 244.219L60.5842 219.876C59.8945 218.504 58.4907 217.636 56.953 217.636H56.1416C54.8149 217.636 53.5693 218.285 52.8147 219.373C52.0519 220.464 51.8775 221.856 52.3359 223.097C52.7173 224.136 52.8958 224.98 52.8958 225.75C52.8958 230.225 49.2565 233.865 44.7815 233.865C40.3064 233.865 36.6671 230.225 36.6671 225.75C36.6671 222.391 38.8052 219.344 41.9901 218.172C43.3128 217.681 44.2865 216.545 44.5664 215.157C44.8423 213.774 44.3798 212.345 43.3452 211.388C41.6534 209.822 40.7243 207.716 40.7243 205.465C40.7243 200.989 44.3636 197.35 48.8386 197.35C49.6501 197.35 50.5061 197.521 51.5204 197.886C52.7619 198.332 54.1414 198.145 55.2287 197.387C56.312 196.628 56.953 195.391 56.953 194.068V189.236C56.953 182.525 62.414 177.064 69.1245 177.064C72.4312 177.064 75.5349 178.387 77.8556 180.789C79.0038 181.982 80.7687 182.355 82.3023 181.726C85.4547 180.436 88.9926 181.276 91.2808 183.742C92.2424 184.777 93.6746 185.239 95.054 184.96C96.4375 184.684 97.5776 183.706 98.0644 182.383C99.2369 179.202 102.28 177.064 105.639 177.064C110.114 177.064 113.754 180.704 113.754 185.179C113.754 187.171 112.991 189.102 111.603 190.619C110.536 191.788 110.248 193.463 110.853 194.92C111.461 196.376 112.861 197.35 114.439 197.411C120.768 197.658 125.925 201.273 125.925 205.465C125.925 209.863 120.351 213.579 113.754 213.579Z" stroke="#00E0FF" stroke-width="2" mask="url(#path-1-inside-1_3291_2004)"/>
<path d="M244.602 189.236H240.35C226.223 189.236 214.51 199.837 213.102 213.895L211.349 231.435L203.133 236.364L201.823 235.054C201.064 234.291 200.034 233.865 198.954 233.865H196.926C189.095 233.865 182.726 240.235 182.726 248.065C182.726 255.25 188.089 261.206 195.023 262.139C195.956 269.073 201.912 274.437 209.097 274.437C216.928 274.437 223.297 268.067 223.297 260.236V258.208C223.297 257.133 222.871 256.098 222.109 255.339L220.798 254.029L225.716 245.833L247.081 243.89C261.277 242.6 271.984 230.875 271.984 216.622C271.984 201.521 259.703 189.236 244.602 189.236ZM212.822 257.526L215.183 259.888V260.236C215.183 263.592 212.453 266.322 209.097 266.322C205.742 266.322 203.012 263.592 203.012 260.236V258.208C203.012 255.968 201.198 254.151 198.954 254.151H196.926C193.57 254.151 190.84 251.42 190.84 248.065C190.84 244.71 193.57 241.979 196.926 241.979H197.275L199.636 244.34C200.95 245.659 202.991 245.907 204.594 244.949L214.554 238.973L218.189 242.608L212.213 252.568C211.256 254.167 211.507 256.208 212.822 257.526ZM246.346 235.808L224.823 237.764L219.411 232.351L221.18 214.699C222.17 204.807 230.41 197.35 240.35 197.35H244.602C255.223 197.35 263.869 205.996 263.869 216.622C263.869 226.651 256.339 234.899 246.346 235.808Z" stroke="#00E0FF" stroke-width="2" mask="url(#path-1-inside-1_3291_2004)"/>
<path d="M75.4781 63.8121C72.6097 67.2485 67.8871 68.4616 63.9963 66.7576C60.7059 65.3132 58.4704 61.9214 58.3 58.1199L50.1937 58.4809C50.498 65.3457 54.6364 71.5086 60.7343 74.1863C62.9536 75.16 65.3108 75.6266 67.6599 75.6266C72.9099 75.6266 78.1315 73.2897 81.7059 69.0134L75.4781 63.8121Z" stroke="#00E0FF" stroke-width="2" mask="url(#path-1-inside-1_3291_2004)"/>
<path d="M233.059 208.158C228.99 211.161 227.444 215.948 227.355 219.433L235.469 219.644C235.477 219.312 235.615 216.358 237.879 214.691C239.96 213.157 242.979 213.214 245.405 214.812L249.876 208.041C244.622 204.568 237.859 204.617 233.059 208.158Z" stroke="#00E0FF" stroke-width="2" mask="url(#path-1-inside-1_3291_2004)"/>
<path d="M83.6614 213.283C78.8131 208.495 71.6359 205.465 65.0674 205.465V213.579C72.1512 213.579 81.2961 219.482 81.2961 225.75V241.979H89.4105V225.75C89.4105 220.87 90.5952 209.522 101.582 209.522V201.407C93.0741 201.407 86.8341 205.797 83.6614 213.283Z" stroke="#00E0FF" stroke-width="2" mask="url(#path-1-inside-1_3291_2004)"/>
</g>
<defs>
<clipPath id="clip0_3291_2004">
<rect width="248.336" height="248.336" fill="white" transform="translate(26.0996 26.1006)"/>
</clipPath>
</defs>
</svg>
