<svg width="300" height="300" viewBox="0 0 300 300" fill="none" xmlns="http://www.w3.org/2000/svg">
<mask id="path-1-inside-1_3564_1314" fill="white">
<path d="M43.9447 267.998H184.859C187.495 267.995 190.023 266.923 191.887 265.019C193.752 263.114 194.801 260.531 194.804 257.838V56.7544C194.801 54.0607 193.752 51.4783 191.888 49.5735C190.023 47.6687 187.495 46.5972 184.859 46.5941H168.526V41.7285C168.523 39.1492 167.519 36.6765 165.734 34.8528C163.949 33.029 161.529 32.003 159.004 32H69.7996C67.2749 32.0029 64.8545 33.0288 63.0692 34.8526C61.284 36.6764 60.2797 39.1492 60.2767 41.7285V46.5941H43.9443C41.3077 46.5974 38.7801 47.6689 36.9159 49.5737C35.0516 51.4784 34.003 54.0608 34 56.7544L34 257.838C34.003 260.531 35.0517 263.114 36.916 265.019C38.7804 266.923 41.3081 267.995 43.9447 267.998ZM67.4959 41.7285C67.4967 41.1045 67.7397 40.5064 68.1716 40.0652C68.6034 39.624 69.1889 39.3758 69.7996 39.3749H159.004C159.615 39.3757 160.2 39.6238 160.632 40.065C161.064 40.5062 161.307 41.1044 161.308 41.7285V58.8351C161.307 59.4586 161.063 60.0562 160.631 60.4968C160.2 60.9374 159.614 61.1852 159.004 61.1858H69.7996C69.1892 61.1852 68.604 60.9374 68.1721 60.4968C67.7402 60.0562 67.4969 59.4586 67.4954 58.8351L67.4959 41.7285ZM41.2188 56.7544C41.2195 56.016 41.5069 55.308 42.0179 54.7858C42.529 54.2636 43.2219 53.9698 43.9447 53.969H60.2772V58.8351C60.2807 61.4139 61.2853 63.886 63.0705 65.7093C64.8557 67.5325 67.2758 68.5579 69.8 68.5607H159.004C161.528 68.5579 163.948 67.5325 165.733 65.7093C167.519 63.886 168.523 61.4139 168.527 58.8351V53.969H184.859C185.582 53.9698 186.275 54.2636 186.786 54.7858C187.297 55.308 187.585 56.016 187.585 56.7544V257.838C187.585 258.576 187.297 259.284 186.786 259.806C186.275 260.329 185.582 260.622 184.859 260.623H43.9447C43.222 260.622 42.529 260.328 42.018 259.806C41.5069 259.284 41.2195 258.576 41.2187 257.838L41.2188 56.7544ZM112.568 133.767C113.124 134.102 113.757 134.278 114.402 134.278C115.047 134.278 115.68 134.102 116.236 133.767C123.079 129.504 129.274 124.238 134.622 118.138C141.766 109.876 145.244 101.757 144.678 94.6588C144.063 86.9377 139.478 80.6602 132.712 78.2768C126.602 76.1237 119.846 77.5747 114.402 82.0389C108.957 77.5747 102.201 76.1242 96.0907 78.2768C89.3232 80.6602 84.7401 86.9377 84.1252 94.6588C83.5594 101.757 87.0371 109.876 94.1818 118.138C99.5298 124.238 105.724 129.504 112.568 133.767ZM91.32 95.2571C91.7044 90.4265 94.3682 86.6837 98.444 85.2488C99.5514 84.8579 100.715 84.6586 101.886 84.6593C105.342 84.6593 108.855 86.3712 111.749 89.5742C112.087 89.9484 112.497 90.247 112.954 90.4512C113.41 90.6554 113.903 90.7608 114.402 90.7608C114.9 90.7608 115.393 90.6554 115.849 90.4512C116.306 90.247 116.716 89.9484 117.054 89.5742C120.921 85.2931 125.897 83.6743 130.359 85.2488C134.435 86.6851 137.099 90.4265 137.483 95.2575C138.323 105.785 124.812 119.4 114.402 126.258C103.992 119.4 90.4813 105.784 91.32 95.2571ZM61.7173 157.299C61.7173 156.321 62.0976 155.383 62.7745 154.691C63.4513 154 64.3694 153.611 65.3267 153.611H163.477C164.434 153.611 165.352 154 166.029 154.691C166.706 155.383 167.086 156.321 167.086 157.299C167.086 158.277 166.706 159.215 166.029 159.906C165.352 160.598 164.434 160.986 163.477 160.986H65.3267C64.8525 160.986 64.383 160.891 63.9449 160.705C63.5068 160.52 63.1088 160.248 62.7737 159.905C62.4385 159.563 62.1727 159.156 61.9914 158.708C61.8101 158.261 61.717 157.783 61.7173 157.299ZM61.7173 183.636C61.7173 182.658 62.0976 181.72 62.7745 181.028C63.4513 180.337 64.3694 179.948 65.3267 179.948H163.477C164.434 179.948 165.352 180.337 166.029 181.028C166.706 181.72 167.086 182.658 167.086 183.636C167.086 184.614 166.706 185.552 166.029 186.243C165.352 186.935 164.434 187.323 163.477 187.323H65.3267C64.8525 187.323 64.383 187.228 63.9449 187.042C63.5068 186.857 63.1088 186.585 62.7737 186.243C62.4385 185.9 62.1727 185.493 61.9914 185.045C61.8101 184.598 61.717 184.12 61.7173 183.636ZM61.7173 209.973C61.7173 208.995 62.0976 208.057 62.7745 207.365C63.4513 206.674 64.3694 206.285 65.3267 206.285H163.477C164.434 206.285 165.352 206.674 166.029 207.365C166.706 208.057 167.086 208.995 167.086 209.973C167.086 210.951 166.706 211.889 166.029 212.58C165.352 213.272 164.434 213.66 163.477 213.66H65.3267C64.8525 213.66 64.383 213.565 63.9449 213.379C63.5068 213.194 63.1088 212.922 62.7737 212.579C62.4385 212.237 62.1727 211.83 61.9914 211.382C61.8101 210.935 61.717 210.457 61.7173 209.973ZM61.7173 236.31C61.7173 235.332 62.0976 234.394 62.7745 233.703C63.4513 233.011 64.3694 232.622 65.3267 232.622H163.477C164.434 232.622 165.352 233.011 166.029 233.703C166.706 234.394 167.086 235.332 167.086 236.31C167.086 237.288 166.706 238.226 166.029 238.917C165.352 239.609 164.434 239.997 163.477 239.997H65.3267C64.8525 239.997 64.383 239.902 63.9449 239.716C63.5068 239.531 63.1088 239.259 62.7737 238.917C62.4385 238.574 62.1727 238.167 61.9914 237.719C61.8101 237.272 61.717 236.794 61.7173 236.31ZM236.602 209.975C230.986 209.975 225.495 211.676 220.825 214.864C216.155 218.052 212.515 222.584 210.365 227.885C208.216 233.187 207.654 239.02 208.75 244.648C209.845 250.276 212.55 255.446 216.522 259.503C220.494 263.561 225.554 266.324 231.063 267.443C236.572 268.562 242.282 267.987 247.471 265.791C252.66 263.595 257.095 259.876 260.215 255.104C263.335 250.333 265 244.723 265 238.985C264.991 231.293 261.997 223.919 256.673 218.48C251.349 213.041 244.131 209.984 236.602 209.975ZM236.602 260.625C232.414 260.625 228.319 259.356 224.836 256.979C221.353 254.601 218.638 251.222 217.035 247.269C215.432 243.315 215.012 238.965 215.829 234.767C216.646 230.57 218.663 226.715 221.625 223.688C224.587 220.662 228.36 218.601 232.468 217.766C236.577 216.931 240.835 217.359 244.705 218.996C248.575 220.634 251.883 223.407 254.211 226.965C256.538 230.523 257.781 234.706 257.781 238.985C257.774 244.722 255.541 250.221 251.571 254.277C247.6 258.334 242.217 260.618 236.602 260.625ZM249.103 229.535C249.438 229.878 249.704 230.284 249.885 230.731C250.067 231.179 250.16 231.658 250.16 232.143C250.16 232.627 250.067 233.106 249.885 233.554C249.704 234.001 249.438 234.408 249.103 234.75L235.703 248.44C235.026 249.131 234.108 249.52 233.151 249.52C232.194 249.52 231.276 249.131 230.599 248.44L224.102 241.802C223.438 241.108 223.068 240.175 223.073 239.204C223.078 238.233 223.458 237.303 224.13 236.617C224.802 235.93 225.712 235.542 226.662 235.537C227.612 235.531 228.526 235.909 229.206 236.587L233.151 240.617L243.998 229.533C244.333 229.19 244.731 228.919 245.169 228.733C245.607 228.548 246.076 228.452 246.55 228.452C247.025 228.452 247.494 228.548 247.932 228.733C248.37 228.919 248.768 229.193 249.103 229.535ZM236.602 46.5941C230.986 46.594 225.495 48.2955 220.825 51.4835C216.155 54.6715 212.515 59.2027 210.365 64.5042C208.216 69.8056 207.654 75.6392 208.75 81.2672C209.845 86.8952 212.55 92.0647 216.522 96.1222C220.494 100.18 225.554 102.943 231.063 104.062C236.572 105.181 242.282 104.606 247.471 102.41C252.66 100.214 257.095 96.4948 260.215 91.7234C263.335 86.952 265 81.3425 265 75.6043C264.991 67.9128 261.996 60.5392 256.672 55.1007C251.349 49.6622 244.131 46.603 236.602 46.5941ZM236.602 97.2441C232.414 97.2442 228.319 95.9754 224.836 93.5979C221.353 91.2205 218.638 87.8414 217.035 83.8878C215.432 79.9342 215.012 75.5837 215.829 71.3864C216.646 67.1892 218.663 63.3337 221.625 60.3075C224.587 57.2813 228.36 55.2203 232.468 54.3851C236.577 53.5499 240.835 53.978 244.705 55.6153C248.575 57.2527 251.883 60.0257 254.211 63.5836C256.538 67.1416 257.781 71.3248 257.781 75.6043C257.775 81.3411 255.542 86.8412 251.571 90.898C247.601 94.9548 242.218 97.2371 236.602 97.2441ZM249.103 66.1551C249.438 66.4976 249.704 66.9041 249.885 67.3515C250.067 67.7989 250.16 68.2784 250.16 68.7626C250.16 69.2469 250.067 69.7264 249.885 70.1738C249.704 70.6212 249.438 71.0277 249.103 71.3701L235.703 85.0598C235.026 85.7511 234.108 86.1395 233.151 86.1395C232.194 86.1395 231.276 85.7511 230.6 85.0598L224.103 78.4224C223.445 77.7271 223.081 76.7957 223.089 75.8288C223.097 74.862 223.477 73.937 224.146 73.2532C224.815 72.5694 225.72 72.1815 226.666 72.1729C227.613 72.1643 228.525 72.5358 229.205 73.2074L233.15 77.2378L243.998 66.1551C244.334 65.8127 244.731 65.5411 245.169 65.3557C245.607 65.1704 246.077 65.075 246.551 65.075C247.025 65.075 247.494 65.1704 247.932 65.3557C248.37 65.5411 248.768 65.8127 249.103 66.1551ZM236.602 128.283C230.986 128.283 225.495 129.985 220.825 133.173C216.155 136.361 212.515 140.892 210.366 146.193C208.216 151.494 207.654 157.328 208.749 162.956C209.845 168.584 212.55 173.753 216.521 177.811C220.493 181.868 225.553 184.631 231.062 185.751C236.57 186.87 242.28 186.296 247.469 184.1C252.658 181.904 257.094 178.186 260.214 173.414C263.334 168.643 265 163.034 265 157.296C264.991 149.604 261.997 142.23 256.673 136.791C251.349 131.352 244.131 128.292 236.602 128.283ZM236.602 178.933C232.413 178.933 228.319 177.664 224.836 175.287C221.353 172.909 218.638 169.53 217.035 165.576C215.432 161.622 215.012 157.272 215.829 153.074C216.647 148.877 218.664 145.021 221.626 141.995C224.588 138.969 228.362 136.908 232.47 136.074C236.579 135.239 240.837 135.667 244.707 137.305C248.577 138.943 251.885 141.716 254.212 145.275C256.539 148.833 257.781 153.016 257.781 157.296C257.774 163.032 255.541 168.532 251.57 172.588C247.6 176.644 242.217 178.926 236.602 178.933ZM249.103 147.844C249.438 148.186 249.704 148.592 249.886 149.04C250.067 149.487 250.16 149.967 250.16 150.451C250.16 150.936 250.067 151.415 249.886 151.863C249.704 152.31 249.438 152.717 249.103 153.059L235.703 166.749C235.368 167.091 234.97 167.363 234.532 167.548C234.094 167.733 233.625 167.829 233.151 167.829C232.677 167.829 232.208 167.733 231.77 167.548C231.332 167.363 230.934 167.091 230.599 166.749L224.102 160.111C223.767 159.769 223.501 159.362 223.319 158.915C223.138 158.468 223.045 157.988 223.045 157.504C223.045 157.02 223.138 156.54 223.319 156.093C223.501 155.645 223.767 155.239 224.102 154.896C224.437 154.554 224.835 154.282 225.273 154.097C225.711 153.912 226.18 153.816 226.654 153.816C227.128 153.816 227.597 153.912 228.035 154.097C228.473 154.282 228.871 154.554 229.206 154.896L233.151 158.927L243.998 147.844C244.676 147.153 245.594 146.765 246.551 146.765C247.508 146.765 248.426 147.153 249.103 147.844Z"/>
</mask>
<path d="M43.9447 267.998H184.859C187.495 267.995 190.023 266.923 191.887 265.019C193.752 263.114 194.801 260.531 194.804 257.838V56.7544C194.801 54.0607 193.752 51.4783 191.888 49.5735C190.023 47.6687 187.495 46.5972 184.859 46.5941H168.526V41.7285C168.523 39.1492 167.519 36.6765 165.734 34.8528C163.949 33.029 161.529 32.003 159.004 32H69.7996C67.2749 32.0029 64.8545 33.0288 63.0692 34.8526C61.284 36.6764 60.2797 39.1492 60.2767 41.7285V46.5941H43.9443C41.3077 46.5974 38.7801 47.6689 36.9159 49.5737C35.0516 51.4784 34.003 54.0608 34 56.7544L34 257.838C34.003 260.531 35.0517 263.114 36.916 265.019C38.7804 266.923 41.3081 267.995 43.9447 267.998ZM67.4959 41.7285C67.4967 41.1045 67.7397 40.5064 68.1716 40.0652C68.6034 39.624 69.1889 39.3758 69.7996 39.3749H159.004C159.615 39.3757 160.2 39.6238 160.632 40.065C161.064 40.5062 161.307 41.1044 161.308 41.7285V58.8351C161.307 59.4586 161.063 60.0562 160.631 60.4968C160.2 60.9374 159.614 61.1852 159.004 61.1858H69.7996C69.1892 61.1852 68.604 60.9374 68.1721 60.4968C67.7402 60.0562 67.4969 59.4586 67.4954 58.8351L67.4959 41.7285ZM41.2188 56.7544C41.2195 56.016 41.5069 55.308 42.0179 54.7858C42.529 54.2636 43.2219 53.9698 43.9447 53.969H60.2772V58.8351C60.2807 61.4139 61.2853 63.886 63.0705 65.7093C64.8557 67.5325 67.2758 68.5579 69.8 68.5607H159.004C161.528 68.5579 163.948 67.5325 165.733 65.7093C167.519 63.886 168.523 61.4139 168.527 58.8351V53.969H184.859C185.582 53.9698 186.275 54.2636 186.786 54.7858C187.297 55.308 187.585 56.016 187.585 56.7544V257.838C187.585 258.576 187.297 259.284 186.786 259.806C186.275 260.329 185.582 260.622 184.859 260.623H43.9447C43.222 260.622 42.529 260.328 42.018 259.806C41.5069 259.284 41.2195 258.576 41.2187 257.838L41.2188 56.7544ZM112.568 133.767C113.124 134.102 113.757 134.278 114.402 134.278C115.047 134.278 115.68 134.102 116.236 133.767C123.079 129.504 129.274 124.238 134.622 118.138C141.766 109.876 145.244 101.757 144.678 94.6588C144.063 86.9377 139.478 80.6602 132.712 78.2768C126.602 76.1237 119.846 77.5747 114.402 82.0389C108.957 77.5747 102.201 76.1242 96.0907 78.2768C89.3232 80.6602 84.7401 86.9377 84.1252 94.6588C83.5594 101.757 87.0371 109.876 94.1818 118.138C99.5298 124.238 105.724 129.504 112.568 133.767ZM91.32 95.2571C91.7044 90.4265 94.3682 86.6837 98.444 85.2488C99.5514 84.8579 100.715 84.6586 101.886 84.6593C105.342 84.6593 108.855 86.3712 111.749 89.5742C112.087 89.9484 112.497 90.247 112.954 90.4512C113.41 90.6554 113.903 90.7608 114.402 90.7608C114.9 90.7608 115.393 90.6554 115.849 90.4512C116.306 90.247 116.716 89.9484 117.054 89.5742C120.921 85.2931 125.897 83.6743 130.359 85.2488C134.435 86.6851 137.099 90.4265 137.483 95.2575C138.323 105.785 124.812 119.4 114.402 126.258C103.992 119.4 90.4813 105.784 91.32 95.2571ZM61.7173 157.299C61.7173 156.321 62.0976 155.383 62.7745 154.691C63.4513 154 64.3694 153.611 65.3267 153.611H163.477C164.434 153.611 165.352 154 166.029 154.691C166.706 155.383 167.086 156.321 167.086 157.299C167.086 158.277 166.706 159.215 166.029 159.906C165.352 160.598 164.434 160.986 163.477 160.986H65.3267C64.8525 160.986 64.383 160.891 63.9449 160.705C63.5068 160.52 63.1088 160.248 62.7737 159.905C62.4385 159.563 62.1727 159.156 61.9914 158.708C61.8101 158.261 61.717 157.783 61.7173 157.299ZM61.7173 183.636C61.7173 182.658 62.0976 181.72 62.7745 181.028C63.4513 180.337 64.3694 179.948 65.3267 179.948H163.477C164.434 179.948 165.352 180.337 166.029 181.028C166.706 181.72 167.086 182.658 167.086 183.636C167.086 184.614 166.706 185.552 166.029 186.243C165.352 186.935 164.434 187.323 163.477 187.323H65.3267C64.8525 187.323 64.383 187.228 63.9449 187.042C63.5068 186.857 63.1088 186.585 62.7737 186.243C62.4385 185.9 62.1727 185.493 61.9914 185.045C61.8101 184.598 61.717 184.12 61.7173 183.636ZM61.7173 209.973C61.7173 208.995 62.0976 208.057 62.7745 207.365C63.4513 206.674 64.3694 206.285 65.3267 206.285H163.477C164.434 206.285 165.352 206.674 166.029 207.365C166.706 208.057 167.086 208.995 167.086 209.973C167.086 210.951 166.706 211.889 166.029 212.58C165.352 213.272 164.434 213.66 163.477 213.66H65.3267C64.8525 213.66 64.383 213.565 63.9449 213.379C63.5068 213.194 63.1088 212.922 62.7737 212.579C62.4385 212.237 62.1727 211.83 61.9914 211.382C61.8101 210.935 61.717 210.457 61.7173 209.973ZM61.7173 236.31C61.7173 235.332 62.0976 234.394 62.7745 233.703C63.4513 233.011 64.3694 232.622 65.3267 232.622H163.477C164.434 232.622 165.352 233.011 166.029 233.703C166.706 234.394 167.086 235.332 167.086 236.31C167.086 237.288 166.706 238.226 166.029 238.917C165.352 239.609 164.434 239.997 163.477 239.997H65.3267C64.8525 239.997 64.383 239.902 63.9449 239.716C63.5068 239.531 63.1088 239.259 62.7737 238.917C62.4385 238.574 62.1727 238.167 61.9914 237.719C61.8101 237.272 61.717 236.794 61.7173 236.31ZM236.602 209.975C230.986 209.975 225.495 211.676 220.825 214.864C216.155 218.052 212.515 222.584 210.365 227.885C208.216 233.187 207.654 239.02 208.75 244.648C209.845 250.276 212.55 255.446 216.522 259.503C220.494 263.561 225.554 266.324 231.063 267.443C236.572 268.562 242.282 267.987 247.471 265.791C252.66 263.595 257.095 259.876 260.215 255.104C263.335 250.333 265 244.723 265 238.985C264.991 231.293 261.997 223.919 256.673 218.48C251.349 213.041 244.131 209.984 236.602 209.975ZM236.602 260.625C232.414 260.625 228.319 259.356 224.836 256.979C221.353 254.601 218.638 251.222 217.035 247.269C215.432 243.315 215.012 238.965 215.829 234.767C216.646 230.57 218.663 226.715 221.625 223.688C224.587 220.662 228.36 218.601 232.468 217.766C236.577 216.931 240.835 217.359 244.705 218.996C248.575 220.634 251.883 223.407 254.211 226.965C256.538 230.523 257.781 234.706 257.781 238.985C257.774 244.722 255.541 250.221 251.571 254.277C247.6 258.334 242.217 260.618 236.602 260.625ZM249.103 229.535C249.438 229.878 249.704 230.284 249.885 230.731C250.067 231.179 250.16 231.658 250.16 232.143C250.16 232.627 250.067 233.106 249.885 233.554C249.704 234.001 249.438 234.408 249.103 234.75L235.703 248.44C235.026 249.131 234.108 249.52 233.151 249.52C232.194 249.52 231.276 249.131 230.599 248.44L224.102 241.802C223.438 241.108 223.068 240.175 223.073 239.204C223.078 238.233 223.458 237.303 224.13 236.617C224.802 235.93 225.712 235.542 226.662 235.537C227.612 235.531 228.526 235.909 229.206 236.587L233.151 240.617L243.998 229.533C244.333 229.19 244.731 228.919 245.169 228.733C245.607 228.548 246.076 228.452 246.55 228.452C247.025 228.452 247.494 228.548 247.932 228.733C248.37 228.919 248.768 229.193 249.103 229.535ZM236.602 46.5941C230.986 46.594 225.495 48.2955 220.825 51.4835C216.155 54.6715 212.515 59.2027 210.365 64.5042C208.216 69.8056 207.654 75.6392 208.75 81.2672C209.845 86.8952 212.55 92.0647 216.522 96.1222C220.494 100.18 225.554 102.943 231.063 104.062C236.572 105.181 242.282 104.606 247.471 102.41C252.66 100.214 257.095 96.4948 260.215 91.7234C263.335 86.952 265 81.3425 265 75.6043C264.991 67.9128 261.996 60.5392 256.672 55.1007C251.349 49.6622 244.131 46.603 236.602 46.5941ZM236.602 97.2441C232.414 97.2442 228.319 95.9754 224.836 93.5979C221.353 91.2205 218.638 87.8414 217.035 83.8878C215.432 79.9342 215.012 75.5837 215.829 71.3864C216.646 67.1892 218.663 63.3337 221.625 60.3075C224.587 57.2813 228.36 55.2203 232.468 54.3851C236.577 53.5499 240.835 53.978 244.705 55.6153C248.575 57.2527 251.883 60.0257 254.211 63.5836C256.538 67.1416 257.781 71.3248 257.781 75.6043C257.775 81.3411 255.542 86.8412 251.571 90.898C247.601 94.9548 242.218 97.2371 236.602 97.2441ZM249.103 66.1551C249.438 66.4976 249.704 66.9041 249.885 67.3515C250.067 67.7989 250.16 68.2784 250.16 68.7626C250.16 69.2469 250.067 69.7264 249.885 70.1738C249.704 70.6212 249.438 71.0277 249.103 71.3701L235.703 85.0598C235.026 85.7511 234.108 86.1395 233.151 86.1395C232.194 86.1395 231.276 85.7511 230.6 85.0598L224.103 78.4224C223.445 77.7271 223.081 76.7957 223.089 75.8288C223.097 74.862 223.477 73.937 224.146 73.2532C224.815 72.5694 225.72 72.1815 226.666 72.1729C227.613 72.1643 228.525 72.5358 229.205 73.2074L233.15 77.2378L243.998 66.1551C244.334 65.8127 244.731 65.5411 245.169 65.3557C245.607 65.1704 246.077 65.075 246.551 65.075C247.025 65.075 247.494 65.1704 247.932 65.3557C248.37 65.5411 248.768 65.8127 249.103 66.1551ZM236.602 128.283C230.986 128.283 225.495 129.985 220.825 133.173C216.155 136.361 212.515 140.892 210.366 146.193C208.216 151.494 207.654 157.328 208.749 162.956C209.845 168.584 212.55 173.753 216.521 177.811C220.493 181.868 225.553 184.631 231.062 185.751C236.57 186.87 242.28 186.296 247.469 184.1C252.658 181.904 257.094 178.186 260.214 173.414C263.334 168.643 265 163.034 265 157.296C264.991 149.604 261.997 142.23 256.673 136.791C251.349 131.352 244.131 128.292 236.602 128.283ZM236.602 178.933C232.413 178.933 228.319 177.664 224.836 175.287C221.353 172.909 218.638 169.53 217.035 165.576C215.432 161.622 215.012 157.272 215.829 153.074C216.647 148.877 218.664 145.021 221.626 141.995C224.588 138.969 228.362 136.908 232.47 136.074C236.579 135.239 240.837 135.667 244.707 137.305C248.577 138.943 251.885 141.716 254.212 145.275C256.539 148.833 257.781 153.016 257.781 157.296C257.774 163.032 255.541 168.532 251.57 172.588C247.6 176.644 242.217 178.926 236.602 178.933ZM249.103 147.844C249.438 148.186 249.704 148.592 249.886 149.04C250.067 149.487 250.16 149.967 250.16 150.451C250.16 150.936 250.067 151.415 249.886 151.863C249.704 152.31 249.438 152.717 249.103 153.059L235.703 166.749C235.368 167.091 234.97 167.363 234.532 167.548C234.094 167.733 233.625 167.829 233.151 167.829C232.677 167.829 232.208 167.733 231.77 167.548C231.332 167.363 230.934 167.091 230.599 166.749L224.102 160.111C223.767 159.769 223.501 159.362 223.319 158.915C223.138 158.468 223.045 157.988 223.045 157.504C223.045 157.02 223.138 156.54 223.319 156.093C223.501 155.645 223.767 155.239 224.102 154.896C224.437 154.554 224.835 154.282 225.273 154.097C225.711 153.912 226.18 153.816 226.654 153.816C227.128 153.816 227.597 153.912 228.035 154.097C228.473 154.282 228.871 154.554 229.206 154.896L233.151 158.927L243.998 147.844C244.676 147.153 245.594 146.765 246.551 146.765C247.508 146.765 248.426 147.153 249.103 147.844Z" stroke="#00E0FF" stroke-width="2" mask="url(#path-1-inside-1_3564_1314)"/>
</svg>
